<svg id="Capa_1" data-name="Capa 1" xmlns="http://www.w3.org/2000/svg" viewBox="0 0 656.93 656.92"><path d="M728.37,300c-2.17.84-1.9,3.06-2.64,4.7-6.36,14.2-17,22.72-32.72,23.82a217.77,217.77,0,0,1-25.55.14c-20.86-1-36-16.81-36.32-37.84-.24-14.91-.2-29.82-.28-44.73.09-4,0-8.11.32-12.14.55-6.48,5.48-11,11.34-10.77s10,4.51,10.43,10.88c.13,1.7.07,3.42.07,5.13,0,15.81,0,31.62,0,47.43.05,14.93,5.26,20.17,20,20.21,4.7,0,9.4,0,14.1,0,13.58-.11,19.36-5.91,19.4-19.65,0-23.08,0-46.15,0-69.23q0-52.56,0-105.12c0-7.22-1.56-13.56-9-16.75-3.44-2.82-7.57-2.4-11.58-2.4q-81.7,0-163.42,0c-3.85,0-7.71-.18-11.54.08-10,.66-16.1,7-16.37,16.93-.2,7.26-.21,14.53,0,21.79.29,9.54,6.18,15.44,15.75,15.81,4.67.18,9.37-.17,14.06-.28l45,.28,2.45.55c8.21,7,8.5,12.34,1.13,20.12-.86.9-1.57,1.94-2.35,2.91Q545.21,197,519.81,222.24c-6.6,6.6-13,13.39-19.52,20.1-2.78,2.62-5.61,5.19-8.34,7.86-7.26,7.11-10.44,7.51-19.08,2.12a243.29,243.29,0,0,0-35.09-18.43c-27.61-11.49-56.19-18.65-86.26-19.06-18.65-2.07-37.1.17-55.37,3.36C188.3,237,105.09,327.11,95.06,436.37c-5.18,56.42,7.08,109,37.73,156.93,17.91,28,40.42,51.71,68.44,69.91a9.75,9.75,0,0,0,1.33,1.32c56,36.65,117.19,49.47,182.9,37.61,60.57-10.94,110.59-40.89,148.7-89.4,41.67-53,58.48-113.66,51.49-180.64-3.89-37.3-16.39-71.81-36.53-103.52-5.69-9-5.23-12.21,2.17-19.59q11.36-11.31,22.8-22.54c6.65-6.54,10.08-6.89,18-1.91,4.19,8.21,3.79,11-2.68,17.53-5,5-9.83,10.13-15.08,14.82-3.19,2.86-3.78,4.86-1.4,8.94,24.19,41.63,37,86.61,36.07,134.77-2,100.67-46.57,177.67-132.07,230.52-35.18,21.74-74.05,33.19-115.37,36.08-1,.07-2.17-.2-2.6,1.17h-41c-.48-1.78-2-1.21-3.14-1.34-10.6-1.23-21.22-2.38-31.58-5Q115.27,679.46,76.37,510.62c-2-8.6-1.41-17.63-4.74-26V435.91c3.28-8.1,3.09-16.86,4.69-25.28C97.42,300.06,184.83,214.25,295.64,196q95.4-15.74,179.5,32.3c3.83,2.19,5.83,2.08,9-1.13,18.45-18.65,37.18-37,57.32-57-11.65,0-21.3.08-31,0C492.63,170,477.63,159.09,474,142a98.85,98.85,0,0,1,.05-41.35c3.07-14.28,13-23.09,26.75-27.56,1.1-.35,2.69.32,3.14-1.45H696.3c8.59,3,16.91,6.32,23.1,13.62,4.35,5.12,6.05,11.42,9,17.17Z" transform="translate(-71.51 -71.57)" fill="#030305"/><path d="M71.63,484.66c3.33,8.33,2.76,17.36,4.74,26Q115.22,679.55,283.19,722c10.36,2.62,21,3.77,31.58,5,1.15.13,2.66-.44,3.14,1.34q-120.57,0-241.14.12c-4.4,0-5.27-.86-5.26-5.26Q71.77,604,71.63,484.66Z" transform="translate(-71.51 -71.57)" fill="#f6f6f6"/><path d="M728.37,102.42c-2.92-5.75-4.62-12-9-17.17-6.19-7.3-14.51-10.59-23.1-13.62,9.73,0,19.47.09,29.2-.06,2.37,0,3,.51,2.93,2.91C728.27,83.79,728.37,93.11,728.37,102.42Z" transform="translate(-71.51 -71.57)" fill="#f6f6f6"/><path d="M570.62,171.79c.78-1,1.49-2,2.35-2.91,7.37-7.78,7.08-13.12-1.13-20.12-.56-1.33-1.37-1.54-2.45-.55l-45-.28c0-7,.52-14.11-.08-21.09-1.54-17.8,14.16-31,31.22-30.91,47.31.26,94.63.09,142,.09,7.46,3.19,9,9.53,9,16.75q0,52.56,0,105.12c0,23.08,0,46.15,0,69.23,0,13.74-5.82,19.54-19.4,19.65-4.7,0-9.4,0-14.1,0-14.69,0-19.9-5.28-20-20.21,0-15.81,0-31.62,0-47.43,0-1.71.06-3.43-.07-5.13-.47-6.37-4.59-10.63-10.43-10.88s-10.79,4.29-11.34,10.77c-.33,4-.23,8.09-.32,12.14-13.47,12.29-26.24,25.27-38.77,38.51-7.92-5-11.35-4.64-18,1.9q-11.43,11.24-22.8,22.54c-7.4,7.38-7.86,10.63-2.17,19.59,20.14,31.71,32.64,66.22,36.53,103.52,7,67-9.82,127.6-51.49,180.64-38.11,48.51-88.13,78.46-148.7,89.4-65.71,11.86-126.89-1-182.9-37.61a9.75,9.75,0,0,1-1.33-1.32c-.23-6.09-4.19-10.09-8.08-14-11-11.1-20.24-23.53-28.64-36.59a251.94,251.94,0,0,1-27.32-56.77c-7.38-22.14-12.35-44.68-12.83-68a404.76,404.76,0,0,1,.86-40.89c1.3-16.28,5-31.94,9.44-47.41,5.24-18.38,13.31-35.65,22.77-52.4A245.51,245.51,0,0,1,191,300.77,257.67,257.67,0,0,1,266,244.23,274.67,274.67,0,0,1,332.8,221.4c6.39-1.33,13.9-.43,18.72-6.57,30.07.41,58.65,7.57,86.26,19.06a243.29,243.29,0,0,1,35.09,18.43c8.64,5.39,11.82,5,19.08-2.12,2.73-2.67,5.56-5.24,8.34-7.86,1.88,1.71,3.78,3.4,5.64,5.14,8.78,8.16,19.87,8.07,28.31-.34,13.28-13.23,26.4-26.63,39.81-39.72,9.11-8.89,10-23-.82-31C571.58,175.21,570.24,174.05,570.62,171.79ZM324.35,650.12c1.23,1.77,4.2,1.19,4.89,3.73,1.86,6.88,7.74,7.42,13.22,7.72,11.64.63,23.17,1.73,35,.43,14-1.55,27.89-3.79,41.15-8.21a175.87,175.87,0,0,0,75-48.93,180.59,180.59,0,0,0,34.85-55.2A168.77,168.77,0,0,0,540.8,476c-.59-9.91,1.05-21.85-11.11-27.64-.63-.3-.87-1.39-1.29-2.12q-1.29-8.2-2.58-16.41C512.5,345.68,438.58,278.59,353.75,273c-15.63-1-29.65.39-40.56,12.93a122.12,122.12,0,0,0-42.35,12c-2.06-3.83-5.16-6.33-9.55-6.61s-8.1,2.41-11.81,4.44c-70.9,39-109.48,116-95.58,196.36,12.63,73,55.63,122,125,148C293.55,645.58,309,647.73,324.35,650.12Z" transform="translate(-71.51 -71.57)" fill="#7fa9fc"/><path d="M351.52,214.83c-4.82,6.14-12.33,5.24-18.72,6.57A274.67,274.67,0,0,0,266,244.23,257.67,257.67,0,0,0,191,300.77a245.51,245.51,0,0,0-33.54,46.35c-9.46,16.75-17.53,34-22.77,52.4-4.41,15.47-8.14,31.13-9.44,47.41a404.76,404.76,0,0,0-.86,40.89c.48,23.32,5.45,45.86,12.83,68a251.94,251.94,0,0,0,27.32,56.77c8.4,13.06,17.68,25.49,28.64,36.59,3.89,3.94,7.85,7.94,8.08,14-28-18.2-50.53-41.89-68.44-69.91-30.65-47.91-42.91-100.51-37.73-156.93,10-109.26,93.24-199.36,201.09-218.18C314.42,215,332.87,212.76,351.52,214.83Z" transform="translate(-71.51 -71.57)" fill="#9bb9fa"/><path d="M570.62,171.79c-.38,2.26,1,3.42,2.61,4.63,10.83,8,9.93,22.11.82,31-13.41,13.09-26.53,26.49-39.81,39.72-8.44,8.41-19.53,8.5-28.31.34-1.86-1.74-3.76-3.43-5.64-5.14,6.5-6.71,12.92-13.5,19.52-20.1Q545.15,197,570.62,171.79Z" transform="translate(-71.51 -71.57)" fill="#9bb9fa"/><path d="M697.5,96c-47.32,0-94.64.17-142-.09-17.06-.1-32.76,13.11-31.22,30.91.6,7,.08,14.06.08,21.09-4.69.11-9.39.46-14.06.28-9.57-.37-15.46-6.27-15.75-15.81-.22-7.26-.21-14.53,0-21.79.27-10,6.4-16.27,16.37-16.93,3.83-.26,7.69-.08,11.54-.08q81.71,0,163.42,0C689.93,93.62,694.06,93.2,697.5,96Z" transform="translate(-71.51 -71.57)" fill="#9bb9fa"/><path d="M569.39,148.21c1.08-1,1.89-.78,2.45.55Z" transform="translate(-71.51 -71.57)" fill="#9bb9fa"/><path d="M313.19,285.9c10.91-12.54,24.93-14,40.56-12.93,84.83,5.62,158.75,72.71,172.07,156.82q1.3,8.2,2.58,16.41c-.67,12.58.69,25.2-1.23,37.76C515.25,561.81,472,614,398.27,640.94c-23.82,8.7-48.79,10.08-73.92,9.18-15.38-2.39-30.8-4.54-45.49-10-69.33-26-112.33-75-125-148-13.9-80.34,24.68-157.4,95.58-196.36,3.71-2,7.31-4.72,11.81-4.44s7.49,2.78,9.55,6.62c1.58,7.59.05,11.24-6.52,14.76-53.66,28.68-84.27,73.21-90.6,133.7a154.93,154.93,0,0,0,19.82,94.73,10.67,10.67,0,0,0,.61,1.78c35.39,64.62,113.16,99.23,184.4,80.87,61.4-15.83,103.12-54.44,121-115.23,18.18-61.87,3.28-117.37-41.24-164.12a153.8,153.8,0,0,0-82.68-45.54c-11.77-3.27-23.81-4.12-36-4.11a5.19,5.19,0,0,0-3.59.95c-8.46,6.91-16.35,14.24-19.95,25-2.59,7.79-.22,18.71,9.48,20.11,6.18,1.5,11.35-.21,15.61-4.87l4.92-2.83c6-.56,11.21.79,13.49,7.07,2.41,6.65-1.45,10.92-6.25,14.65-16.25,12.64-35.08,11.27-52-3.78-11.82-17-10.24-34,.46-50.65C305.09,295.26,309.36,290.72,313.19,285.9Z" transform="translate(-71.51 -71.57)" fill="#030305"/><path d="M193.54,541.08a154.93,154.93,0,0,1-19.82-94.73c6.33-60.49,36.94-105,90.6-133.7,6.57-3.52,8.1-7.17,6.52-14.76a121.92,121.92,0,0,1,42.35-12c-3.83,4.82-8.1,9.36-11.4,14.52-10.7,16.68-12.28,33.66-.46,50.65-3.17,2.44-6.16,5.19-9.56,7.29-11.3,7-20,16.85-28.85,26.35-12.45,13.35-21.61,29.05-29.81,45.39-6.55,13-9.74,27.11-13.72,40.88-4.33,14.95-3.4,30.6-2.79,46C217.19,532.16,206.34,540.49,193.54,541.08Z" transform="translate(-71.51 -71.57)" fill="#fcf1e1"/><path d="M324.35,650.12c25.13.9,50.1-.48,73.92-9.18,73.76-26.91,117-79.13,128.9-157,1.92-12.56.56-25.18,1.23-37.76.42.73.66,1.82,1.29,2.12,12.16,5.79,10.52,17.73,11.11,27.64a168.77,168.77,0,0,1-12.31,73.7,180.59,180.59,0,0,1-34.85,55.2,175.87,175.87,0,0,1-75,48.93c-13.26,4.42-27.11,6.66-41.15,8.21-11.82,1.3-23.35.2-35-.43-5.48-.3-11.36-.84-13.22-7.72C328.55,651.31,325.58,651.89,324.35,650.12Z" transform="translate(-71.51 -71.57)" fill="#9bb9fa"/><path d="M193.54,541.08c12.8-.59,23.65-8.92,23.06-24.06-.61-15.44-1.54-31.09,2.79-46,4-13.77,7.17-27.83,13.72-40.88,8.2-16.34,17.36-32,29.81-45.39,8.85-9.5,17.55-19.39,28.85-26.35,3.4-2.1,6.39-4.85,9.56-7.29,16.95,15.05,35.78,16.42,52,3.78,4.8-3.73,8.66-8,6.25-14.65-2.28-6.28-7.46-7.63-13.49-7.07.89-4.3,4.3-4.87,7.75-4.91,6.43-.09,11.08-3.67,15.29-7.76,6.07-5.91,4.49-14.34,6.45-21.62a153.8,153.8,0,0,1,82.68,45.54c44.52,46.75,59.42,102.25,41.24,164.12-17.86,60.79-59.58,99.4-121,115.23-71.24,18.36-149-16.25-184.4-80.87A10.67,10.67,0,0,1,193.54,541.08Zm145.91,2.57c16.72-.33,31.36-5.85,43.59-17.31,5.2-4.88,5.83-11.24,1.82-16-4.3-5-10.54-5.16-16.41-.3-18.86,15.61-38.21,15.6-57.3,0-5.93-4.86-12.07-4.72-16.39.37-4.08,4.8-3.41,11,1.82,15.89C308.63,537.65,323.05,543.12,339.45,543.65Zm45.33-100.79c0-3.42.16-6.85,0-10.26-.36-6.34-4.58-10.57-10.46-10.75-5.44-.16-10.69,3.81-11.05,9.52a165.48,165.48,0,0,0,.09,23.67c.47,5.78,5.75,9.43,11.32,9.11s9.73-4.38,10.1-10.4C385,450.13,384.79,446.49,384.78,442.86Zm-68.24.48c0-3.63.21-7.28,0-10.89-.45-6.38-5.41-10.85-11.38-10.59-5.8.25-10.13,4.63-10.32,10.92-.2,6.84-.22,13.68,0,20.51.2,6.37,4.43,10.62,10.33,10.86S316,460,316.51,453.6C316.77,450.2,316.56,446.76,316.54,443.34Z" transform="translate(-71.51 -71.57)" fill="#fdead1"/><path d="M375.61,298.84c-2,7.28-.38,15.71-6.45,21.62-4.21,4.09-8.86,7.67-15.29,7.76-3.45,0-6.86.61-7.75,4.91L341.2,336c-4.84-3.8-11.92-1.58-15.61,4.87-9.7-1.4-12.07-12.32-9.48-20.11,3.6-10.8,11.49-18.13,19.95-25a5.19,5.19,0,0,1,3.59-.95C351.8,294.72,363.84,295.57,375.61,298.84Z" transform="translate(-71.51 -71.57)" fill="#fcf1e1"/><path d="M325.59,340.83c3.69-6.45,10.77-8.67,15.61-4.87C336.94,340.62,331.77,342.33,325.59,340.83Z" transform="translate(-71.51 -71.57)" fill="#fdead1"/><path d="M339.45,543.65c-16.4-.53-30.82-6-42.87-17.33-5.23-4.91-5.9-11.09-1.82-15.89,4.32-5.09,10.46-5.23,16.39-.37,19.09,15.63,38.44,15.64,57.3,0,5.87-4.86,12.11-4.74,16.41.3,4,4.71,3.38,11.07-1.82,16C370.81,537.8,356.17,543.32,339.45,543.65Z" transform="translate(-71.51 -71.57)" fill="#030305"/><path d="M384.78,442.86c0,3.63.19,7.27,0,10.89-.37,6-4.44,10.07-10.1,10.4s-10.85-3.33-11.32-9.11a165.48,165.48,0,0,1-.09-23.67c.36-5.71,5.61-9.68,11.05-9.52,5.88.18,10.1,4.41,10.46,10.75C384.94,436,384.78,439.44,384.78,442.86Z" transform="translate(-71.51 -71.57)" fill="#030305"/><path d="M316.55,443.34c0,3.42.22,6.86,0,10.26-.47,6.4-5.36,10.8-11.39,10.55s-10.13-4.49-10.33-10.86c-.21-6.83-.19-13.67,0-20.51.19-6.29,4.52-10.67,10.32-10.92,6-.26,10.93,4.21,11.38,10.59C316.75,436.06,316.54,439.71,316.55,443.34Z" transform="translate(-71.51 -71.57)" fill="#030305"/></svg>