<svg id="Capa_1" data-name="Capa 1" xmlns="http://www.w3.org/2000/svg" viewBox="0 0 500 701.54"><path d="M150.55,398.73c0-32.49-.07-65,0-97.46.31-126.16,87.78-230.81,212.24-249.8C498.87,30.7,616.51,121.14,643.91,242.56a270.79,270.79,0,0,1,6.59,60.71c-.16,65,.1,130-.1,194.92-.34,111.32-69.21,205.64-175,240.11-125.76,41-266.44-29-310.15-154.2a254.33,254.33,0,0,1-14.72-85.71C150.68,465.17,150.55,432,150.55,398.73Zm479.37.89c0-14.6.21-29.2,0-43.8-.58-32.41,1.72-64.87-3.66-97.18C603.35,121.34,458,35.4,326.23,81.57c-94.41,33.1-154.55,118.11-155.09,220-.35,65-.18,129.94,0,194.91A251.67,251.67,0,0,0,179,559.18c40,154.15,227.69,220.93,356,126.58,6.32-4.65,7-7.39.56-12.67-18.1-14.75-35.69-30.1-53.46-45.25-5.12-4.36-7.12-9.69-2.44-15.22s10.24-4.57,15.57-.57c1.74,1.31,3.32,2.85,5,4.26q25.85,22,51.69,44c3.81,3.25,6.69,6,11.71.74,37.23-38.61,59.77-84.25,64.73-137.72C632.17,482.18,629.08,440.85,629.92,399.62Z" transform="translate(-150.5 -48.49)"/><path d="M357.74,495.1q45.78,38.91,91.55,77.83c3.62,3.07,7.22,6.17,10.85,9.22,5.69,4.79,8.9,10.43,3,16.82-5.39,5.87-11.08,3.43-16.36-1.08q-33.31-28.42-66.74-56.75-52.66-44.55-105.44-89-59-49.59-70.93-125.69c-1.16-7.43-1-14.89,7.92-16.46,9.16-1.6,11,5.34,12.38,12.91,14.08,77.5,58.59,128.12,135,148.37,84.83,22.5,176.31-26,207.66-108.54,28.94-76.18,3.83-160.67-62-208.58-2.6-1.89-5.42-3.47-10-6.36,2.76,15.52,4.24,29.21,2.65,43.2-5.94,52.44-63.6,84.18-109.74,59.51C364.18,238.05,353,217.61,354.59,191c1.33-21.77,11.6-38.06,31.9-47.17,18.14-8.14,40.82-4.37,54.1,8.7,12.78,12.59,16.74,32.17,9.66,48.45-3.79,8.71-10.14,14.85-18.74,19.07-5.9,2.89-10.23.88-13.23-3.64-3.16-4.76-2.17-9.63,2.42-13.63C434.92,190.4,437,178.53,426.87,168c-10.31-10.79-30-10.65-41.53.91-11.12,11.18-13.22,25-8.44,39.53,5.2,15.84,16.63,25.62,33.07,28.5,46.7,8.18,80.61-36,63.92-83-5.3-14.93-13.79-24.64-30.71-28.65-99.29-23.54-199.82,39.36-218.1,142.58-.57,3.24-1.33,6.45-1.64,9.71-.68,7-4.24,10.9-11.41,10.16-7.45-.78-9.51-6.05-8.77-12.61a193.27,193.27,0,0,1,13.67-52.71c32.92-79.16,112.61-127,198-121.82,87.4,5.28,178.87,76.69,184.38,191.37C603.9,386.67,533.16,475.54,440,493.23a214.28,214.28,0,0,1-41.3,3.89C385.25,497,371.85,495.6,357.74,495.1Z" transform="translate(-150.5 -48.49)"/><path d="M399.6,377A38.82,38.82,0,0,1,371,364c-4.26-4.67-4.7-10-.06-14.58,4.17-4.16,8.87-3.84,13.76-.47,15,10.33,16.75,10.34,31.6,0,4.88-3.39,9.6-3.72,13.77.41,4.63,4.59,4.2,10,0,14.62C422,372.8,411.84,377,399.6,377Z" transform="translate(-150.5 -48.49)"/><path d="M304,311.49c.29-3.54.06-6.91.91-10,1.38-4.95,4.7-8,10.28-7.88S324.4,297,325,302a80.88,80.88,0,0,1,.05,19.42c-.6,5.07-4.47,8.3-9.83,8.45s-9-2.88-10.3-7.91C304.07,318.51,304.27,314.8,304,311.49Z" transform="translate(-150.5 -48.49)"/><path d="M496.64,312a54.74,54.74,0,0,1-.05,7.58c-.87,6-4.11,10.28-10.53,10.29s-9.92-4-10.49-10.21a110.37,110.37,0,0,1-.11-14.09c.23-6.47,2.78-11.49,10-11.79,7.81-.32,10.7,4.77,11.23,11.71.17,2.16,0,4.34,0,6.51Z" transform="translate(-150.5 -48.49)"/></svg>