<svg id="Capa_1" data-name="Capa 1" xmlns="http://www.w3.org/2000/svg" viewBox="0 0 500 701.58"><path d="M543,624.53a9.9,9.9,0,0,1-7.63-16.21A173.9,173.9,0,0,0,575,497.86a9.91,9.91,0,0,1,19.82,0,193.78,193.78,0,0,1-44.19,123.07A9.87,9.87,0,0,1,543,624.53Z" transform="translate(-150 -49.21)"/><path d="M317.07,128.94c-1.81-.21-3.61-.33-5.42-.44-6.08,3.85-10.65,9.75-14.9,15.45-1.23,1.64-2.44,3.31-3.67,5,41.68-6.79,77.26,25,69.85,67.32-2.88,16.44-12.66,27.87-28.5,33.08-14.51,4.77-28.35,2.68-39.53-8.45-11.56-11.5-11.7-31.22-.91-41.53,10.58-10.1,22.44-8.05,34.82,6.17,4,4.59,8.87,5.58,13.63,2.42,4.52-3,6.53-7.33,3.64-13.23-4.22-8.6-10.36-14.94-19.07-18.74-16.28-7.08-35.86-3.12-48.45,9.66-13.07,13.28-16.84,36-8.7,54.1C279,260,295.26,270.3,317,271.62c26.62,1.63,47.06-9.58,59.55-32.94C401.25,192.55,369.51,134.88,317.07,128.94Z" transform="translate(-150 -49.21)"/><path d="M575.41,268.56c.57,3.24,1.32,6.46,1.64,9.72.67,7,4.24,10.89,11.41,10.15,7.45-.78,9.51-6.05,8.77-12.61a192.93,192.93,0,0,0-13.68-52.71c-32.91-79.16-112.61-127-198-121.82-87.4,5.28-178.87,76.69-184.39,191.37C196.59,387.41,267.33,476.28,360.5,494a214.19,214.19,0,0,0,41.3,3.88c13.44-.09,26.83-1.52,40.95-2,0,0,39.74-10.84,76.56-37.4,2.18-1.83,4.35-3.68,6.54-5.51q59-49.6,70.93-125.69c1.16-7.44,1-14.9-7.93-16.47-9.15-1.6-11,5.34-12.37,12.92-14.08,77.49-58.59,128.11-135,148.36-84.84,22.5-176.31-26-207.67-108.53-28.94-76.19-3.82-160.68,62-208.59,2.59-1.89,5.42-3.47,10-6.35,0,0,20.41-14.77,51.43-22.6C456.6,102.45,557.13,165.34,575.41,268.56Z" transform="translate(-150 -49.21)"/><path d="M293.49,349.71c-14.85,10.32-16.63,10.31-31.6,0-4.89-3.37-9.59-3.69-13.76.47-4.64,4.61-4.2,9.91.07,14.58a38.78,38.78,0,0,0,28.62,13c12.24,0,22.41-4.16,30.42-13,4.22-4.65,4.65-10,0-14.62C303.09,346,298.37,346.32,293.49,349.71Z" transform="translate(-150 -49.21)"/><path d="M348.78,294.38c-5.58-.13-8.9,2.93-10.28,7.88-.85,3.07-.62,6.43-.91,10,.26,3.31.06,7,.94,10.46,1.29,5,4.93,8.07,10.3,7.92s9.23-3.39,9.83-8.46a80.88,80.88,0,0,0-.05-19.42C358,297.72,354.35,294.52,348.78,294.38Z" transform="translate(-150 -49.21)"/><path d="M650,399.47q0-48.75,0-97.44C649.6,175.87,562.12,71.21,437.7,52.18,301.63,31.43,184,121.88,156.59,243.29A266.56,266.56,0,0,0,150,304c.15,65-.1,129.93.1,194.92.35,111.3,69.2,205.66,175,240.14,125.76,41,266.44-29,310.13-154.25A253.88,253.88,0,0,0,650,499.13C649.8,465.89,650,432.7,650,399.47ZM629.34,497.2a251,251,0,0,1-7.87,62.71c-39.93,154.14-227.66,221-356,126.6l-1.19-.89a225.76,225.76,0,0,1-26.5-22.93c0-.05-.05-.1-.1-.15-.25-.2-.55-.5-.84-.79a10.15,10.15,0,0,1-1-1.09l-.85-.84-3-3.27a9.41,9.41,0,0,1-.69-.75c-.25-.29-.4-.44-.4-.44-33.68-37.2-54-80.79-58.75-131.32-3.81-41.11-.74-82.47-1.58-123.68,0-14.62-.2-29.18.05-43.79.59-32.4-1.73-64.89,3.66-97.19,22.89-137.3,168.27-223.24,300-177.08,94.41,33.09,154.55,118.14,155.09,220C629.69,367.27,629.54,432.21,629.34,497.2Z" transform="translate(-150 -49.21)"/><path d="M469.62,678.23a9.91,9.91,0,0,1-3.7-19.1,174,174,0,0,0,24.94-12.42,9.9,9.9,0,1,1,10.22,17,193.84,193.84,0,0,1-27.78,13.84A10,10,0,0,1,469.62,678.23Z" transform="translate(-150 -49.21)"/><path d="M458.69,363.64h-7.94a9.91,9.91,0,1,1,0-19.81h7.94c13.22,0,24-14.05,24-31.32s-10.76-31.31-24-31.31h-7.94a9.91,9.91,0,0,1,0-19.82h7.94c24.15,0,43.79,22.94,43.79,51.13S482.84,363.64,458.69,363.64Z" transform="translate(-150 -49.21)"/></svg>