<svg id="Capa_1" data-name="Capa 1" xmlns="http://www.w3.org/2000/svg" viewBox="0 0 500 701.58"><path d="M605.81,362.9h-7.94a9.91,9.91,0,1,1,0-19.82h7.94c13.22,0,24-14,24-31.31s-10.75-31.31-24-31.31h-7.94a9.91,9.91,0,1,1,0-19.82h7.94c24.14,0,43.79,22.94,43.79,51.13S630,362.9,605.81,362.9Z" transform="translate(-150.49 -48.47)"/><path d="M209.24,362.9H201.3c-24.15,0-43.79-22.94-43.79-51.13s19.64-51.13,43.79-51.13h7.94a9.91,9.91,0,0,1,0,19.82H201.3c-13.22,0-24,14-24,31.31s10.76,31.31,24,31.31h7.94a9.91,9.91,0,0,1,0,19.82Z" transform="translate(-150.49 -48.47)"/><path d="M575.9,267.82c.57,3.23,1.33,6.45,1.64,9.71.68,7,4.24,10.9,11.41,10.16,7.45-.78,9.51-6.05,8.78-12.62a193.74,193.74,0,0,0-13.68-52.71c-32.92-79.15-112.61-127-198-121.81-87.4,5.28-178.87,76.69-184.38,191.37C197.08,386.67,267.82,475.54,361,493.23a213.48,213.48,0,0,0,41.3,3.88c13.44-.08,26.83-1.51,40.95-2,0,0,39.75-10.84,76.56-37.4l6.54-5.52q59-49.59,70.93-125.69c1.16-7.44,1-14.89-7.92-16.46-9.16-1.6-11,5.34-12.38,12.91-14.08,77.49-58.59,128.11-135,148.37-84.83,22.5-176.31-26-207.66-108.54-28.94-76.18-3.83-160.67,62-208.59,2.6-1.88,5.42-3.46,10-6.35,0,0,20.42-14.76,51.44-22.59C457.09,101.7,557.62,164.6,575.9,267.82Z" transform="translate(-150.49 -48.47)"/><path d="M650.44,398.72q0-48.74,0-97.43C650.1,175.13,562.62,70.46,438.19,51.44c-136.07-20.75-253.71,69.7-281.1,191.1a266.58,266.58,0,0,0-6.59,60.73c.15,65-.1,129.93.1,194.92.34,111.3,69.2,205.66,175,240.14,125.77,41,266.44-29,310.13-154.25a253.63,253.63,0,0,0,14.76-85.69C650.29,465.15,650.44,432,650.44,398.72Zm-20.6,97.73A251,251,0,0,1,622,559.16C582,713.31,394.3,780.13,266,685.77l-1.19-.89A227.54,227.54,0,0,1,238.27,662c0-.05-.05-.1-.1-.15-.24-.2-.54-.5-.84-.8a10.14,10.14,0,0,1-1-1.08l-.84-.85c-1.29-1.38-2.33-2.52-3-3.27a8,8,0,0,1-.7-.74c-.24-.3-.39-.45-.39-.45-33.69-37.2-54-80.78-58.75-131.31-3.81-41.11-.74-82.47-1.59-123.69,0-14.61-.19-29.17,0-43.78.6-32.4-1.73-64.89,3.67-97.19C197.65,121.33,343,35.39,474.75,81.56c94.41,33.09,154.54,118.14,155.09,220C630.18,366.53,630,431.47,629.84,496.45Z" transform="translate(-150.49 -48.47)"/><path d="M302,676.61a9.93,9.93,0,0,1-6.29-2.25c-77.66-64-71.35-200.53-71-206.31a9.9,9.9,0,0,1,19.78,1c-.07,1.32-6,132.42,63.86,190A9.9,9.9,0,0,1,302,676.61Z" transform="translate(-150.49 -48.47)"/><path d="M509.63,676.61a9.9,9.9,0,0,1-6.3-17.55c69.9-57.55,63.92-188.65,63.85-190a9.9,9.9,0,0,1,19.78-1c.31,5.78,6.62,142.36-71,206.31A9.89,9.89,0,0,1,509.63,676.61Z" transform="translate(-150.49 -48.47)"/></svg>