<svg id="Capa_1" data-name="Capa 1" xmlns="http://www.w3.org/2000/svg" viewBox="0 0 662.62 662.59"><path d="M68.74,647.14c7.27-19.92,24.86-31.27,38.47-45.88,3.52-3.77,4.51-5.88.05-9.34a75.06,75.06,0,0,1-9.15-9.12c-13.09-14.46-13.92-36.37-.67-50.64s27.37-28.17,42-41.21c13.91-12.41,35.61-11.33,49.76,1.19,3.87,3.43,7.53,7.11,11.05,10.9,2,2.14,3.22,1.93,5.14-.05,6.45-6.66,12.91-13.33,19.71-19.62,2.89-2.69,2.5-4.53.71-7.58-16.72-28.47-28.24-58.94-33.09-91.63C178.94,291.29,204.83,211,271.57,144.93,316.46,100.48,371.44,76.34,434.25,70c1.17-.12,2.66.42,3.28-1.25h44c9.8,1.65,19.64,3.17,29.42,5,108.62,20,195.31,106.53,215.45,214.68,1.78,9.58,1.83,19.44,4.87,28.79v45.29c-3.22,8.87-3,18.35-4.85,27.48-17.1,83.21-62.86,145.63-136.7,187.09-46.46,26.09-96.89,36.23-149.93,32.4-46.83-3.39-89.92-18.38-129.32-43.93-4.76-6.17-5.07-11.76-.9-16.2,4-4.26,9.42-4.45,15.85-.56,1.11.67,2.19,1.38,3.29,2,56.54,34.19,117.3,44.92,182,31.72,135.26-27.59,223.28-160,191.48-299.64-23.55-103.4-109-178.56-213.93-190.23-26.31-3.47-52.41-1.91-78.34,3.29C297.6,118.45,214.39,216.71,211.14,330.57c-1.46,51.08,11,98.38,38.31,141.7,5.78,9.17,5.3,12.49-2.4,20.28q-14.3,14.44-28.49,29c-2.05,1.87-4.12,3.7-6.13,5.62C205.26,534,200.11,534,193,527c-2.91-2.84-5.89-5.61-8.84-8.41-3.12-3.24-6.05-6.69-9.4-9.67-6.75-6-15.71-6.36-22.21-.23q-19.22,18.13-37.71,37c-6.55,6.7-6.38,15.81.06,22.61,6.78,7.16,14,13.89,21,20.81l2.52,5c.39,5.15-1.93,9-5.5,12.5q-18.18,17.91-36.13,36.07c-7.74,7.83-8.12,16.78-.88,24.61,6.71,7.25,13.77,14.18,20.68,21.25,4.11,4.39,8.15,8.84,12.33,13.15,9.65,10,18.4,10,28.31.13Q174.67,684.46,192,667c8.38-8.38,13.18-8.36,21.75.11,5.21,5.16,10.34,10.41,15.57,15.54,8.78,8.61,18,8.72,26.62.17q16.8-16.59,33.38-33.4c8.36-8.5,8.28-17.49-.11-26.12-6.17-6.34-12.54-12.46-18.69-18.82-3.18-3.3-4.58-7.21-2.78-11.83,1.66-4.25,4.84-6.46,9.18-7.2,3.19-.55,5.78,1.29,8.57,2.3q9.88,10.17,19.78,20.33c16.38,16.79,16.52,39.78.18,56.45q-17,17.28-34.23,34.27c-17.21,16.9-40.09,16.64-57.4-.37-3.64-3.58-6.86-10-11.19-9.8-3.67.15-7.13,6.2-10.65,9.68-4.13,4.09-8.37,8.08-12.3,12.36-8.3,9-17.21,17.13-29.42,20.55H134.73c-5.15-3.27-11.74-4.11-16-8.8-17.18-19.06-39-34.12-50-58.49Z" transform="translate(-68.65 -68.74)" fill="#050303"/><path d="M68.74,664c11,24.37,32.83,39.43,50,58.49,4.24,4.69,10.83,5.53,16,8.8-20.7,0-41.41-.08-62.11.09-3.24,0-4-.73-4-4C68.82,706.23,68.74,685.1,68.74,664Z" transform="translate(-68.65 -68.74)" fill="#f6f6f6"/><path d="M184.15,518.62c2.95,2.8,5.93,5.57,8.84,8.41,7.12,7,12.27,7,19.44.13,2-1.92,4.08-3.75,6.13-5.62,1.81.66,2.2,2.35,3.09,3.83,6.14,10.25,19.56,12.47,27.44,6.29,7.71-6,15.37-12.45,21.54-20.33,4.86-6.2,5.23-10.76,1.27-17.58-8.42-14.54-16.38-29.47-21.43-45.44-10.64-33.7-17.1-68-13.84-103.83,2.18-23.9,6.44-47,14.16-69.71,7.49-22,18.36-42.19,31.27-61.29,16.28-24.08,36.8-44.24,60.14-61.47,3.8-2.8,7.28-6.82,12.71-6.86-8.08,8.49-14.05,18.15-17.15,29.57-3.24,11.94-3.71,24-2.65,36.26-2.43.16-3.66,2.1-5.15,3.59a149.54,149.54,0,0,0-18.06,22.61c-8.78-2.66-12.22-1.34-16.88,6.86-15.61,27.44-24.44,57-24.49,88.54-.11,79.1,35.34,137.37,104.56,175.21C393.77,518,414.2,523.11,435,526.94c4.65,2.36,6.2,8.15,12.58,9.19,16.56,2.69,32.91,4.27,49.81,2.56a185.87,185.87,0,0,0,74.14-23.6c24.32-13.85,43.78-33.06,59.49-56a163.76,163.76,0,0,0,26.47-64.46c2.82-16,5.09-32,2.9-48.48C659.25,337.87,659,330,651.14,325c-.38-2.33-.88-4.65-1.13-7-4.65-43-21.7-80.32-51.7-111.38-7.39-7.64-13.86-14.81-13.48-26.11.07-1.86-.79-3.77-1.27-5.64-7.86-30.09-31.46-45.49-61.69-40-10.43,1.89-20.17,5.89-29.48,11-2.14,1.16-4,2.91-6.81.3-15.59-14.7-43.21-13.76-57.73,9.47-1.89-.3-4.05-.12-5.62-1-5.85-3.28-12.22-5-18.53-7-.31-9.51-3.81-13.13-13.1-13.94-7-.6-13.61,1.3-20.36,2.38,3-5.69,9.2-6.5,14.19-9,29.18-14.41,60.34-21.7,92.57-24.52,6.83-.6,9.93-3.82,11.22-9.91,104.95,11.67,190.38,86.83,213.93,190.23,31.8,139.59-56.22,272-191.48,299.64-64.66,13.2-125.42,2.47-182-31.72-1.1-.66-2.18-1.37-3.29-2-6.43-3.89-11.86-3.7-15.85.56-4.17,4.44-3.86,10,.9,16.2-6.06,2.68-9.3,8.53-14.14,12.57-3.72,3.11-6.28,7.52-10.84,9.7-2.79-1-5.38-2.85-8.57-2.3-4.34.74-7.52,2.95-9.18,7.2-1.8,4.62-.4,8.53,2.78,11.83,6.15,6.36,12.52,12.48,18.69,18.82,8.39,8.63,8.47,17.62.11,26.12q-16.56,16.81-33.38,33.4c-8.65,8.55-17.84,8.44-26.62-.17-5.23-5.13-10.36-10.38-15.57-15.54-8.57-8.47-13.37-8.49-21.75-.11q-17.37,17.4-34.73,34.8c-9.91,9.88-18.66,9.84-28.31-.13-4.18-4.31-8.22-8.76-12.33-13.15,2-1.59.33-3.22-.12-4.66-2.72-8.92,0-17,5.69-23.26,11.09-12.19,23.11-23.53,34.83-35.13,4.83-4.78,5.16-8.45.38-13.18-6.22-6.17-12.63-12.14-18.95-18.2l-2.52-5a34,34,0,0,0-.57-7,23.87,23.87,0,0,1,3.1-16.67c4.89-8.14,12.55-14,19.39-20.36C167,536.6,176.06,528.12,184.15,518.62Z" transform="translate(-68.65 -68.74)" fill="#fca2b7"/><path d="M354.91,145.15c-5.43,0-8.91,4.06-12.71,6.86-23.34,17.23-43.86,37.39-60.14,61.47-12.91,19.1-23.78,39.28-31.27,61.29-7.72,22.7-12,45.81-14.16,69.71-3.26,35.87,3.2,70.13,13.84,103.83,5.05,16,13,30.9,21.43,45.44,4,6.82,3.59,11.38-1.27,17.58-6.17,7.88-13.83,14.29-21.54,20.33-7.88,6.18-21.3,4-27.44-6.29-.89-1.48-1.28-3.17-3.09-3.83q14.24-14.5,28.49-29c7.7-7.79,8.18-11.11,2.4-20.28-27.28-43.32-39.77-90.62-38.31-141.7,3.25-113.86,86.46-212.12,198.74-234.64,25.93-5.2,52-6.76,78.34-3.29-1.29,6.09-4.39,9.31-11.22,9.91-32.23,2.82-63.39,10.11-92.57,24.52-5,2.47-11.18,3.28-14.19,9A101.68,101.68,0,0,0,354.91,145.15Z" transform="translate(-68.65 -68.74)" fill="#fbbec9"/><path d="M138.46,594.12c6.32,6.06,12.73,12,18.95,18.2,4.78,4.73,4.45,8.4-.38,13.18-11.72,11.6-23.74,22.94-34.83,35.13-5.69,6.25-8.41,14.34-5.69,23.26.45,1.44,2.12,3.07.12,4.66-6.91-7.07-14-14-20.68-21.25-7.24-7.83-6.86-16.78.88-24.61q18-18.16,36.13-36.07C136.53,603.11,138.85,599.27,138.46,594.12Z" transform="translate(-68.65 -68.74)" fill="#fbbec9"/><path d="M184.15,518.62c-8.09,9.5-17.2,18-26.29,26.5-6.84,6.41-14.5,12.22-19.39,20.36a23.87,23.87,0,0,0-3.1,16.67,34,34,0,0,1,.57,7c-7-6.92-14.27-13.65-21-20.81-6.44-6.8-6.61-15.91-.06-22.61q18.47-18.9,37.71-37c6.5-6.13,15.46-5.78,22.21.23C178.1,511.93,181,515.38,184.15,518.62Z" transform="translate(-68.65 -68.74)" fill="#fbbec9"/><path d="M354.91,145.15A101.68,101.68,0,0,1,370.24,136c6.75-1.08,13.39-3,20.36-2.38,9.29.81,12.79,4.43,13.1,13.94a19.29,19.29,0,0,1-6.35,7.74c-2.35.17-4.71.53-7.06.47-14.92-.37-23.85,5.39-29.28,19.44-6,15.46-5.58,31.21-1.09,46.89,3,10.43,7.16,20.3,16.67,26.75,5.56,5.18,12.22,5.76,19.2,4.29,8.41-1.78,15.22-6.66,22-11.7,5.4-4,9.84-8,6.12-15.75-1-2.14-.5-5.08-.51-7.65,0-13.12.17-26.23-.08-39.34a51.06,51.06,0,0,1,4.56-23.14c14.52-23.23,42.14-24.17,57.73-9.47,2.78,2.61,4.67.86,6.81-.3,9.31-5.08,19.05-9.08,29.48-11,30.23-5.49,53.83,9.91,61.69,40,.48,1.87,1.34,3.78,1.27,5.64-.38,11.3,6.09,18.47,13.48,26.11C628.31,237.67,645.36,275,650,318c.25,2.34.75,4.66,1.13,7,.48,22.72-1.52,45.08-7.81,67.09-20.42,71.48-86.91,127.35-160.62,135-16,1.64-31.83,1-47.74-.08-20.77-3.83-41.2-8.94-59.88-19.15C305.87,470,270.42,411.68,270.53,332.58c.05-31.59,8.88-61.1,24.49-88.54,4.66-8.2,8.1-9.52,16.88-6.86,6.15,6.41,6.82,9.66,2.66,17.06q-27.93,49.65-20.63,106.11c2.78,21.22,9,41.39,20.37,59.75a41.53,41.53,0,0,0,1.85,4.07c33.58,57.56,103,90.55,169,80.34,110.14-17,173.89-131.93,129.81-234a159.13,159.13,0,0,0-30.85-46.94c-3.68,13.55-8.69,25.6-17.64,35.63-9.13,10.24-20.23,16.56-34.32,16.67-10.58.08-14.27-3.61-14.29-14.31,2.79-4.65,6.32-8,12.29-7.76,9.83.45,17.09-4.48,22.13-12.2,12.69-19.45,15.46-40.59,9.25-62.93-5-15.85-15.23-23.84-29.38-22.83-9.16.65-17.49,4.07-25.87,7.54-6.61,2.74-10.1,6.62-7.9,14-.09,12.84-.4,25.69-.21,38.52.16,10.63-2.28,20.29-8.76,28.81-7.73,7-11.73,7.27-19.28,1.14-2.71-5.55-2.48-10.69,1.95-15.35,3-3.14,3.85-7.14,3.87-11.27.07-14.77.1-29.55,0-44.32,0-5.81-1.81-10.95-7.4-13.93-11.73-5.8-22.69.57-23,13.59-.25,10.35-.13,20.7,0,31.06.08,9.16-1.46,18.58,4.36,26.89,1.41,2,.49,4.63.43,7q-1.14,2-2.26,3.91c-5.31,5-10.36,10.22-16,14.83-16.37,13.49-34.37,21.66-56.23,15.71a56.72,56.72,0,0,1-27.33-23.26c-7.61-12.19-11.42-25.65-13.36-39.74-1.06-12.23-.59-24.32,2.65-36.26C340.86,163.3,346.83,153.64,354.91,145.15Z" transform="translate(-68.65 -68.74)" fill="#050303"/><path d="M314.3,420.1c-11.36-18.36-17.59-38.53-20.37-59.75q-7.38-56.4,20.63-106.11c4.16-7.4,3.49-10.65-2.66-17.06A149.54,149.54,0,0,1,330,214.57c1.49-1.49,2.72-3.43,5.15-3.59,1.94,14.09,5.75,27.55,13.36,39.74A56.72,56.72,0,0,0,375.8,274a8.65,8.65,0,0,0-6.49,3.7c-15,21.19-24.32,44.86-30.11,70-3.55,15.42-2.54,31.14-2.6,46.78,0,11.2-5.9,19.11-16.73,22.07C317.53,417.17,315.17,417.35,314.3,420.1Z" transform="translate(-68.65 -68.74)" fill="#fcf1e1"/><path d="M435,526.94c15.91,1.12,31.77,1.72,47.74.08,73.71-7.6,140.2-63.47,160.62-134.95,6.29-22,8.29-44.37,7.81-67.09,7.9,5,8.11,12.89,9.22,21.18,2.19,16.47-.08,32.51-2.9,48.48A163.76,163.76,0,0,1,631,459.1c-15.71,22.93-35.17,42.14-59.49,56a185.87,185.87,0,0,1-74.14,23.6c-16.9,1.71-33.25.13-49.81-2.56C441.17,535.09,439.62,529.3,435,526.94Z" transform="translate(-68.65 -68.74)" fill="#fbbec9"/><path d="M427.85,155.6a51.06,51.06,0,0,0-4.56,23.14c.25,13.11,0,26.22.08,39.34,0,2.57-.52,5.51.51,7.65,3.72,7.72-.72,11.71-6.12,15.75-6.75,5-13.56,9.92-22,11.7-7,1.47-13.64.89-19.2-4.29a9.63,9.63,0,0,0-.47-2.51c-7.91-15.85-10.14-32.48-7.23-49.93,2-11.85,5.84-22.57,14.28-31.65,4.15-4.45,10.39-5,14.18-9.46a19.29,19.29,0,0,0,6.35-7.74c6.31,2,12.68,3.73,18.53,7C423.8,155.48,426,155.3,427.85,155.6Z" transform="translate(-68.65 -68.74)" fill="#fbbec9"/><path d="M314.3,420.1c.87-2.75,3.23-2.93,5.57-3.56,10.83-3,16.69-10.87,16.73-22.07.06-15.64-1-31.36,2.6-46.78,5.79-25.15,15.09-48.82,30.11-70a8.65,8.65,0,0,1,6.49-3.7c21.86,5.95,39.86-2.22,56.23-15.71,5.6-4.61,10.65-9.87,16-14.83,7,4.5,14.52,3.65,22.12,2.44,7.55,6.13,11.55,5.89,19.28-1.14,2.42,1.77,4.79,3.62,7.27,5.29,6.7,4.5,12.57,10.54,21.18,11.54,0,10.7,3.71,14.39,14.29,14.31,14.09-.11,25.19-6.43,34.32-16.67,8.95-10,14-22.08,17.64-35.63a159.13,159.13,0,0,1,30.85,46.94c44.08,102.06-19.67,217-129.81,234-66,10.21-135.4-22.78-169-80.34A41.53,41.53,0,0,1,314.3,420.1Zm145.83,14.34c17.74-.55,32.09-6,44-17.33,5.51-5.21,6.11-11.68,1.69-16.51-4.15-4.54-10.75-4.58-16.2-.12-19.48,16-38.42,16-57.72.21-5.85-4.8-12.35-4.72-16.63.2-4.07,4.68-3.48,11.16,1.73,16.06A62.69,62.69,0,0,0,460.13,434.44ZM415.3,333.14c0,3.45-.15,6.9,0,10.34.32,6.25,4.68,10.71,10.49,11,5.32.25,10.79-3.84,11.19-9.59A163.94,163.94,0,0,0,437,321c-.46-5.87-5.58-9.43-11.35-9.18s-9.85,4.2-10.25,10.34C415.12,325.8,415.31,329.48,415.3,333.14Zm90.84,0c0-3.66.19-7.34-.05-11a10.53,10.53,0,0,0-10.32-10.32c-6-.29-11.12,3.67-11.47,9.79a215.85,215.85,0,0,0,0,22.61,11,11,0,0,0,11.29,10.22c5.74-.23,10.23-4.8,10.56-11C506.3,340,506.15,336.58,506.14,333.13Z" transform="translate(-68.65 -68.74)" fill="#fde9d1"/><path d="M517.84,261.57c-8.61-1-14.48-7-21.18-11.54-2.48-1.67-4.85-3.52-7.27-5.29,6.48-8.52,8.92-18.18,8.76-28.81-.19-12.83.12-25.68.21-38.52,5-1.85,9.85-4,14.94-5.51,13.56-3.89,27.12-7,40.4,1.37,2.7,1.7,4.21,5.09,7.81,5.41,6.21,22.34,3.44,43.48-9.25,62.93-5,7.72-12.3,12.65-22.13,12.2C524.16,253.54,520.63,256.92,517.84,261.57Z" transform="translate(-68.65 -68.74)" fill="#fbbec9"/><path d="M470.11,245.88c-7.6,1.21-15.16,2.06-22.12-2.44q1.13-2,2.26-3.91c5.2-.89,5.32-4.93,5.33-8.86.07-13.79.69-27.61-.17-41.34-.76-12.23,3.93-21.1,13.09-28.32,5.59,3,7.35,8.12,7.4,13.93.13,14.77.1,29.55,0,44.32,0,4.13-.89,8.13-3.87,11.27C467.63,235.19,467.4,240.33,470.11,245.88Z" transform="translate(-68.65 -68.74)" fill="#fbbec9"/><path d="M397.35,155.34c-3.79,4.49-10,5-14.18,9.46-8.44,9.08-12.3,19.8-14.28,31.65-2.91,17.45-.68,34.08,7.23,49.93a9.63,9.63,0,0,1,.47,2.51c-9.51-6.45-13.68-16.32-16.67-26.75-4.49-15.68-4.89-31.43,1.09-46.89,5.43-14.05,14.36-19.81,29.28-19.44C392.64,155.87,395,155.51,397.35,155.34Z" transform="translate(-68.65 -68.74)" fill="#fde9d1"/><path d="M468.5,161c-9.16,7.22-13.85,16.09-13.09,28.32.86,13.73.24,27.55.17,41.34,0,3.93-.13,8-5.33,8.86.06-2.35,1-5-.43-7-5.82-8.31-4.28-17.73-4.36-26.89-.09-10.36-.21-20.71,0-31.06C445.81,161.58,456.77,155.21,468.5,161Z" transform="translate(-68.65 -68.74)" fill="#fde9d1"/><path d="M561.51,178.68c-3.6-.32-5.11-3.71-7.81-5.41-13.28-8.39-26.84-5.26-40.4-1.37-5.09,1.47-10,3.66-14.94,5.51-2.2-7.4,1.29-11.28,7.9-14,8.38-3.47,16.71-6.89,25.87-7.54C546.28,154.84,556.53,162.83,561.51,178.68Z" transform="translate(-68.65 -68.74)" fill="#fde9d1"/><path d="M460.13,434.44A62.69,62.69,0,0,1,417,417c-5.21-4.9-5.8-11.38-1.73-16.06,4.28-4.92,10.78-5,16.63-.2,19.3,15.82,38.24,15.75,57.72-.21,5.45-4.46,12.05-4.42,16.2.12,4.42,4.83,3.82,11.3-1.69,16.51C492.22,428.41,477.87,433.89,460.13,434.44Z" transform="translate(-68.65 -68.74)" fill="#050303"/><path d="M415.31,333.14c0-3.66-.19-7.34.05-11,.4-6.14,4.44-10.07,10.25-10.34S436.5,315.13,437,321a163.94,163.94,0,0,1,.05,23.87c-.4,5.75-5.87,9.84-11.19,9.59-5.81-.27-10.17-4.73-10.49-11C415.15,340,415.3,336.59,415.31,333.14Z" transform="translate(-68.65 -68.74)" fill="#050303"/><path d="M506.15,333.13c0,3.45.15,6.9,0,10.34-.33,6.17-4.82,10.74-10.56,11a11,11,0,0,1-11.29-10.22,215.85,215.85,0,0,1,0-22.61c.35-6.12,5.44-10.08,11.47-9.79a10.53,10.53,0,0,1,10.32,10.32C506.33,325.79,506.14,329.47,506.15,333.13Z" transform="translate(-68.65 -68.74)" fill="#050303"/></svg>