<svg id="Capa_1" data-name="Capa 1" xmlns="http://www.w3.org/2000/svg" viewBox="0 0 249.27 249.27"><path d="M120.49,56.6a118.94,118.94,0,0,1,76.67,28.66,73.26,73.26,0,0,1,18.61,23.82c7.09,14.59,7,29.57,2,44.69a53,53,0,0,1-15.23,23.73,35.52,35.52,0,0,1-24.84,9.25c-1.9,0-3.81-.17-5.7-.32-5.72-.47-7.26,1-7.57,6.76a103,103,0,0,1-1.16,11.88,28,28,0,0,1-2.55,7.39c-3.13,6.42-9.24,8.63-15.41,5a47.23,47.23,0,0,1-11.61-9.25,224.59,224.59,0,0,1-16.17-20.72c-4.17-6-9.86-9.19-16.53-11.06-10.65-3-21.38-5.6-31.94-8.8-9.85-3-19.2-7.23-26.83-14.39-13.84-13-18-32.79-10.82-51,5.91-15.07,16.73-25.63,30.8-33.07C79.43,60.06,98,56.78,120.49,56.6Zm-6,112.25a15.12,15.12,0,0,0,2-.25A166.72,166.72,0,0,0,161,147.47c5.91-4,11.66-8.37,15.51-14.63s2.92-11.79-3-16.17a37.57,37.57,0,0,0-6.53-3.85,91.07,91.07,0,0,0-26.67-7.18c-12.93-1.67-25.95-2.58-38.89-4.21-7.42-.93-15-2-22.08-4.17C71.47,94.84,68.5,89,69.24,80.73c.08-.82,0-1.64,0-2.72C61,81.44,54.86,86.84,49.41,93.1c-4.82,5.52-4.61,12.49.31,18,4.29,4.78,9.79,7.81,15.57,10.17,10.13,4.16,20.53,7.68,30.62,11.93a108.61,108.61,0,0,1,18.53,9.49c8,5.36,8.94,12.66,3.8,20.79C117.21,165.11,116,166.68,114.49,168.85Zm95.72-33.21,1-.07c-.4-3.62-.46-7.3-1.2-10.84-3.1-14.59-11.77-25.63-23.27-34.38-25.26-19.23-54-26.07-85.27-22.35a78.53,78.53,0,0,0-14,3.07c-4.5,1.42-8.22,7.18-7.69,11.5.6,5,5,5.35,8.64,6.5a4.33,4.33,0,0,0,.79.19c6,.72,12,1.63,18.08,2.1C123.16,92.59,139,94,154.56,97.85c18.14,4.53,34.34,12.55,46.92,26.79,3.13,3.5,5.84,7.34,8.73,11Zm-86.74,42c2.76,4.2,5.16,8,7.75,11.73s5.34,7.56,8.31,11.1a44.49,44.49,0,0,0,7.22,6.9c2.39,1.81,4.53,1,5.56-1.82a23.54,23.54,0,0,0,1.3-5.8c.31-3.16.16-6.35.49-9.5,1.08-10.09,7.33-14.78,17.35-13.69a45.78,45.78,0,0,0,12.15-.24c13-2.09,21.31-12.53,19.78-24.92-1.19-9.46-6.5-16.72-13.36-23-.08-.08-.33,0-.49,0-3.84,10.67-6.92,15.38-13.68,21-11.73,9.81-25,17-39,22.93-4.3,1.86-8.71,3.43-13.4,5.25Zm-84.53-63.2c-1.39,11.35.55,20.87,7.76,28.92,4.8,5.36,10.84,9,17.35,11.83,11.18,4.91,23.07,7.35,34.83,10.3a5.33,5.33,0,0,0,6-1.77c.83-1,1.73-1.86,2.48-2.88,3.08-4.19,2.86-8.12-1.39-11.06a63.22,63.22,0,0,0-12.18-6.41C83,139,72.09,135.15,61.37,130.78c-7.07-2.88-13.67-6.7-19-12.38C41.4,117.32,40.45,116.15,38.94,114.42Z" fill="#fff"/><path d="M126.31,151.94c-9.15,0-17.52-1.48-23.91-4.55a5.24,5.24,0,1,1,4.54-9.44c18.93,9.09,61.76.28,76.64-20a5.24,5.24,0,0,1,8.53,6.08l-.08.11C178.9,142,150,151.94,126.31,151.94Z" fill="#fff"/></svg>