<svg id="Capa_1" data-name="Capa 1" xmlns="http://www.w3.org/2000/svg" viewBox="0 0 500 430.62"><path d="M651.43,330.17c.53,33.28-13.38,64.78-38.68,91.38-16.52,17.37-33.82,34-50.72,51-6.45,6.49-13.68,11.66-21.84,3.75-8.64-8.38-3.68-16,3.27-22.95,17-16.92,34.24-33.58,50.7-51,42.05-44.5,41.2-112.82-1.52-156.56-41.55-42.54-108.76-44.56-154.28-4.6-3.88,3.41-7.65,7-11.33,10.6-18.67,18.47-32.45,18.84-50.51.22C358,233,337,219,310.43,214.23c-46.34-8.35-95.38,14.71-118.43,55.87-23.24,41.5-18.53,95.34,14.82,129.75,59.85,61.77,121.27,122,182.05,182.86,9.35,9.37,17.95,7.64,26.74-1.28,23.75-24.11,47.76-48,71.68-71.91,2.66-2.66,5.19-5.48,8.08-7.87,6.23-5.14,13.05-6,19,0s5.11,13.21-.53,18.89c-28.46,28.7-56.57,57.78-86,85.43-16.81,15.78-40.07,12.95-58-5-55.6-55.4-110.87-111.15-166.58-166.44C185.63,417.19,169.92,399,161,375.49c-23.41-61.29-2.57-128.67,51.59-165.5,53.59-36.44,124.8-30.77,172.83,13.77,16.05,14.88,15.78,14.57,32.54-.14,45.34-39.76,96.58-48.43,152-25.33C619.55,219,651.45,270.7,651.43,330.17Z" transform="translate(-151.45 -185.66)" fill="#92cae5"/></svg>