<svg id="Capa_1" data-name="Capa 1" xmlns="http://www.w3.org/2000/svg" viewBox="0 0 1059.08 146.41"><path d="M328.35,173.14,277,104.46v68.68h-9.78V87.59h10.15l51.33,68.81V87.59h9.65v85.55Z" transform="translate(-55.43 -61.63)" fill="#fff"/><path d="M374.17,97v28.11h43.15v9.41H374.17v29.33H424v9.29H364.4V87.59h58.05V97Z" transform="translate(-55.43 -61.63)" fill="#fff"/><path d="M513.86,137.94c0,22.25-13.44,35.69-35.81,35.69S442,160.19,442,137.94V87.59h9.78v50.35c0,16.63,10,26.28,26.27,26.28s26-9.65,26-26.28V87.59h9.77Z" transform="translate(-55.43 -61.63)" fill="#fff"/><path d="M576.06,145.89c-1.83.12-3.79.24-5.74.24H547.59v27h-9.78V87.59h32.51c21.39,0,33.73,10.51,33.73,28.72,0,14.18-6.84,23.71-19.19,27.74l20,29.09H593.78Zm-5.74-9.17c15.52,0,24.32-6.84,24.32-20.17,0-13-8.8-19.55-24.32-19.55H547.59v39.72Z" transform="translate(-55.43 -61.63)" fill="#fff"/><path d="M707.69,130.36c0,24.08-19.81,43.27-44.74,43.27s-44.85-19.19-44.85-43.27,19.8-43,44.85-43S707.69,106.29,707.69,130.36Zm-79.69,0c0,18.83,15.89,33.86,35,33.86s34.71-15,34.71-33.86S682,96.63,663,96.63,628,111.54,628,130.36Z" transform="translate(-55.43 -61.63)" fill="#fff"/><path d="M792.49,117.29c0,19.92-12.46,31.41-34.22,31.41h-17v24.44H722V87.59h36.3C780,87.59,792.49,98.34,792.49,117.29Zm-18.33.61c0-9.53-6.11-14.3-16.86-14.3h-16v29h16C768.05,132.56,774.16,127.68,774.16,117.9Z" transform="translate(-55.43 -61.63)" fill="#fff"/><path d="M824.14,87.59v68.69h36.67v16.86h-56V87.59Z" transform="translate(-55.43 -61.63)" fill="#fff"/><path d="M929.24,156.52H889.65l-6.73,16.62H863l37.16-85.55h19.92l36.54,85.55H936ZM923,141l-13.44-33.25L896,141Z" transform="translate(-55.43 -61.63)" fill="#fff"/><path d="M1002.93,103.72c-14.66,0-26,11.37-26,26.28s11.37,26.4,26,26.4c7.7,0,16.14-3.91,22.25-10l11.36,12.34C1027.5,168,1014.42,174,1002,174c-25.55,0-44.86-18.95-44.86-43.76S976.78,87,1002.69,87a48.67,48.67,0,0,1,33.73,14.18l-11.24,13.68C1019.31,108.12,1010.88,103.72,1002.93,103.72Z" transform="translate(-55.43 -61.63)" fill="#fff"/><path d="M1113.17,87.59v16h-45.83v18.58h41.18v16h-41.18v18.94h47.17v16H1048V87.59Z" transform="translate(-55.43 -61.63)" fill="#fff"/><path d="M138.76,61.63a107.17,107.17,0,0,1,69,25.8,65.83,65.83,0,0,1,16.76,21.45c6.4,13.15,6.3,26.62,1.8,40.24a47.65,47.65,0,0,1-13.72,21.36,32,32,0,0,1-22.38,8.34c-1.71,0-3.42-.16-5.13-.3-5.15-.42-6.53.88-6.82,6.09a93.14,93.14,0,0,1-1,10.7A25.44,25.44,0,0,1,175,202c-2.81,5.78-8.32,7.76-13.87,4.5a43.09,43.09,0,0,1-10.45-8.33,202.16,202.16,0,0,1-14.56-18.66c-3.75-5.39-8.86-8.28-14.88-10-9.58-2.67-19.25-5-28.77-7.92-8.87-2.68-17.29-6.51-24.16-13C55.82,137,52.1,119.12,58.54,102.71,63.86,89.14,73.6,79.63,86.27,72.94,101.78,64.74,118.52,61.79,138.76,61.63Zm-5.41,101.09a15.85,15.85,0,0,0,1.82-.23,150,150,0,0,0,40.05-19c5.31-3.63,10.5-7.53,14-13.17s2.62-10.61-2.68-14.55a33.45,33.45,0,0,0-5.88-3.48,81.94,81.94,0,0,0-24-6.46c-11.64-1.51-23.37-2.33-35-3.79a117.49,117.49,0,0,1-19.87-3.76c-7.1-2.18-9.78-7.44-9.1-14.88.06-.73,0-1.48,0-2.45-7.4,3.09-12.94,8-17.85,13.59-4.34,5-4.15,11.25.27,16.17,3.87,4.31,8.82,7,14,9.16,9.12,3.74,18.48,6.91,27.57,10.74a97.84,97.84,0,0,1,16.68,8.54c7.19,4.83,8.06,11.41,3.42,18.72C135.81,159.33,134.74,160.74,133.35,162.72Zm86.2-29.91.89-.06a92.76,92.76,0,0,0-1.08-9.76c-2.79-13.12-10.59-23.07-21-31-22.74-17.32-48.58-23.47-76.78-20.12A70.12,70.12,0,0,0,109,74.67c-4,1.26-7.4,6.45-6.92,10.34.54,4.45,4.49,4.81,7.78,5.86a4.19,4.19,0,0,0,.72.16c5.42.65,10.83,1.47,16.27,1.89,14.33,1.11,28.62,2.36,42.62,5.85,16.35,4.08,30.92,11.3,42.26,24.12C214.5,126,217,129.5,219.55,132.81Zm-78.11,37.8c2.49,3.78,4.65,7.23,7,10.56s4.8,6.81,7.48,10a40.27,40.27,0,0,0,6.5,6.22c2.15,1.63,4.08.89,5-1.64a21.8,21.8,0,0,0,1.17-5.22c.28-2.84.14-5.72.44-8.56,1-9.08,6.6-13.3,15.64-12.32a41.66,41.66,0,0,0,10.93-.21c11.72-1.89,19.19-11.3,17.81-22.44-1.06-8.52-5.85-15.06-12-20.7-.07-.07-.29,0-.44,0-3.45,9.61-6.23,13.84-12.32,18.93-10.55,8.82-22.53,15.25-35.09,20.64C149.64,167.56,145.66,169,141.44,170.61ZM65.33,113.69c-1.25,10.21.49,18.8,7,26,4.32,4.82,9.75,8.08,15.63,10.66,10.06,4.42,20.77,6.62,31.36,9.27a4.79,4.79,0,0,0,5.36-1.59c.75-.86,1.56-1.68,2.23-2.59,2.79-3.78,2.59-7.31-1.25-10a56.74,56.74,0,0,0-11-5.77c-9.66-3.92-19.51-7.38-29.16-11.32-6.36-2.6-12.3-6-17.07-11.15C67.54,116.3,66.69,115.25,65.33,113.69Z" transform="translate(-55.43 -61.63)" fill="#fff"/><path d="M144,147.47c-8.24,0-15.78-1.33-21.53-4.1a4.71,4.71,0,1,1,4.08-8.5c17,8.2,55.61.26,69-18a4.71,4.71,0,1,1,7.6,5.57C191.35,138.54,165.33,147.47,144,147.47Z" transform="translate(-55.43 -61.63)" fill="#fff"/></svg>