<svg id="Capa_1" data-name="Capa 1" xmlns="http://www.w3.org/2000/svg" viewBox="0 0 1025.58 565.51"><path d="M529.35,82.31c67.83.84,136.14,23,194.46,72.68A185.6,185.6,0,0,1,771,215.4c18,37,17.75,75,5.05,113.35-7.7,23.29-20,43.81-38.63,60.17-18,15.84-39,23.92-63,23.48-4.82-.08-9.64-.43-14.44-.83-14.52-1.19-18.42,2.47-19.21,17.15a261.51,261.51,0,0,1-2.93,30.13,71.53,71.53,0,0,1-6.48,18.75c-7.94,16.28-23.44,21.88-39.09,12.69C581.5,484,571,476.11,562.83,466.82a572,572,0,0,1-41-52.54c-10.57-15.21-25-23.33-41.93-28.07-27-7.53-54.22-14.19-81-22.3-25-7.56-48.71-18.34-68.06-36.5C295.74,294.49,285.25,244.24,303.4,198c15-38.21,42.43-65,78.12-83.86C425.21,91.07,472.35,82.76,529.35,82.31ZM514.13,367a39.25,39.25,0,0,0,5.11-.63c40.09-12.63,78.08-29.84,112.81-53.6,15-10.23,29.57-21.22,39.35-37.11s7.4-29.89-7.54-41a94.67,94.67,0,0,0-16.56-9.77c-21.48-9.93-44.4-15.2-67.64-18.21-32.79-4.25-65.83-6.55-98.64-10.68-18.83-2.37-37.92-5-56-10.58-20-6.14-27.53-21-25.64-41.92.19-2.07,0-4.17,0-6.91-20.87,8.71-36.47,22.4-50.31,38.28-12.21,14-11.67,31.69.79,45.56,10.9,12.12,24.84,19.79,39.5,25.79,25.7,10.54,52.06,19.48,77.66,30.25,16.2,6.82,32.47,14.32,47,24.07,20.23,13.6,22.68,32.12,9.62,52.73C521.05,357.51,518,361.48,514.13,367Zm242.79-84.23,2.52-.18c-1-9.18-1.15-18.52-3.05-27.49-7.86-37-29.85-65-59-87.21-64.06-48.77-136.84-66.1-216.27-56.67A198.69,198.69,0,0,0,445.51,119C434.1,122.6,424.67,137.2,426,148.16c1.53,12.55,12.66,13.57,21.93,16.5a11,11,0,0,0,2,.47c15.27,1.82,30.51,4.14,45.84,5.32,40.35,3.13,80.62,6.64,120,16.48,46,11.49,87.1,31.82,119,67.93C742.7,263.74,749.59,273.47,756.92,282.81Zm-220,106.47c7,10.65,13.09,20.36,19.66,29.74,6.73,9.59,13.53,19.19,21.06,28.15a114.12,114.12,0,0,0,18.31,17.52c6.06,4.58,11.5,2.49,14.11-4.63a60.31,60.31,0,0,0,3.31-14.71c.78-8,.39-16.11,1.24-24.09,2.74-25.59,18.59-37.48,44-34.72a116.32,116.32,0,0,0,30.8-.6c33-5.32,54.06-31.8,50.17-63.21-3-24-16.48-42.4-33.88-58.28-.21-.2-.83.05-1.25.12-9.72,27.07-17.54,39-34.69,53.29-29.74,24.87-63.46,43-98.85,58.16C560,380.7,548.8,384.67,536.91,389.28ZM322.54,228.94c-3.53,28.78,1.38,52.95,19.67,73.35,12.18,13.59,27.48,22.77,44,30,28.35,12.45,58.51,18.66,88.34,26.13,6.49,1.62,11,.22,15.11-4.49,2.1-2.43,4.39-4.72,6.29-7.3,7.83-10.64,7.27-20.59-3.53-28.06a159.55,159.55,0,0,0-30.88-16.24c-27.21-11-54.94-20.8-82.13-31.89-17.92-7.31-34.66-17-48.09-31.4C328.76,236.29,326.35,233.34,322.54,228.94Z" transform="translate(-27.09 -82.31)" fill="#fff"/><path d="M544.11,324.1c-23.2,0-44.43-3.75-60.63-11.54A13.28,13.28,0,0,1,495,288.62c48,23.07,156.63.71,194.37-50.74a13.28,13.28,0,1,1,21.42,15.7C677.5,298.94,604.2,324.1,544.11,324.1Z" transform="translate(-27.09 -82.31)" fill="#fff"/><path d="M101.06,646.79,38.93,563.65v83.14H27.09V543.23H39.37l62.14,83.29V543.23h11.68V646.79Z" transform="translate(-27.09 -82.31)" fill="#fff"/><path d="M156.53,554.62v34h52.22V600H156.53v35.51h60.36v11.24H144.7V543.23H215v11.39Z" transform="translate(-27.09 -82.31)" fill="#fff"/><path d="M325.62,604.18c0,26.93-16.27,43.2-43.35,43.2s-43.64-16.27-43.64-43.2V543.23h11.83v60.95c0,20.12,12.14,31.81,31.81,31.81s31.51-11.69,31.51-31.81V543.23h11.84Z" transform="translate(-27.09 -82.31)" fill="#fff"/><path d="M400.91,613.8c-2.22.15-4.59.3-7,.3H366.44v32.69H354.6V543.23H394c25.88,0,40.83,12.73,40.83,34.77,0,17.16-8.29,28.7-23.23,33.58l24.26,35.21H422.36Zm-7-11.1c18.78,0,29.44-8.28,29.44-24.41,0-15.68-10.66-23.67-29.44-23.67H366.44V602.7Z" transform="translate(-27.09 -82.31)" fill="#fff"/><path d="M560.23,595c0,29.15-24,52.37-54.15,52.37S451.79,624.16,451.79,595s24-52.07,54.29-52.07S560.23,565.87,560.23,595Zm-96.46,0c0,22.78,19.24,41,42.31,41s42-18.2,42-41-18.94-40.83-42-40.83S463.77,572.23,463.77,595Z" transform="translate(-27.09 -82.31)" fill="#fff"/><path d="M662.89,579.18c0,24.12-15.09,38-41.42,38H600.9v29.59H577.53V543.23h43.94C647.8,543.23,662.89,556.25,662.89,579.18Zm-22.19.74c0-11.54-7.4-17.31-20.42-17.31H600.9v35.06h19.38C633.3,597.67,640.7,591.76,640.7,579.92Z" transform="translate(-27.09 -82.31)" fill="#fff"/><path d="M701.2,543.23v83.15h44.38v20.41H677.82V543.23Z" transform="translate(-27.09 -82.31)" fill="#fff"/><path d="M828.42,626.67H780.49l-8.14,20.12H748.24l45-103.56h24.11l44.23,103.56h-25Zm-7.55-18.79L804.6,567.64l-16.42,40.24Z" transform="translate(-27.09 -82.31)" fill="#fff"/><path d="M917.62,562.76c-17.76,0-31.51,13.76-31.51,31.81s13.75,31.95,31.51,31.95c9.32,0,19.52-4.73,26.92-12.13l13.76,14.94c-10.95,11.25-26.78,18.5-41.87,18.5-30.92,0-54.29-22.93-54.29-53,0-29.88,23.82-52.37,55.18-52.37a58.92,58.92,0,0,1,40.83,17.17l-13.61,16.56C937.44,568.09,927.23,562.76,917.62,562.76Z" transform="translate(-27.09 -82.31)" fill="#fff"/><path d="M1051.05,543.23v19.38H995.57V585.1h49.86v19.38H995.57v22.93h57.1v19.38H972.2V543.23Z" transform="translate(-27.09 -82.31)" fill="#fff"/></svg>