<svg id="Capa_1" data-name="Capa 1" xmlns="http://www.w3.org/2000/svg" viewBox="0 0 717.23 391.56"><path d="M93.11,595.06,49.66,536.91v58.15H41.38V522.63H50l43.45,58.25V522.63h8.18v72.43Z" transform="translate(-41.38 -204.22)" fill="#fff"/><path d="M131.9,530.6v23.8h36.53v8H131.9v24.83h42.22v7.87H123.63V522.63h49.14v8Z" transform="translate(-41.38 -204.22)" fill="#fff"/><path d="M250.16,565.26c0,18.83-11.39,30.21-30.32,30.21s-30.52-11.38-30.52-30.21V522.63h8.28v42.63c0,14.07,8.48,22.24,22.24,22.24s22-8.17,22-22.24V522.63h8.28Z" transform="translate(-41.38 -204.22)" fill="#fff"/><path d="M302.81,572c-1.55.1-3.21.2-4.86.2H278.7v22.87h-8.28V522.63H298c18.1,0,28.55,8.9,28.55,24.32,0,12-5.79,20.07-16.24,23.48l17,24.63h-9.42ZM298,564.23c13.13,0,20.58-5.8,20.58-17.08,0-11-7.45-16.55-20.58-16.55H278.7v33.63Z" transform="translate(-41.38 -204.22)" fill="#fff"/><path d="M414.23,558.84c0,20.39-16.76,36.63-37.87,36.63s-38-16.24-38-36.63,16.76-36.41,38-36.41S414.23,538.46,414.23,558.84Zm-67.46,0c0,15.94,13.45,28.66,29.59,28.66s29.39-12.72,29.39-28.66-13.25-28.55-29.39-28.55S346.77,542.91,346.77,558.84Z" transform="translate(-41.38 -204.22)" fill="#fff"/><path d="M486,547.78c0,16.86-10.55,26.58-29,26.58H442.67v20.7H426.33V522.63h30.72C475.47,522.63,486,531.74,486,547.78Zm-15.52.51c0-8.07-5.17-12.1-14.27-12.1H442.67v24.52h13.56C465.33,560.71,470.5,556.57,470.5,548.29Z" transform="translate(-41.38 -204.22)" fill="#fff"/><path d="M512.81,522.63v58.15h31v14.28H496.47V522.63Z" transform="translate(-41.38 -204.22)" fill="#fff"/><path d="M601.78,581H568.26l-5.69,14.07H545.71l31.45-72.43H594L625,595.06H607.47Zm-5.27-13.14L585.13,539.7l-11.49,28.15Z" transform="translate(-41.38 -204.22)" fill="#fff"/><path d="M664.16,536.29a21.77,21.77,0,0,0-22,22.24c0,12.63,9.62,22.35,22,22.35,6.52,0,13.66-3.31,18.84-8.48l9.62,10.45c-7.66,7.86-18.73,12.93-29.28,12.93-21.63,0-38-16-38-37S642,522.12,664,522.12a41.18,41.18,0,0,1,28.55,12L683,545.71C678,540,670.89,536.29,664.16,536.29Z" transform="translate(-41.38 -204.22)" fill="#fff"/><path d="M757.48,522.63v13.56h-38.8v15.72h34.87v13.56H718.68v16h39.94v13.56H702.33V522.63Z" transform="translate(-41.38 -204.22)" fill="#fff"/><path d="M355.85,204.22c48,.59,96.31,16.3,137.57,51.41a131.13,131.13,0,0,1,33.4,42.75c12.74,26.2,12.56,53.05,3.58,80.19-5.45,16.47-14.16,31-27.33,42.57-12.76,11.2-27.57,16.91-44.6,16.61-3.41-.06-6.82-.31-10.22-.59-10.27-.85-13,1.75-13.59,12.13a184.75,184.75,0,0,1-2.07,21.31A50.22,50.22,0,0,1,428,483.87c-5.61,11.52-16.58,15.48-27.65,9a86,86,0,0,1-20.81-16.6,405.82,405.82,0,0,1-29-37.18c-7.48-10.76-17.65-16.5-29.66-19.85-19.09-5.33-38.36-10-57.32-15.78-17.68-5.35-34.46-13-48.15-25.83-24.81-23.28-32.23-58.84-19.39-91.53,10.61-27,30-46,55.26-59.33C282.17,210.41,315.52,204.53,355.85,204.22ZM345.08,405.66a29.39,29.39,0,0,0,3.62-.45c28.36-8.93,55.24-21.11,79.81-37.92,10.58-7.24,20.92-15,27.84-26.25s5.23-21.15-5.34-29a66.28,66.28,0,0,0-11.71-6.92c-15.2-7-31.42-10.75-47.86-12.88-23.19-3-46.57-4.64-69.78-7.56-13.32-1.67-26.83-3.56-39.6-7.48-14.14-4.35-19.48-14.84-18.14-29.66.14-1.46,0-2.95,0-4.89-14.76,6.17-25.8,15.85-35.59,27.09-8.64,9.91-8.25,22.41.56,32.23,7.71,8.57,17.57,14,28,18.25,18.18,7.45,36.83,13.77,54.93,21.39,11.47,4.83,23,10.13,33.25,17,14.32,9.62,16,22.73,6.82,37.3C350,398.91,347.84,401.72,345.08,405.66Zm171.77-59.59,1.78-.14c-.69-6.48-.81-13.09-2.16-19.44-5.56-26.15-21.11-46-41.76-61.7-45.32-34.5-96.81-46.76-153-40.09a140.78,140.78,0,0,0-25.17,5.5c-8.07,2.52-14.75,12.85-13.8,20.6,1.08,8.88,8.95,9.6,15.51,11.68a7,7,0,0,0,1.42.33c10.81,1.29,21.6,2.93,32.44,3.77,28.55,2.21,57,4.69,84.92,11.65,32.58,8.13,61.62,22.51,84.21,48.06C506.79,332.58,511.66,339.46,516.85,346.07ZM361.2,421.39c5,7.53,9.26,14.4,13.91,21S384.68,456,390,462.34a80.88,80.88,0,0,0,13,12.4c4.29,3.24,8.14,1.76,10-3.28a43.19,43.19,0,0,0,2.35-10.4c.55-5.66.27-11.4.87-17.05,1.94-18.1,13.15-26.51,31.16-24.56A82.71,82.71,0,0,0,469.1,419c23.36-3.77,38.25-22.5,35.5-44.72-2.11-17-11.67-30-24-41.24-.15-.13-.59,0-.89.09-6.87,19.15-12.41,27.56-24.54,37.7-21,17.59-44.89,30.4-69.94,41.14C377.55,415.32,369.61,418.13,361.2,421.39ZM209.54,308c-2.5,20.36,1,37.47,13.92,51.9,8.62,9.61,19.43,16.1,31.14,21.24,20,8.81,41.4,13.2,62.49,18.49,4.6,1.15,7.81.15,10.7-3.18,1.48-1.72,3.1-3.34,4.44-5.17,5.55-7.52,5.15-14.56-2.49-19.85a113.54,113.54,0,0,0-21.85-11.49c-19.25-7.8-38.87-14.71-58.1-22.56-12.68-5.17-24.52-12-34-22.21C213.94,313.15,212.24,311.06,209.54,308Z" transform="translate(-41.38 -204.22)" fill="#fff"/><path d="M366.29,375.27c-16.41,0-31.43-2.65-42.89-8.16a9.39,9.39,0,1,1,8.13-16.93c34,16.32,110.82.5,137.51-35.91a9.4,9.4,0,1,1,15.16,11.12C460.66,357.48,408.81,375.27,366.29,375.27Z" transform="translate(-41.38 -204.22)" fill="#fff"/></svg>