<svg xmlns="http://www.w3.org/2000/svg" xmlns:xlink="http://www.w3.org/1999/xlink" viewBox="0 0 1125 1314"><defs><linearGradient id="Degradado_sin_nombre_91" x1="562.5" y1="1314" x2="562.5" gradientUnits="userSpaceOnUse"><stop offset="0" stop-color="#8e42e0"/><stop offset="1" stop-color="#00c2ff"/></linearGradient><clipPath id="clip-path"><rect width="1125" height="1314" fill="none"/></clipPath></defs><g style="isolation:isolate"><g id="Capa_1" data-name="Capa 1"><rect width="1125" height="1314" fill="url(#Degradado_sin_nombre_91)"/><g opacity="0.1" style="mix-blend-mode:multiply"><g clip-path="url(#clip-path)"><path d="M1772.21,911c-.31,1.24.22,2.29-1.38,3.63-20.28,17-42.29,31-67.12,40.36-14.67,5.54-29.85,9.19-45.5,9.38-26.72.33-46.61-11.79-60-34.86-8.65-14.86-12.88-31.34-18-47.51-4.24-13.44-8.69-26.8-18.49-37.5-9.14-10-20.56-11.27-33-8.5-18.48,4.12-34,14.2-49,25-28.45,20.57-54.43,44.14-81,67-25.81,22.15-52,43.86-80.57,62.4-13.15,8.53-26.7,16.41-41.89,21.25-10.07,3.21-20.26,4.9-30.52,3.65-11.81-1.45-21.23-7.55-28.11-17.74-9.19-13.6-13.28-28.94-16.93-44.56-4.47-19-7.32-38.5-14-57-6.86-19-16.11-36.31-34-47.54-9.71-6.1-20.18-9.4-31.5-11.12a124.1,124.1,0,0,0-38,.32,136.41,136.41,0,0,0-48,17.36c-22.54,13.21-42.05,30.1-60.08,48.91-13,13.57-26,27.28-41.94,37.56-14.66,9.43-30.73,13.57-48,10.89-17-2.65-32.53-9.69-47-18.91-18.49-11.81-35.13-26.05-52-40-23.72-19.52-47.51-39-73.48-55.52-17.67-11.27-36.5-20.11-57-24.34-20.95-4.31-39.62,1.44-56,15.28-9.89,8.36-18.07,18.28-26.92,27.59-15.82,16.64-33.87,29.31-57,33.52a100.76,100.76,0,0,1-40-1c-31.24-6.83-54.83-25.24-75-49-17.34-20.42-30.56-43.43-43-67-12.07-22.81-23.64-45.95-40.93-65.55-11.66-13.22-24.95-23.7-42.51-28-14.09-3.48-27.56-2-41,3-21.36,8-38.67,21.85-54.9,37.15-24.73,23.31-47.19,48.82-70.17,73.83-15.84,17.24-33.06,33.14-53.47,45-6.59,3.82-13.26,8-21.43,8.19-5.62.16-10.06-2-14-5.59-6.85-6.26-10.07-14.71-13.49-23-5.08-12.29-9.17-25-17-36-6.69-9.39-15.34-15.72-27-16.36-8.42-.45-16.48,2.32-24,6-14.44,7-27.08,16.74-39.09,27.36-13.62,12-25.92,25.43-38.95,38.06-2.69,2.61-5.37,5.25-6.51,9" fill="none" stroke="#0058ff" stroke-linecap="round" stroke-linejoin="round" stroke-width="2"/><path d="M1772,943c.71,1.46-.24,2.2-1.24,3a301.94,301.94,0,0,1-36.48,25.54c-15.2,8.89-31,16.22-48,21-18.47,5.23-37,8.22-56,3.92-14.61-3.29-26.54-10.88-36.54-22-11.81-13.09-18.21-29-24.5-45-4.6-11.74-9.16-23.46-16.34-34.09-12.27-18.14-28.35-20.44-48.13-14.48-20.46,6.17-37.63,18.17-54.42,30.65-24.33,18.08-47.13,38.08-70.12,57.84-26.11,22.44-52.48,44.61-81,64-14.9,10.14-30.24,19.76-47.49,25.47-12.37,4.09-25,6.24-38,1.64-10.39-3.69-17-11.33-21.93-20.57-7.59-14.19-10.48-29.81-13-45.47-3.55-21.66-5.77-43.6-13-64.49-5.75-16.56-14.22-31.25-29.48-41-11.88-7.6-25.09-10.47-39-11-32.47-1.29-59.86,11.38-85,30.49-18,13.64-32.86,30.46-48.45,46.55-10,10.29-20.09,20.26-33,27-13.57,7.12-27.48,7.92-42,4-19.78-5.35-36.3-16.44-52-29-14.2-11.4-27.27-24.09-41.08-35.92-23.2-19.86-46.7-39.4-73.41-54.61-18.45-10.51-37.85-18.49-59-20.84-16.82-1.87-32.26,2.85-46,12.87-14,10.25-24.93,23.73-37,36a119.37,119.37,0,0,1-33,24,98.94,98.94,0,0,1-52,9.63,126.81,126.81,0,0,1-50-14.55c-15.83-8.37-29.06-19.81-41.56-32.47-17.55-17.79-31.16-38.42-43.73-59.69-10.34-17.5-19.75-35.56-31.24-52.36-10.43-15.25-21.92-29.45-37.88-39.63-20.64-13.17-42.14-15.33-65.08-7.44-18.58,6.4-34.2,17.63-48.91,30.12-16.72,14.21-32,30.07-46.93,46-16.61,17.73-32.61,36-50.18,52.83C67,863.11,53,873.63,37.16,881.38c-7.34,3.6-15.5,5.6-22.87,0A35.89,35.89,0,0,1,2.21,864.5C-2.12,852.33-6.26,840.09-10.87,828a58.87,58.87,0,0,0-9.49-17c-11.7-13.93-23.35-15.77-40.38-8.45-15.83,6.81-29.4,17.18-42.1,28.82-13.93,12.76-27.34,26-40,40a19,19,0,0,0-3.95,6.55" fill="none" stroke="#0058ff" stroke-linecap="round" stroke-linejoin="round" stroke-width="2"/><path d="M1772.21,974c-.26,1.18.54,2.42-1,3.55-18.84,14.09-38,27.67-59.55,37.42-23.82,10.8-48.48,18.43-75,17.44-19.57-.72-36.88-7.42-51.56-20.86-15.08-13.81-23.52-31.79-32.49-49.53a139.8,139.8,0,0,0-15.86-25.1c-11.91-14.76-26.87-18.17-44.61-14-18.58,4.41-34.87,13.59-50.44,24.11-20.5,13.85-39.68,29.44-58.56,45.42-25.45,21.56-50.64,43.44-76.6,64.37-18.32,14.78-37.56,28.46-58.4,39.62-12.36,6.61-25.28,12-39.49,12.42-14.71.44-26.81-4.62-35.1-17.83-8.06-12.83-11.41-27-13.88-41.57-4.25-25.12-5-50.79-12-75.51-3.58-12.7-8.62-24.69-17.63-34.4-10.4-11.2-23.74-17-38.91-18.59-26.23-2.78-49.59,5.22-70.94,19.6-18.06,12.15-33.38,27.45-47.58,43.89-8.73,10.11-17.63,19.95-28.4,28.12-16.48,12.5-33.82,13.93-52.6,6.44-14.19-5.67-26.42-14.31-38-24-15.54-13.09-29.3-28-44.1-41.9-20.69-19.36-42.47-37.51-66.94-52-19.48-11.56-40.28-20-63-22.45-19-2-36.29,3.34-51.45,14.93-12,9.2-22.26,20.33-32.7,31.3a141.26,141.26,0,0,1-33.79,26.24,108.78,108.78,0,0,1-54.54,13.82,131.49,131.49,0,0,1-53-11.44c-18-8-33.73-19.33-48.09-32.88-23.71-22.37-41.45-49.14-58.45-76.57-14.09-22.74-28.34-45.41-48.51-63.48-15.74-14.11-34-22.76-55.47-23a81.68,81.68,0,0,0-35.45,8c-17.76,8.32-33.6,19.61-48.08,32.86-10.44,9.55-21.25,18.74-30.91,29.09-17.69,19-34.54,38.77-53.15,56.85C62,898.1,46.92,910.66,28.76,919.09,15.93,925,4.89,921.71-1.45,909.58c-6.78-13-10-27-14.81-40.59-3-8.49-6-16.83-10.9-24.57C-34.33,833-45.55,829.31-59.3,834c-12.3,4.15-22.9,11.17-33,19.06-16.21,12.72-30,28-44.38,42.62-3.83,3.9-8.63,7.51-10.15,13.36" fill="none" stroke="#0058ff" stroke-linecap="round" stroke-linejoin="round" stroke-width="2"/><path d="M1772.21,1005c.51,2-.48,3.35-2,4.5-18.55,14.11-37.73,27.16-59,37.06-23.54,11-48,18.59-74,19.25-24.38.61-46.54-6.49-65-23.29-10.59-9.62-19.07-20.82-26.57-33a193.78,193.78,0,0,0-20.45-28c-16-17.7-35.55-20.53-57.46-13.56-19.37,6.16-36.5,16.35-53.06,27.93-17,11.87-33.2,24.64-49,38.07-16.92,14.42-34.18,28.46-50.93,43.08s-33.64,28.57-51.63,41.33c-16,11.34-32.05,22.61-50.88,29.23-10.51,3.69-21.1,5.84-32,4.25-13.33-1.94-22.34-10.26-28.5-21.88-6.07-11.43-8.86-23.83-11.11-36.48-2.7-15.26-3.71-30.7-5.76-46-1.85-13.87-3.58-27.69-8.16-41-5.91-17.17-15.61-31.27-33-38.44-14.64-6-29.73-5.76-45-2.12-16.16,3.86-29.85,12.28-42.44,22.62-14.47,11.88-26.69,26-38.67,40.33a128.63,128.63,0,0,1-21.26,20.76c-14.58,10.94-29.6,11.33-45.62,4.35-13.43-5.85-25.05-14.45-35.42-24.58-12.48-12.18-24.73-24.63-36.5-37.49a336.6,336.6,0,0,0-61.62-53.37c-16.88-11.25-35-19.87-54.95-24.6-27.72-6.59-52.71-1.9-75.09,16.43C626.67,939,617.3,948.56,607.73,958c-14.21,14-29.77,26-48.48,33.58a119.76,119.76,0,0,1-36.53,8.42,140.8,140.8,0,0,1-49-5.08c-20.61-5.78-39.15-15.84-56-29-27-21-48-47.35-67-75.47-11.83-17.49-23.64-35.06-37.62-50.89-13.26-15-28.15-28.26-47.36-35.65a81.43,81.43,0,0,0-52.5-2.42c-20.34,5.71-37.66,16.93-54,29.91a404.91,404.91,0,0,0-41.84,38.17C100.84,887,85.1,905,68.19,922c-12.25,12.3-25.59,23.27-41,31.49-5.61,3-11.25,5.74-18,5.62-6-.1-10.41-2.58-14-7.09-6.78-8.54-9.51-18.87-12.42-29C-20.9,910-23.68,896.82-29.3,884.5c-4.17-9.16-9.67-17.21-20.5-18.9-7.21-1.12-14,1.53-20.45,4.46-10.15,4.63-19.08,11.17-27.57,18.4C-110.23,899-121.26,911-132.76,922.52c-4,4-7.63,8.37-11.55,12.45-1.68,1.74-1.63,4-2.48,6" fill="none" stroke="#0058ff" stroke-linecap="round" stroke-linejoin="round" stroke-width="2"/><path d="M1772.21,849c-.19,1,.33,2-1,3-14.19,11.09-28.59,21.82-45,29.47-12.92,6-26.19,10.44-40.49,12.12-11.14,1.31-22,1.57-32.51-2.66-15.43-6.18-24.22-18.59-31-33-7.78-16.38-11.06-34-15-51.51-3.44-15.26-6.86-30.55-16.46-43.51-7-9.38-18-12.87-28.53-11.06-21.31,3.67-37.4,16.74-53.42,29.65-30.93,24.9-59.51,52.51-89.6,78.38-20,17.22-40.7,33.54-64.44,45.6-11.8,6-24.09,10.8-37,12.76-26.4,4-44-.58-61.36-26.4C1246,876.61,1240,859.08,1233.23,842c-8.93-22.66-20.1-43.81-39-60-13.42-11.51-28.77-18.69-46-22.6a133.6,133.6,0,0,0-40-2.69,175.54,175.54,0,0,0-71,21.3c-19.46,10.6-37,23.83-53.49,38.52-14.27,12.72-27.53,26.56-42.51,38.49-13.61,10.83-28,20.49-45,24.91a91.1,91.1,0,0,1-30,2.87c-28.32-2.09-52.29-14.44-75.48-29.27-28.25-18.09-54.34-39.09-80.5-60-17.84-14.26-36-28-57-37.5-13.67-6.2-27.75-10.8-43-9.43-9.36.84-17.82,4.53-25.5,9.93-9.64,6.78-17.73,15.24-25.49,24-12.15,13.74-25.32,26.27-43.06,32.36a74.22,74.22,0,0,1-31.48,3.91c-29.82-2.73-52.21-17.94-71.47-39.29-15-16.63-26.15-35.79-36.54-55.48s-18.59-40.19-29.45-59.52c-10.66-19-22.22-37.23-40.53-50-11.69-8.14-24.84-12.51-39-11.83-15,.72-28.56,6.53-41,14.83-15.94,10.64-29.79,23.75-43,37.52-23.67,24.69-45.23,51.35-69.58,75.41C100.05,742.38,85,755.21,67.27,764.61a55.44,55.44,0,0,1-15.08,5.75c-6.67,1.3-12.76-1.21-17.95-5.4-9.1-7.34-14.41-17.54-20-27.47s-11.81-19.69-21-27c-13.9-11.07-29.08-11.38-45-5.47-16.67,6.18-31,16.22-44.46,27.54A551.5,551.5,0,0,0-143.83,778a14.6,14.6,0,0,0-3,5" fill="none" stroke="#0058ff" stroke-linecap="round" stroke-linejoin="round" stroke-width="2"/><path d="M1772.21,1037c.83,2.37-1.12,2.93-2.48,4a305.41,305.41,0,0,1-53,34c-21.26,10.76-43.56,18.47-67.06,21.76-32.83,4.59-63.16-2.38-89.42-23.41-9.69-7.76-17.54-17.45-25.59-26.9-9.12-10.7-18.24-21.41-29.94-29.55-15-10.44-31.1-11.78-48.55-7.59-26.9,6.45-50,20.11-71.92,36.19-20,14.71-38.45,31.44-57.13,47.84-26,22.79-51.56,46.06-79.46,66.54-15.6,11.44-31.65,22.47-50,28.87-17.05,5.93-34.48,7.33-50.4-3.88-10.38-7.31-15.75-18.25-19.48-30-3.52-11.06-5.46-22.47-7.18-34-3.36-22.54-4.89-45.42-11-67.49-4.63-16.84-11.72-32.52-28-41.41-9.82-5.37-20.63-6.94-31.94-5.68-26.32,2.94-45.35,18.3-62.39,36.66-9.73,10.48-18.22,22.1-27.68,32.84-6.17,7-13.43,13.09-22.46,16-10.82,3.43-21.42.72-30.88-4.53-15.07-8.37-27.93-19.56-39.22-32.74-6.91-8.06-14-16-20.89-24.09a409.6,409.6,0,0,0-32-34c-20.1-18.84-41.87-35.24-68-45a120.7,120.7,0,0,0-41.5-7.93c-20.81-.16-38.82,7.81-55,20.42-12,9.31-22.67,20-33.57,30.43-15.72,15.1-33.6,27.12-54.45,34-27.11,9-54.46,8.63-82,1.61-24.92-6.35-46.95-18.3-66.94-34.11-21.82-17.26-40.25-37.76-57.19-59.83-15.92-20.74-31.18-42.12-49.87-60.6-17-16.78-35.9-30.3-60-35-17.71-3.49-34.94-1.16-51.45,5.17-20.13,7.72-37.61,20-54.13,33.77C124.9,892.17,111,906.26,97.35,920.62c-12.5,13.17-24.11,27.2-37.18,39.83-10.8,10.44-22.23,20.2-35.48,27.51-5.37,3-10.86,6-17,6.95-10.07,1.49-16.36-2.54-22-12.9-6.16-11.3-8.73-23.77-12-36-3.07-11.67-5.85-23.35-11.93-34C-44.53,900.81-54.42,896-68.27,901c-12.52,4.53-23.22,12.1-33,21-14.67,13.33-28,28-41.57,42.43-2.1,2.24-2.67,5-3.95,7.55" fill="none" stroke="#0058ff" stroke-linecap="round" stroke-linejoin="round" stroke-width="2"/><path d="M1772.21,500c.55,2.83-2.36,2.78-3.59,3.89a141.29,141.29,0,0,1-32.35,22.22c-11.32,5.56-22.94,8.92-35.55,7.84-10.58-.91-19.73-5.52-28-12-14.27-11.13-24-25.92-32.46-41.52-13.82-25.32-24.2-52.23-36.15-78.43-8.84-19.39-17.44-39-29-57-8.5-13.22-18.13-25.73-31.93-34-15.49-9.3-32.64-8.67-45.57,4.84-10.56,11-17.81,24-23.76,37.67-9.37,21.55-17.39,43.76-28.76,64.37-11.87,21.5-28.16,38.77-51.89,47.53-10.14,3.73-20.71,5.4-31.45,6.82-8.19,1.09-16.13.33-24-.5-11.51-1.22-22.64-4.53-33.56-8.69-28.75-10.94-52.82-29.16-76.44-48.12-13.45-10.79-26.13-22.58-41-31.46-9.76-5.81-20-10-31.47-11.68-13.89-2-26.77,1.19-39.51,5.71-19.77,7-37.42,18-54.52,29.95-22.6,15.79-43.39,33.84-64.51,51.49-25.64,21.43-51.83,42.19-80.52,59.46-22.58,13.6-46.58,24.12-72.5,29.41-12.1,2.47-24.59,4.4-36.95,3-23.19-2.63-35.79-11-41.47-37.85-2.44-11.5-4.43-23.17-9.15-33.95-7.13-16.24-20.21-26-36.91-31-9.59-2.88-19.46-4.17-29.46-5.26-13.91-1.52-27.39.27-41,2.13-25.57,3.49-50,11.71-75,17.55a340.08,340.08,0,0,1-34.48,6.68A187.08,187.08,0,0,1,509.72,471c-26.05-.8-49.68-8.7-70.49-24.51-15.78-12-28.9-26.76-42-41.5-16.17-18.2-34.34-33.41-58-41a134.23,134.23,0,0,0-28-6.15,154.92,154.92,0,0,0-16.52-.77c-19.6.14-38.5,4.23-57,10.47-24.51,8.26-46.9,20.82-69,34-24.11,14.36-48,29.23-74.5,39-11.26,4.14-23,6.65-35,5.42-14.62-1.49-27.77-7.28-40-15.34-14.9-9.78-30.16-19-47.46-24.05-10.29-3-20.81-5.13-31.5-4.39-23.32,1.6-44.95,9-65,20.95-6.7,4-13.07,8.56-19.5,13-1,.69-2.66,1.15-2.54,2.95" fill="none" stroke="#0058ff" stroke-linecap="round" stroke-linejoin="round" stroke-width="2"/><path d="M1772.21,1068c.67,2.41-.93,3.77-2.51,5a317.63,317.63,0,0,1-35,23.91c-14.5,8.33-29.53,15.75-45.45,21.06-14.79,4.93-29.81,8.71-45.47,10.24a140,140,0,0,1-34-.34,130,130,0,0,1-54.09-20.75c-13.7-9.18-25.08-20.93-37.42-31.62-13.35-11.56-27.2-22.32-45-25.9-9.64-1.94-19.31-1.19-29,.84-25.52,5.37-47.78,17.61-69,32.12-21,14.36-40,31.19-59.06,47.91-24.52,21.47-47.68,44.45-73,65-12.22,9.94-25.19,18.76-39.48,25.52-13.46,6.36-27.58,10.08-42.5,8.91-18.51-1.46-32-11-40.49-27.42-6.91-13.37-10.27-27.8-13.11-42.48-4-20.66-6.3-41.66-11.93-62-3.84-13.85-8.72-27.29-19.52-37.46-7.09-6.67-15.62-10.36-25.44-11.64-21.08-2.73-37.44,6.58-52.51,19.6-13.65,11.78-23.81,26.59-35,40.51a57.84,57.84,0,0,1-16.07,14.39c-9.12,5.23-18.51,4.32-28,.15-14.25-6.3-25.63-16.32-35.91-27.61-14.13-15.53-26.07-32.91-39.73-48.8-18-20.9-37.37-40.49-61.83-54.16a135.14,135.14,0,0,0-48-16.16c-28.58-4-52.49,5.75-74.55,22.64-13.74,10.52-25.63,23.1-39,34-21.14,17.34-44.5,29.61-72,33.62a166,166,0,0,1-52.54-1c-33.94-5.8-62.95-21.57-89.45-42.66-22.87-18.19-42.08-39.93-60.64-62.38-14.43-17.44-29.32-34.59-46.42-49.55-15.81-13.83-33.26-25-54-30-20.46-4.9-40.41-2.58-60,4.89-23.07,8.8-42.52,23-61,39-23.31,20.11-42.64,44-64,66-13.74,14.09-28.54,27.08-46.92,35.07-14.34,6.24-21.73,4.23-30.34-6.61-3.44-4.33-5.36-9.93-7.22-15.35-5.43-15.79-8.21-32.33-13.9-48-1.84-5.1-3.9-10.24-7.17-14.38-7.7-9.76-15.43-11.9-29.35-6.55-12.83,4.93-23.18,13.64-33,23-12.16,11.54-23.1,24.24-34.49,36.51a19.29,19.29,0,0,0-4.53,8" fill="none" stroke="#0058ff" stroke-linecap="round" stroke-linejoin="round" stroke-width="2"/><path d="M1772.21,466c0,.66.29,1.69,0,1.94-14.34,11.25-28.85,22.14-46.44,28.1-23.64,8-43.91,2.24-61.49-14.57-16.32-15.61-27.35-34.91-36.94-55-9.22-19.32-17.78-38.95-26.58-58.47-9.38-20.8-18.28-41.86-30.07-61.45-9.12-15.16-19.29-29.47-34.38-39.63-9.08-6.1-18.78-9-29.55-7.84-7.25.76-13.16,4.65-18.51,9.43-8.94,8-15,18-20.48,28.5-8.35,16.05-14.68,33-22.11,49.45-7.75,17.14-15.9,34.1-28.36,48.59-14.94,17.36-33.56,27.73-56,32-25.11,4.84-49,.89-72-9.15-24.7-10.75-45.88-27-66.52-43.95-12.14-10-23.85-20.49-37.49-28.52-15.91-9.38-32.56-11.84-50.54-7.06s-33.8,14.37-48.87,24.74c-24,16.54-45.65,36.1-67.16,55.79-26.88,24.6-54.36,48.53-85,68.54-20.88,13.67-42.92,25-67,32-10.43,3-21.15,4.49-32,5.81a62.26,62.26,0,0,1-24.48-1.46C796.71,520,789.12,510,785.69,496.5,783,486,781.31,475.13,777.18,465c-6.93-17-18.08-29.78-35.4-37.16-10-4.28-20.36-6.42-31-8-9.88-1.46-19.74-1.18-29.52-.66-15.89.85-31.54,4.17-47,7.94-21.13,5.15-41.9,11.77-63.09,16.65-12.39,2.86-25.13,4.34-37.92,5.52a145.42,145.42,0,0,1-35-1.49,117.56,117.56,0,0,1-45.52-17.32,200.8,200.8,0,0,1-33.54-27c-11.76-11.58-22.73-24-35.94-34.06-18.05-13.77-38.14-22.93-60.55-26.32-11.37-1.72-22.89-1.31-34.49-.35-33.45,2.78-62.86,16.75-92,31.74C178,384,160,394,141.68,403.44c-16.19,8.32-32.95,15.81-50.54,20.28-22.2,5.65-43.75,2.46-63.44-10.2C14,404.74,1,395-13.73,387.89a118.06,118.06,0,0,0-35-11c-15.26-2.13-29.87,0-44.54,4.05-18.87,5.2-35.49,14.69-51.48,25.57-1,.64-1.88,1.23-2,2.51" fill="none" stroke="#0058ff" stroke-linecap="round" stroke-linejoin="round" stroke-width="2"/><path d="M1771.71,533c-14.36,13.27-29.84,24.83-48.49,31.5-19.91,7.12-37.25,2.49-52.5-11.51-15.66-14.37-25.64-32.61-34.44-51.52-9-19.21-17.38-38.65-26.07-58-7.4-16.46-14.7-33-24-48.5-8.07-13.46-17.2-26.08-30-35.46-8.11-5.91-17.18-9.56-27.46-8.48a28.65,28.65,0,0,0-16,7c-11.71,10.25-19.5,23.26-25.57,37.44-5.72,13.38-11.84,26.59-17.42,40a222.43,222.43,0,0,1-18.58,36,91.41,91.41,0,0,1-35.55,32.36,94.64,94.64,0,0,1-29.91,9.28,155,155,0,0,1-24.52,1.88c-16.24-.33-31.84-3.82-47-9.5-28-10.49-52.17-27.21-75.57-45.41-16.52-12.85-32-27-49.89-38.16a100.41,100.41,0,0,0-34-13.84c-14.06-2.74-27.88-.39-41.48,3.41-23.11,6.45-43.9,17.85-64,30.57-19.87,12.6-38.49,27-57.06,41.41-23,17.85-45.58,36.13-70,52-23.8,15.47-48.59,28.76-76.46,35.63a224.18,224.18,0,0,1-29.52,5,99,99,0,0,1-18,.75c-10.28-.76-20.33-2.55-29.54-7.84-11.26-6.47-16.84-16.82-20.42-28.58-3.07-10.05-5-20.4-7.89-30.53-6.33-22-21.4-34.09-42.65-40a145,145,0,0,0-50-4.81c-21.91,1.67-43.4,6.14-64.53,12.3-17.5,5.1-35.09,10.05-53,13.4a130.25,130.25,0,0,1-37,2,111.22,111.22,0,0,1-64.1-28.28c-15.5-13.79-28.06-30-41-46-17.91-22.13-40.42-37.81-68.45-44.4-5.6-1.31-11.48-2.81-17.45-2.17-2.77.3-5.21-1.11-8-1.11a183.65,183.65,0,0,0-65.46,12.2c-24.7,9.44-47.07,23.33-69.05,37.87-20.15,13.33-40.4,26.47-62.46,36.59-14.06,6.46-28.65,10.06-44,8.28C40,464.31,28,458.61,16.68,451.55c-12.27-7.62-24.93-14.39-38.92-18.7a97.67,97.67,0,0,0-40.56-4c-29.22,3.35-53.84,16.69-77,33.68-2.55,1.88-5.71,3.2-7,6.47" fill="none" stroke="#0058ff" stroke-linecap="round" stroke-linejoin="round" stroke-width="2"/><path d="M1771.71,434c-16.09,13.65-33.53,24.89-54.5,29.47-17.8,3.89-33.63-.79-48-11.47-13.72-10.2-23.62-23.69-32.47-38-14.67-23.77-25-49.64-36.62-74.94-12-26.16-22.95-52.84-37.94-77.52-8.62-14.2-18.27-27.67-32-37.47-9.92-7.07-20.68-12-33.46-10.08-8.31,1.26-15.08,5.38-21,11.05-9.68,9.3-16.68,20.54-22.48,32.5-8.85,18.24-17,36.82-26.14,54.93-9.86,19.59-21.6,37.93-38.9,52.06a88.83,88.83,0,0,1-46,19.62c-22.13,2.84-42.93-1.27-63-10.17-21.61-9.58-40.38-23.55-58.52-38.46-11.31-9.31-22.23-19.17-35-26.44-9.68-5.49-20.2-8.93-31.46-7.95s-22,4.9-32,10.41c-20.39,11.28-38.33,25.89-55.52,41.47-29,26.3-55.49,55.27-85.49,80.52C958,453,933.9,471.12,906.24,484c-15.52,7.25-31.47,12.72-48.51,15-8.35,1.13-16.48,2.42-25,1.07-13.06-2-21.15-9.33-26-21.14-4-9.75-5.88-20.13-9.36-30.06-8.79-25.11-25.64-41.34-51.1-49-18.23-5.49-36.86-6.15-55.5-4.32-27.78,2.72-54.34,11.11-81,18.8-18.24,5.25-36.57,10.08-55.47,12.71a169.27,169.27,0,0,1-34.51,1.71,135.55,135.55,0,0,1-47.57-11.7c-23.09-10.46-41.86-26.53-59.91-43.68-15.32-14.55-31.42-27.87-51-36.55a136.32,136.32,0,0,0-39.52-11c-29.15-3.48-56.41,3.39-83,14.16-26,10.53-50.18,24.64-75.06,37.38-19.93,10.21-40.28,19.36-61.92,25.73-27.63,8.14-52.49,3-75.52-13.2-15.16-10.7-29.73-22.23-46.51-30.5a99.07,99.07,0,0,0-58-9.6c-24.83,3.21-46.56,13.39-67,27.07a4.18,4.18,0,0,0-1.46,2.07" fill="none" stroke="#0058ff" stroke-linecap="round" stroke-linejoin="round" stroke-width="2"/><path d="M1772.21,564c.4,2.76-2.09,3.68-3.56,4.93-11.59,9.79-23.54,19.09-37.42,25.6a64,64,0,0,1-24,6.37c-11,.55-20.77-3.29-29.5-9.9-13.75-10.41-22.65-24.53-30.51-39.5-12-22.89-21.33-47-32.12-70.44-9.24-20.06-18.36-40.3-31.88-58.05-5.92-7.77-12.5-15-21-20-18.93-11.06-33.35-6.86-46.37,8-10.68,12.24-17.27,27.05-23.64,41.89-9,20.84-17.12,42.1-30,61-14.63,21.5-35.07,34-60.46,39.11a120.76,120.76,0,0,1-25.51,2.72,163.26,163.26,0,0,1-60.56-12.69c-28.18-11.7-53-28.69-76.94-47.13-17-13.08-33.24-27.29-52-38-13.06-7.44-26.72-12.65-42-14.21-16.12-1.65-31.35,1.27-46.52,5.72-23.32,6.85-44.54,18.19-65,31-30.59,19.23-58.82,41.79-88.1,62.86-23.77,17.11-48.42,33-75.48,44.49a199.86,199.86,0,0,1-45.42,13.28,151.58,151.58,0,0,1-37.52,1.63c-23.39-1.91-44.47-12.79-54.67-39.25-3.56-9.22-6-18.73-8.64-28.12C717,512.82,702.31,499.23,680.2,493a145.56,145.56,0,0,0-49.48-4.91,254.74,254.74,0,0,0-50,9c-17.9,4.91-35.46,11.07-53.55,15.3a133.35,133.35,0,0,1-22.48,3.73c-3.81.22-7.64,1-11.51.84-20.25-.57-38.84-6.25-55.5-18-18-12.68-31.54-29.55-44.54-47-8.71-11.69-16.95-23.77-27.43-34.06-15-14.74-32.74-25.06-53.09-29.69a121.73,121.73,0,0,0-38-2.59,183.73,183.73,0,0,0-50.5,12.23c-18.38,7.14-34.93,17.39-51,28.6-21.79,15.23-42.63,31.89-65.62,45.31-11.47,6.69-23.62,12.77-36.92,15-12.75,2.16-25.36.41-37.48-4.35-9.71-3.82-18.3-9.73-27.5-14.51-11.27-5.86-22.85-10.79-35.48-13.08-7.48-1.36-15-2.53-22.51-1.84a129.21,129.21,0,0,0-38,9,202,202,0,0,0-52.51,32.43c-1.42,1.19-3.32,2.22-3.54,4.46" fill="none" stroke="#0058ff" stroke-linecap="round" stroke-linejoin="round" stroke-width="2"/><path d="M1772.21,399c-1.66,4.51-6.16,6-9.57,8.38-14.85,10.4-30.55,19-48.92,21.66s-34.35-2.68-48.48-14.08c-17.64-14.24-29.78-32.78-40.6-52.42-11.87-21.55-21.18-44.25-31.53-66.49-12.74-27.37-24.11-55.46-40.43-81-9.21-14.41-19.67-27.74-34.45-37-19-11.93-38.36-11-54.53,5-13.3,13.21-21.91,29.45-30,46-8.39,17.31-16.33,34.86-26.09,51.45-10.2,17.35-22.12,33.36-38.94,45-14.27,9.9-30.16,14.69-47.49,15.58-26.23,1.34-49.16-7.82-71-21.05-16.6-10-31.31-22.58-46.51-34.5-8.4-6.59-17.2-12.59-27.47-16-13.52-4.52-26.61-2.22-39,3.62-18.13,8.59-33.36,21.45-48,34.9-29.85,27.36-55.49,58.82-84.53,87-20.41,19.78-42,38.19-66,53.45-20.15,12.8-41.9,22.15-65.48,26.42-9.71,1.75-19.8,2.68-29.46-.89-11.46-4.24-16.88-13.88-21-24.47-4.79-12.33-8.49-25-15.4-36.56-15.43-25.74-38.8-37.92-67.61-42s-56.3,1.92-83.48,10.14c-22.6,6.84-44.51,15.91-67.53,21.38-22.2,5.27-44.54,7.78-67.51,5.73-25.72-2.29-48.72-11.44-69.88-25.35-13.45-8.84-25.65-19.49-37.63-30.31-14.13-12.76-29.29-24.06-46.45-32.58-23-11.4-46.91-16.07-72.54-13.07-20.24,2.37-39,8.94-57.53,17-28.44,12.4-54.55,29.22-82.45,42.61-17.35,8.33-35.2,15.3-54,19.46C75.63,391.5,53,385.52,32.21,371,17.75,360.9,4.76,348.82-10.27,339.47c-14.1-8.76-28.77-15.8-45.51-18-19.19-2.57-37.58.88-55.46,7.2A142.78,142.78,0,0,0-143.3,345c-1.22.82-2.84,1.16-3,3" fill="none" stroke="#0058ff" stroke-linecap="round" stroke-linejoin="round" stroke-width="2"/><path d="M1772.21,366c-5.07,6.37-12.35,9.95-19.1,13.81C1739,387.9,1724,394,1707.22,394.58a63.57,63.57,0,0,1-36-9.59c-17.54-10.63-30-26.29-40.85-43.1-12.08-18.75-22-38.75-30.86-59.3-5.67-13.12-11.73-26.12-17.79-39.1-5.52-11.82-10.69-23.82-16.57-35.46-11.66-23.08-23.67-46-43.44-63.53-10-8.92-21.43-15.24-35-16.42-10-.86-19,2.73-27,8.48-10.66,7.68-18.54,18-25.52,28.95-10.32,16.2-18.57,33.54-27.58,50.46-10.92,20.52-22.07,41-39.46,57-26.31,24.3-57,30.56-90.94,20.87-19.43-5.56-36.31-16.46-52.61-28.27-9.47-6.86-18.56-14.22-28.34-20.72-22.47-14.91-41.19-12.89-62.06.19s-38,30.81-54.46,49c-13.7,15.18-26.87,30.83-40,46.47-11.64,13.82-23.7,27.24-36.54,40-19.06,18.87-39.33,36.34-62.55,49.91-19.31,11.28-39.87,19.82-62.46,21.45-13.83,1-25.1-4.62-32.48-16.86-5.25-8.72-8.9-18.22-13.2-27.4-6.57-14.07-15.13-27-26.82-37.57-20.87-18.78-45.76-26.69-73.48-27.07-17.34-.23-34,3.1-50.52,8-25.86,7.71-50.25,19.52-76,27.48-23.09,7.14-46.72,11.28-71,10a152.34,152.34,0,0,1-69-20.39c-16.35-9.42-31.27-20.7-45.48-33-19.61-17-40.06-32.81-64.49-42.49A121.26,121.26,0,0,0,316.22,284c-26-1.37-49.89,6.21-73,17.06-22.47,10.54-43.4,23.88-65,36-21,11.76-42.31,22.58-66,28.06C94.46,369.18,77,369.6,59.71,363c-12.8-4.88-24-12.35-34.49-21-15-12.46-29.58-25.43-46.43-35.61-20.72-12.51-42.72-17.25-66.57-13.88-21.09,3-39.9,11.83-58,22.54-.54.32-.69,1.29-1,2" fill="none" stroke="#0058ff" stroke-linecap="round" stroke-linejoin="round" stroke-width="2"/><path d="M1772.21,333c-4.53,5.21-10.74,8.06-16.51,11.47-15.43,9.09-31.82,15.34-50,15.48-19.17.15-35.48-7.23-49.48-20-18.41-16.76-31.91-37.12-43.6-58.94-12.92-24.1-23.38-49.32-35-74-12-25.5-22.88-51.63-39-75-9.7-14.12-20.68-27-36-35.54-21.09-11.81-40.12-9.12-57.51,5.53-15.63,13.17-26.33,30.19-36.42,47.55-12.17,20.93-22.79,42.79-37.12,62.42-11.7,16-25.62,29.37-44.43,37.1-22.33,9.17-44.61,9.15-67,.9-18.81-6.92-35.29-18-51.49-29.51-9-6.35-18-12.53-28.55-15.89-14-4.47-27.11-1-39.46,6-14.77,8.29-27,19.83-38.46,32-23.75,25.18-43.47,53.61-64.69,80.84-16.84,21.61-35,42.16-55.9,60.07-17.21,14.76-35.61,27.79-57,36-10.31,4-20.74,7.39-32,7.55-13.51.2-23.94-5.49-32-16-8.68-11.35-14.22-24.62-22.05-36.47-15.6-23.63-35.1-42.57-62.41-52.64-26.6-9.8-53-10-80.07-2-20,5.9-38.64,14.95-57.45,23.64-19.45,9-39.34,16.44-60.5,20.56-28.14,5.5-55.81,4.42-83-4.66C473.89,352.31,455,340.69,437.18,327c-15.8-12.13-30.16-26-46.46-37.55-20.82-14.72-42.53-27.15-68.49-30.6-22-2.92-42.33,2-62,11.12-20.13,9.37-38.12,22.26-56.5,34.49-22.61,15.05-46,28.71-72.05,36.86-16.83,5.27-34.1,8.3-52,5.19C63.75,343.78,50,336.37,37.23,327c-11.08-8.12-20.66-18-31-27C-9,286.79-24.69,274.27-43.8,267a89.31,89.31,0,0,0-37.49-5.68c-22.87,1.37-43.22,9.49-62.51,21.11a4.88,4.88,0,0,0-2.49,2.53" fill="none" stroke="#0058ff" stroke-linecap="round" stroke-linejoin="round" stroke-width="2"/><path d="M1772,301.5c-14.84,10.05-30.4,18.26-48.22,22.12-23.7,5.13-45,.33-63.94-14.23s-33-33.76-45.11-54.38c-12.9-22.06-23.32-45.35-34-68.52-11.36-24.72-22.18-49.72-35.53-73.48-8.46-15.06-18.2-29.21-31-41-10.39-9.57-22.4-16.52-36.5-18.36-12-1.58-23.59,1.29-34,7.86-19,12-32,29.65-43.92,48-12.63,19.47-23.35,40.13-37,59-11.7,16.11-25.33,29.81-43.55,38.47s-37,11-56.49,6.42c-18.16-4.25-34.2-13.4-50-22.93-10.24-6.18-20.11-12.84-32-16.16-14.53-4.07-27.56-1.09-40,6.19-23.15,13.51-40.12,33.46-56,54.47-15.41,20.37-28.88,42.09-43.57,62.95a493.84,493.84,0,0,1-37.31,46.66,232.56,232.56,0,0,1-45.16,38.84c-13.16,8.66-27.43,15.31-43,17.84-12.18,2-23.58-1.3-33.5-9.25C870,382.28,861.56,369.49,852.73,357c-15.27-21.61-32.55-41.11-55.49-55-18.36-11.16-38-17.77-59.52-19-19.22-1.07-37.07,3.94-54.54,11.44-20.16,8.65-38.38,20.87-57.91,30.69-20,10.07-40.95,17-63.07,19.2a153.09,153.09,0,0,1-77-11.74c-20.17-8.68-38.06-20.78-55-34.55-16.72-13.61-32.37-28.51-50-41-16.69-11.88-34.15-22-54.48-26.61-20.11-4.61-39.08-2-57.53,6.61-17.39,8.16-32.65,19.53-47.48,31.53-21.24,17.17-43,33.63-68.07,44.85-20.87,9.34-42.82,14.89-65.93,12-14-1.75-26.84-7.39-38.5-15.39-14.11-9.69-26.52-21.36-38.5-33.5a217.5,217.5,0,0,0-36-30c-16.68-10.86-34.75-17.2-55-16.57a116.93,116.93,0,0,0-44.93,10.68,119.31,119.31,0,0,0-18.16,9.72,5.12,5.12,0,0,0-2.41,2.64" fill="none" stroke="#0058ff" stroke-linecap="round" stroke-linejoin="round" stroke-width="2"/><path d="M1772.21,1100c.51,2-.47,3.37-2,4.5-19.24,14.3-39.3,27.15-61.48,36.55a244.32,244.32,0,0,1-49,15.08,153.41,153.41,0,0,1-39,2.73,161.81,161.81,0,0,1-51.07-11.7c-19.7-8-36.25-20.75-53.45-32.64-12.57-8.68-25.31-17.17-40-22a82.25,82.25,0,0,0-16.48-3.63c-25.48-2.89-48,6.27-69.94,17.23-21.12,10.56-39.94,24.77-58.08,39.84-17.53,14.57-34.26,30-51,45.5-18.49,17.09-36.19,35.08-57,49.52-13.89,9.64-28.65,17.77-45.52,20.35-21.08,3.22-40.39-.54-56-16.79-13.82-14.35-21.24-31.92-26.32-50.59-4.54-16.69-7.9-33.7-12.18-50.46-3.77-14.74-8.86-29.07-19.51-40.45-7.83-8.38-17.53-12.81-29.42-13.22-16.43-.57-28.61,7.39-40,17.66-11.21,10.09-19.38,22.69-28.5,34.5-3.78,4.89-7.9,9.53-13.05,12.93-9.16,6-19,5.46-28.41,1-13.2-6.31-23.94-16-33.51-26.93-13-14.87-24.1-31.25-36-47-14.88-19.58-31.46-37.6-51.56-51.9-15.12-10.75-32-18.15-50.43-21-28.35-4.44-53.79,3.08-77,19.42-14,9.84-26.5,21.46-39.49,32.51-17.82,15.14-37.33,27.32-60,34.07a150.13,150.13,0,0,1-32.5,6.12c-5.51.39-11,1.11-16.51.76a229.71,229.71,0,0,1-33-4,187.09,187.09,0,0,1-45.92-16.09,281.42,281.42,0,0,1-51.64-34.26c-20.94-17.25-38.92-37.4-57.51-57S302.1,951.36,278.72,937c-13.63-8.38-28-14.65-44-17.06-6.16-.93-12.37-2.07-18.51-1.8A128.65,128.65,0,0,0,161.73,933c-21.23,11.14-39.72,26-57.06,42.42-16.72,15.85-31.28,33.7-47.38,50.12-13,13.25-26.63,25.62-43.64,33.28-12.84,5.79-21.24,5.59-29.89-2.41-5.4-5-8.31-11.74-11-18.45-6.24-15.44-9-32-15-47.49a92.93,92.93,0,0,0-6.86-13.58c-5.76-9.75-15.23-13.67-28.1-8.84-10.54,3.95-19.39,10.75-27.52,18.43-14.09,13.3-26.91,27.8-39.56,42.45-1.58,1.83-1.2,4.21-2.46,6" fill="none" stroke="#0058ff" stroke-linecap="round" stroke-linejoin="round" stroke-width="2"/><path d="M1772.21,268c-2.41,4.38-7.17,5.71-11.07,7.87-11,6.1-22.4,11.49-34.91,14.19-16,3.46-31.75,2.92-47-3.13-16.21-6.43-29.1-17.27-40.64-30.33-23.62-26.74-39-58.18-54-90.05-12-25.64-23.15-51.75-36.94-76.53-10-17.92-21.5-34.8-37.5-48-15.45-12.71-32.88-20.22-53.45-17.54-13.79,1.79-25.45,8.3-36,17-16.58,13.66-28.26,31.3-40.09,48.93-13.8,20.55-26.68,41.83-44.89,59.09-14.53,13.77-31.44,23.17-51,26.81-15.5,2.88-30.72,0-45.48-5.33-12.83-4.6-24.9-10.84-37-17-28.77-14.77-55.59-10.71-81,8-19.62,14.46-33.74,33.64-46.5,54-15.55,24.83-28.38,51.28-44.93,75.54-12.62,18.49-26.19,36.16-42.62,51.4-14.27,13.22-30.17,23.95-48.93,30.11s-35.1,2.17-50-10c-13-10.66-23-24.09-33.48-37-17.69-21.76-37.57-41.19-61.56-55.91a135.78,135.78,0,0,0-50.43-18.7c-26.83-4.2-50.77,2.65-73.6,16.47-15.06,9.13-28.89,20-43.88,29.19a164.68,164.68,0,0,1-50.5,20.61c-14.31,3.22-28.69,3.51-43,2.62-16.48-1-32.33-5.57-47.53-12.26-21.68-9.54-40.77-23-58.5-38.51-14.93-13.08-29.75-26.29-45.05-38.93s-32.09-23.69-51.46-29.51c-24.87-7.49-48.58-4.85-71,8.85-12.9,7.88-24.32,17.47-35.51,27.51-15.5,13.91-30.35,28.56-47.86,40.19-17,11.31-35.09,20-55.12,23.71A85.07,85.07,0,0,1,58.25,290c-12.8-7.86-24.11-17.64-35.11-27.87-15.56-14.47-30-30.16-47.43-42.57C-36,211.12-48.54,204.08-62.8,201.09c-10.38-2.18-20.87-1.89-31.5-.76-17,1.8-32,8.72-46.94,16.25-2,1-4.54,1.9-5.55,4.42" fill="none" stroke="#0058ff" stroke-linecap="round" stroke-linejoin="round" stroke-width="2"/><path d="M1772.21,629c0,.66.28,1.7,0,1.94-12,9-23.31,18.94-36.94,25.59-8.11,4-16.54,6.83-25.52,7.39-14.62.93-26.4-5-36.55-15.37-14.39-14.62-22.57-32.88-30.92-51.07-9.94-21.69-18.77-43.89-30-65-6.74-12.69-14.4-24.64-25-34.5-6-5.58-12.91-9.53-21-10.94-11.28-2-20.52,2.35-28.48,10-8.7,8.33-14.94,18.45-20.49,29-8.34,15.83-15.73,32.13-24.92,47.55-10.35,17.33-22.53,32.69-40.63,42.4-12.47,6.69-25.9,10.31-40,12.16a166.17,166.17,0,0,1-33.5.72,157,157,0,0,1-38.49-7.91c-23.3-7.81-44.83-19.31-65.53-32.43-22.27-14.12-43-30.56-65-45-14.38-9.36-29.29-17.66-45.94-22.65-15.44-4.63-31-5.85-47-5-36.06,1.93-67.88,16-98.46,33.66-24.62,14.19-47.71,30.75-71.08,46.88-26.37,18.19-53.2,35.75-83,48-20.45,8.38-41.57,14-64,14.74s-43.57-2.56-63-14.16a82.22,82.22,0,0,1-31.45-34c-4.67-9.16-9.13-18.47-13-28-10.84-26.78-31.23-40.39-59-45.13a130.25,130.25,0,0,0-45,.31c-18.35,3.26-35.93,9.28-53.08,16.72-13.39,5.81-26.9,11.38-41.42,14.24-19.45,3.82-37.07-.13-53.52-10.62-16.17-10.29-28.62-24.31-40-39.47-12.6-16.71-22.63-35.15-35-52-12-16.36-25.66-30.95-44-40.55a100.2,100.2,0,0,0-57.51-10.91c-32.33,3.19-59.33,18.33-83.43,39-18.53,15.91-36.24,32.78-54.64,48.85-11.93,10.42-24.89,19.46-39.42,26.09-19.56,8.94-38.65,7-57.51-2-12.3-5.9-23.63-13.66-36.48-18.55-21.42-8.14-42.73-7.67-64,.08-27.28,9.93-50.45,26.32-71.5,46-1.52,1.41-3.11,2.79-3.51,5" fill="none" stroke="#0058ff" stroke-linecap="round" stroke-linejoin="round" stroke-width="2"/><path d="M1772.21,755a3.92,3.92,0,0,1-1.44,3.57c-15.49,13-31.8,24.89-51.6,30.27-15,4.07-30.15,4.8-44.46-3.33-8.18-4.64-13.87-11.47-18.55-19.48-9.18-15.74-13.09-33.31-17.89-50.55-4.46-16-8.3-32.14-16-47-5.38-10.32-12.4-19-23.53-23.45-13.1-5.19-25.69-2.95-37.45,4-13.91,8.23-25.28,19.51-36,31.42-12.1,13.39-24.42,26.52-37.86,38.65-10.57,9.53-21.16,19-32.64,27.34-20.15,14.72-41.6,26.58-66.46,31.65-15.61,3.18-30.89,3.1-46-1.69-11.49-3.64-21.7-9.94-31-17.5-13.73-11.2-25.94-24.09-37.9-37.08-14.71-16-30.22-30.73-48.63-42.4-16.74-10.62-34.88-17.73-54-22.44-15.59-3.84-31.53-5-47.49-4.93-38,.17-73.68,9.22-107.08,27.78-20.48,11.38-39.13,25-57,40.07-19.17,16.15-38.26,32.42-60.41,44.64-22.8,12.58-46.94,19.45-73,17.82a156.33,156.33,0,0,1-55.54-14.31c-23.54-10.75-44.54-25.14-64-42.05-14.09-12.24-27.12-25.54-40.54-38.47-11.72-11.3-24.21-21.64-38.89-29.15-11.41-5.82-23.41-9.66-36-9.69-13.47,0-25.62,5.2-36.51,13.25-9.17,6.78-16.88,15.1-25,23a88.34,88.34,0,0,1-22.49,16c-17.29,8.52-34.57,7-51.46-1-20.73-9.84-35.56-26.29-47.95-45-13.87-21-24.68-43.63-36-66C361.06,568.8,350,549.2,335.12,532.08c-13.41-15.49-30.3-26.21-50.44-30.42-20.3-4.25-38.82,1.43-55.44,13.37C211.18,528,197,544.77,183.15,562c-9.34,11.59-19.41,22.59-28.89,34.08A334,334,0,0,1,126.17,626c-11.94,11.29-24.83,21.41-39.48,29-17,8.84-30.76,7.71-46.93-4.53-7.33-5.55-13.94-12-20.59-18.39-10-9.59-21.45-16.9-35-20.52-16-4.29-31.26-1.13-46,5.5-17.31,7.8-32.51,18.76-46.53,31.46-12.06,10.93-24.25,21.72-35,34a14.16,14.16,0,0,0-3.47,5.54" fill="none" stroke="#0058ff" stroke-linecap="round" stroke-linejoin="round" stroke-width="2"/><path d="M1772.21,206c-3.34,4.8-8.82,6.66-13.55,9.4-11.61,6.71-24.11,11.61-37.46,12.95a87.34,87.34,0,0,1-58-14.29c-17.79-11.64-31.74-27-43.93-44.09-11.17-15.68-20.49-32.49-29.58-49.45-14.11-26.31-27.22-53.21-44-78-11.36-16.73-24.43-32.07-41-44-13.22-9.54-27.62-16.43-44-19.11-22.4-3.67-42.11,2.06-60,15.53-17.37,13.06-30.58,30.14-44.9,46.1-13.57,15.13-26.93,30.4-43.06,43-12.79,10-26.49,17.92-42.5,21.55a67.5,67.5,0,0,1-13,2c-5.18.14-10.26.54-15.52.26-14.42-.76-28.26-4-42-7.89-18-5.14-36.4-8-55-6.21-22.6,2.21-42,12.23-58.53,27.79-17,16-28.45,35.82-38.42,56.55-8.54,17.78-15.34,36.33-23.18,54.42-10.39,23.94-22,47.31-40.9,66a83.81,83.81,0,0,1-32,20.07c-14,4.85-27.71,3.52-41-2.14s-25-14.48-35.47-24.48c-17.56-16.76-34.5-34.18-52.13-50.87-19.44-18.4-40.06-35.39-64.46-47a134,134,0,0,0-40-11.74c-28.24-3.84-51.39,6.83-72.46,23.77-12.52,10.06-24.12,21.26-36.64,31.33-14.9,12-31.82,20.68-50.47,24.87-12.71,2.86-25.81,3-39,1.39a139.92,139.92,0,0,1-44-13.15c-15.26-7.26-28.93-16.9-42-27.51-16.71-13.55-31.47-29.21-47.49-43.51-17.49-15.61-35.69-30.2-58-38.45a101.4,101.4,0,0,0-25.46-5.72c-24.49-2.39-44.92,6.95-64,20.7-11.06,8-20.81,17.47-30.51,27-14.39,14.12-28.16,28.91-44,41.46C152.79,233.9,140,241.74,125.22,246a73,73,0,0,1-23.5,3.28,88.58,88.58,0,0,1-45-14.84c-19.13-12.56-35-28.83-51-45-14.3-14.43-28.6-28.81-46.46-39.06-11.27-6.47-23-10.75-36-12-25.65-2.54-48.39,5.44-70,18.12-.07,0,0,.32,0,.49" fill="none" stroke="#0058ff" stroke-linecap="round" stroke-linejoin="round" stroke-width="2"/><path d="M1772.21,724c0,.83.36,2.13,0,2.43-16.07,12.16-31.61,25.22-51.94,30.09-11,2.63-21.8,2.55-32.5-1-11.78-4-19.29-12.79-25.5-23-8.64-14.19-13.5-30-19-45.5-5.83-16.53-12.14-32.83-21-48-5.58-9.49-11.9-18.61-21-24.91-14.41-9.94-29.17-9-43.89,2-11.91,8.91-21.35,20.37-30.5,32a318.57,318.57,0,0,1-29.54,33c-19.37,18.59-40.37,35-65.06,45.87a130.29,130.29,0,0,1-43.44,10.73c-27.78,2-51.47-8.06-73.5-23.6-13.4-9.46-25.91-20-38.5-30.51-25.13-20.88-51.89-38.83-82.94-50.17-26.8-9.79-54.2-14.76-82.56-13.7a220.92,220.92,0,0,0-75,16.48c-29.56,12-56.44,28.54-81.1,48.83-16,13.16-31.95,26.38-49.45,37.56-14.43,9.22-29.4,17.23-46,22.06a139.38,139.38,0,0,1-53,5.13,160,160,0,0,1-60.52-18.62,196.5,196.5,0,0,1-35-24c-18.46-15.68-33.12-34.9-49.57-52.45-14.25-15.2-30.23-28.4-50.92-34-24.63-6.7-47-1.36-67.5,13.43-10.2,7.36-18.23,17.2-28.46,24.55-20.61,14.79-42.85,16-65.08,3.06-21.82-12.67-36.42-31.8-49.45-52.59-13.74-21.9-24.25-45.61-38-67.5a249.85,249.85,0,0,0-22.39-30.1A115.68,115.68,0,0,0,306.2,484c-20.78-11-42.32-13-64.48-4.51-19.75,7.59-35,21.31-48.44,37-17.32,20.23-32.85,41.92-50.91,61.59A225.34,225.34,0,0,1,98.18,616a68.59,68.59,0,0,1-22,9.59c-13.45,3-24.95-2-36-8.59s-20.61-15.5-31.48-22.53c-24.45-15.81-49.3-16.84-75.62-4.57-21.26,9.92-39.75,23.42-57,39-6.49,5.87-12.55,12.13-18.92,18.09a12.63,12.63,0,0,0-4,6" fill="none" stroke="#0058ff" stroke-linecap="round" stroke-linejoin="round" stroke-width="2"/><path d="M1772.21,880c-.19,1,.3,2-1,3.06-22.34,18.45-46.36,33.88-74.54,41.94-12.43,3.55-25.16,5.64-38,4.34-17.76-1.79-31.75-10.59-42-25.32-11-15.74-16-33.74-20.48-52-3-12.57-5.84-25.25-11.52-37-5.06-10.44-11.68-19.37-24-22-7.2-1.54-14.15,0-21,2-16.17,4.89-29.71,14.51-43,24.49-25.67,19.27-49.24,41-73.5,62-27.78,24-56.07,47.32-87.51,66.49-13.59,8.3-27.84,15.69-43.53,18.27-25,4.11-43,1-58.92-28.79-7-13.07-11-27.31-15-41.47-6.38-22.1-12.86-44.15-26-63.52-12.76-18.84-30.53-30.38-52.55-34.81-13.44-2.7-27.15-2.65-41-1.35-33.78,3.16-62.48,17.67-89,37.67-15.22,11.49-29,24.59-42.52,38-12.49,12.37-25.25,24.46-40.49,33.5-14.31,8.5-29.47,13.29-46.49,12.16-18.43-1.23-35-7.51-51-16.08-21.29-11.38-40-26.43-59-41-23.09-17.76-45.52-36.42-69.56-52.91-17.89-12.26-37.1-22.35-58.47-26.93-18.36-3.94-35.5-.14-50.48,11.82-10.86,8.67-19.57,19.43-29.08,29.43-12.07,12.7-25.61,23.43-42.88,28.67a87.25,87.25,0,0,1-35,3.1c-28.95-3-51.37-17.4-71-37.65-22.6-23.29-37.62-51.41-52-80-9.51-19-18.51-38.17-30.89-55.57C321.38,667.2,311,655.19,296.71,647c-17.62-10.11-36.16-11.22-54.95-4.39-17.08,6.21-31.61,16.81-45,28.9-24.07,21.66-45.3,46-67.09,69.91-18.82,20.64-38.17,40.84-61.95,56-5.83,3.73-11.79,7.32-18.45,9.59-9.7,3.3-17.59,1-24.57-6.48-7.93-8.43-12-19-16.88-29.09-4.37-9.15-9.06-17.92-16-25.53-12.53-13.77-29-15.65-46.07-8.92-19.31,7.63-35.3,20.27-50.48,34q-20.07,18.15-38.58,37.92c-1.72,1.83-2.49,3.93-3.45,6.06" fill="none" stroke="#0058ff" stroke-linecap="round" stroke-linejoin="round" stroke-width="2"/><path d="M1772.21,1259c.19,2.06-.3,3.18-2.39,4.65a243.17,243.17,0,0,1-38.58,22.4,175.07,175.07,0,0,1-60.52,16c-26.07,1.91-50.69-4.4-75-12.59-23.69-8-46.13-19.23-70-26.75-21.35-6.73-43.08-11.06-65.51-10.65-22.83.42-44.6,5.75-65.52,14.89-26.33,11.51-48.65,28.55-69,48.51-10.61,10.4-20.39,21.6-31.43,31.57a136.27,136.27,0,0,1-54.39,30.47c-12.36,3.6-24.19.94-36.15,2.5-7-4.49-15.42-4.69-23-7.41-21.79-7.79-41.36-19.38-59.44-33.62a351.6,351.6,0,0,1-35.61-32.89c-11.74-12.2-23.72-24.26-38.42-33.08-5.53-3.32-11.21-6.52-17.51-7.93-13-2.9-21.62,3.92-28.48,13.93-4.2,6.14-7.86,12.73-12.6,18.42-12.56,15.06-25.86,17.29-44.35,10.42-14.09-5.23-25.17-15.12-35.08-26.32-16.09-18.19-28.14-39.24-41.92-59.06-8.23-11.82-16.8-23.32-27.07-33.45-12.61-12.45-27.46-21-45-23.86a88.21,88.21,0,0,0-31.47,1.11c-26.78,5.4-49.23,19.22-70,36.24-17.41,14.25-33.35,30.23-52,43-17.79,12.24-37,20.83-58.55,23.36-13.06,1.53-26.09.26-39-2.4-34.18-7-63.42-24.15-91.56-43.93-29.22-20.53-56.25-43.88-84.92-65.11-27.18-20.12-55.25-38.72-87-50.94-20.24-7.79-41.2-12.29-63-12-26.89.36-50.77,8.79-69.92,28.07-13.44,13.53-22.17,30.21-29.15,47.88-5.4,13.67-10.43,27.51-18.36,40.07-5.42,8.61-12.11,15.9-21.14,20.33-12.24,6-24.91,5.58-37.44.14-11.78-5.1-21.75-12.8-31-21.53-18.23-17.23-33.17-37.28-48.58-56.93a153.58,153.58,0,0,0-19.38-21.11c-8.75-7.66-19-9.3-30.11-3.56-9.91,5.12-17.45,12.82-24.88,20.68-6.16,6.52-11.75,13.58-17.56,20.44-4.2,5-8.23,10.1-12.55,15-2.37,2.66-3.37,5.83-4.46,9" fill="none" stroke="#0058ff" stroke-linecap="round" stroke-linejoin="round" stroke-width="2"/><path d="M1772,660c-.51.42.77.77-.19,1.56-15.33,12.69-30.64,25.16-50.52,30.55-18.55,5-33.72.28-47.09-13.06-14-14-21.88-31.64-29.78-49.13-9-19.85-17.2-40.07-27.35-59.32-6.72-12.74-14.71-24.85-26.78-33.65-16.69-12.18-31.93-9.68-45,2.56-9.65,9-16.59,20.09-23,31.49-11.26,20-22.15,40.23-38.93,56.58a118.54,118.54,0,0,1-61.13,32.2,144.32,144.32,0,0,1-51,.43c-24.8-4-47.41-13.41-69.46-24.73-17.61-9-34.06-20-50.52-31-20.69-13.77-40.89-28.35-63.49-39a152.21,152.21,0,0,0-62-14.62c-23.61-.58-46.41,3.81-68.42,11.36-22.54,7.72-43.72,18.71-64.13,31.19-25.44,15.55-49.26,33.44-74,50-17.63,11.83-35.88,22.61-55.44,31.11-26.1,11.34-53.24,16.43-81.51,13.33-39.06-4.28-69-23.42-89-57.43-7.34-12.5-13.4-25.79-22.13-37.41C657.81,575.3,639.3,566.36,617.72,563c-30.23-4.74-57.59,4-84,17.47-10.42,5.33-20.48,11.29-31.42,15.68-14.73,5.91-29.42,8.25-44.54,2.32-12.76-5-23.64-13.05-33.5-22.46-17.33-16.55-30.34-36.45-42.92-56.55-11.21-17.92-21.74-36.3-36.17-51.88s-31.37-27.85-52.9-32.67c-21.24-4.75-41.63-2.61-61.51,5.64-19.1,7.92-35.47,20-50,34.52-16.73,16.78-32.9,34.1-49.61,50.9-12.37,12.44-26.07,23.33-42,31-15.27,7.36-31.12,7.35-47,2-13.56-4.58-25-13.35-37.55-19.88-22.68-11.77-45.91-14.71-70.53-5.22-25.41,9.8-47.29,24.79-67.38,42.72-4.92,4.38-10.84,8-13.56,14.44" fill="none" stroke="#0058ff" stroke-linecap="round" stroke-linejoin="round" stroke-width="2"/><path d="M1772.21,1164c.39,2.27-.4,3.62-2.44,5.08-18.35,13.21-37.54,24.88-58.55,33.43a238.16,238.16,0,0,1-42,12.63,149.43,149.43,0,0,1-40.52,2.69c-20-1.35-39.24-6.3-58-13.28-22.58-8.38-43.63-20.17-66-29.09-13.79-5.51-27.91-10.07-42.54-12.27a119.36,119.36,0,0,0-32-.37c-26.08,3.12-49.37,13.25-71.45,26.71-21,12.81-39.85,28.43-57.51,45.48-17.47,16.86-33.7,35-52,51-12.92,11.22-26.8,20.69-43.41,26.21-19.93,6.63-39.17,5.16-58-2.78-21.27-9-37.39-24.47-51.62-42.33-11.77-14.78-20.05-31.37-27.47-48.55-4.59-10.63-9.51-21.09-16.38-30.57-6.1-8.4-13.39-15.3-23.11-18.84-14.39-5.24-25.17-.77-35.84,11-8,8.77-14.92,18.46-22.08,27.92-4.7,6.21-10.38,11.28-17.59,13.83-9.53,3.37-18.46.31-27-4.35-13.6-7.45-23.49-18.89-32.4-31.08-11.94-16.34-21.08-34.48-32.1-51.43-12.63-19.43-27.66-36.64-47.55-48.92a100.12,100.12,0,0,0-40.93-14.21c-26.75-3.29-50.18,5.15-72.53,18.6-17,10.2-32,23-48,34.51-19.28,13.86-39.14,26.59-62,34.11a169,169,0,0,1-29.51,7.06,149.07,149.07,0,0,1-31,.62,167.42,167.42,0,0,1-47.48-10.86c-29.31-11.11-55.73-27.42-80.52-46.44-16.9-13-33.06-26.85-49.07-40.91-19.8-17.4-39.66-34.77-61.94-49.07-18.07-11.61-37.35-20.57-58.54-24.31a125.63,125.63,0,0,0-38.48-.31c-29.46,3.91-54.1,17.56-77,35.54-20.83,16.32-36.5,37-52,58.06-9.45,12.83-19.68,25-33.5,33.47-5.46,3.34-11.38,6-18,6a33.94,33.94,0,0,1-19.44-6c-11.56-7.78-19.91-18.55-27.11-30.38-5.88-9.65-9.5-20.27-13.94-30.54-3.18-7.36-6.54-14.69-11.58-20.94-7.64-9.47-17.81-11.45-31.92-3.54-10,5.59-17.81,13.79-25.43,22-8.81,9.55-17,19.68-25.63,29.39a25.32,25.32,0,0,0-5.95,10" fill="none" stroke="#0058ff" stroke-linecap="round" stroke-linejoin="round" stroke-width="2"/><path d="M1772,818c-.34.63.83,1.16-.2,2-14.23,12.13-29.48,22.67-46.55,30.44-16.21,7.38-33.33,10.61-51,8.83-13.69-1.38-24.13-8.82-32.12-20.25-9.27-13.27-14-28.19-17.92-43.57-4.45-17.47-6.84-35.45-13-52.51-3.78-10.5-8.78-20.2-18.53-26.46-6.58-4.22-13.9-4.85-21.48-3.54-16.87,2.94-29.67,13.38-42.44,23.58-20.49,16.37-39.09,34.88-58.58,52.4-24.12,21.67-48,43.67-75.92,60.61-14.18,8.59-28.93,15.65-45.07,19.34-18.41,4.2-36.64,4.84-53.48-5.93-12.36-7.9-20.78-19.39-28.5-31.5-8-12.6-14.77-25.94-22-39-14.28-25.87-33-47.39-60.06-60.41a131.72,131.72,0,0,0-35.43-10.78,160.29,160.29,0,0,0-39-1.56,188.83,188.83,0,0,0-66.1,17.59c-28.74,13.43-53.3,32.41-76.44,53.65-15.93,14.61-32,29.15-50.49,40.5-13,7.95-26.67,14-42,16.07-22.55,3-44-.41-65-8.95-26.28-10.66-49.29-26.55-72-43.1-20.31-14.84-38.85-31.86-58.57-47.42-17.33-13.68-35.58-25.59-57.36-31.82-19-5.45-35.65-1.87-51,9.35-8.27,6-15.26,13.69-22.09,21.38-12.41,14-26.24,25.8-45,30.56-14.83,3.77-29.26,2.52-43.51-2.55a98.69,98.69,0,0,1-34.54-21.46c-22.62-21.14-37.16-47.66-50.46-75-6.71-13.81-13.21-27.72-20-41.48-8.76-17.68-18.67-34.67-32.49-49-10.93-11.32-24-19.3-39.49-22.43-13.74-2.78-27,.18-39.44,6-18.56,8.69-33.42,22.43-47.49,37-9,9.23-17.41,18.92-26.05,28.45-15.13,16.7-29.61,34-45.48,50-16.3,16.46-33.51,31.64-54.51,42-12.31,6.08-25.63,4.82-35.53-5-7.14-7.09-12.92-15.21-18.48-23.52-8.16-12.21-18.1-22.53-32-27.91-15-5.78-29.56-2.33-43.42,4-19.19,8.77-35.42,22-51,35.92-11.08,9.9-21.53,20.46-32.06,30.94a19.88,19.88,0,0,0-5.46,8.55" fill="none" stroke="#0058ff" stroke-linecap="round" stroke-linejoin="round" stroke-width="2"/><path d="M1772.21,236c-5.61,5.85-13.09,8.77-20,12.42a93.16,93.16,0,0,1-30,9.83,87.78,87.78,0,0,1-23,.52c-26.27-3.13-45.51-17.32-62.53-36.21-21-23.33-35.32-50.69-49-78.55-14.82-30.28-27.75-61.6-47.08-89.45-13.43-19.35-29.23-36.33-50.85-47.18a73.33,73.33,0,0,0-42-7.7c-12.37,1.42-23.51,6.89-33.51,14.34-16.8,12.49-30,28.34-42.56,44.94-11.29,15-22.21,30.25-35,44-15.44,16.63-33.2,29.76-55.45,36.08-19.32,5.48-38.14,3.93-56.49-3.61-11.13-4.58-21.9-10.05-33.52-13.45a88.18,88.18,0,0,0-48-1c-24.48,6.46-43,21.5-58.53,40.95-17,21.28-28.72,45.52-39.92,70-10.44,22.88-20.69,45.83-36.08,66-13.12,17.16-28.31,32.17-47.52,42.44-9.44,5-19.5,8.84-30.46,9.07-13.36.27-25-5-35.44-12.55-11.82-8.55-21.6-19.35-31.58-29.91-22.35-23.64-44.86-47.11-72-65.52-17.11-11.61-35.63-20.31-56-23.85-23.9-4.16-46.57.3-67.47,12.85-15.49,9.31-28.91,21.33-43.05,32.44-14.3,11.23-29.74,20.35-47.41,25.71-14.3,4.34-28.79,6.68-43.54,5.71-29.73-2-56.49-12.47-81.07-29.28-21-14.39-38.87-32.38-57.45-49.57C379.12,200.18,362,185.57,341.21,176a104.48,104.48,0,0,0-35-9.63c-25.19-2.16-46.49,7-66,21.65C225.76,198.93,213,211.75,200.7,225c-18.68,20-39.23,37.58-65.51,46.94-7.69,2.74-15.79,3.74-23.94,4.82-13,1.74-25.1-1-37-5.3C61.84,267,51.35,259.22,41.22,251,27.46,239.81,15.28,227,2.7,214.51c-10.87-10.76-22.14-21-35-29.54-12.09-8-24.91-13.73-39.51-15.55-27.3-3.4-51.59,4.69-74.49,18.6-.27.16-.35.64-.52,1" fill="none" stroke="#0058ff" stroke-linecap="round" stroke-linejoin="round" stroke-width="2"/><path d="M-146.29,529c.45-1,.51-2.18,1.49-3,19.49-16.71,40.2-31.5,64.53-40.45,11.76-4.33,23.85-7.38,36.48-7.52,15.53-.17,30,4.07,44,10.44,11.22,5.09,21.44,12,32.92,16.7,20.66,8.44,40.29,6.27,59.55-3.68,22.4-11.57,41.59-27.69,61-43.46,20.39-16.54,40.64-33.21,64.93-44.13,14.17-6.36,28.56-11.23,44-12.94,18.06-2,35.62-1.14,53.06,4.9,18.64,6.45,33.33,17.93,46.5,32.11,12.35,13.3,21.29,29.05,31.82,43.64,12.15,16.84,25.05,32.87,42.18,44.83,16.41,11.47,34.51,17.19,55,15.74,16.92-1.2,32.72-6.27,48.45-11.75,15.36-5.35,30.78-10.55,46.57-14.26a167.68,167.68,0,0,1,52.45-4c15.3,1.3,30.18,4.75,43.57,13.24,12,7.64,18.82,18.86,24,31.58,5.49,13.57,8.52,28.09,16.88,40.57,11,16.38,26,26.2,45.08,30.48,18.22,4.09,36.21,3.24,54.55.16,24.67-4.15,47.21-13.55,68.93-25.26,27.84-15,53.28-33.73,79.05-51.92,26.34-18.59,52.71-37.08,81.94-51.12,17.81-8.55,36.15-15.57,55.57-18.73,27.73-4.51,54.21-.59,79,13.7C1206.61,506,1224,519.75,1241.72,533c21.38,15.93,43.36,31,67.52,42.45,16.84,8,34.34,13.89,53,16.69,22.52,3.39,44.43,2.18,66-5.11,17.85-6,31.91-17,43-32,12.34-16.74,20.5-35.7,29-54.47,7-15.26,13.83-30.6,24.92-43.56,8.89-10.39,19.44-16.61,33.52-13.9,11,2.12,19.28,9,26.45,17,15.23,17,24.63,37.5,34.07,57.95,10.74,23.29,19.84,47.35,32,70,7.24,13.44,15.42,26.18,28,35.54,13,9.72,27.1,11.75,42.53,7,14.31-4.38,26.21-12.83,38-21.59,4-3,7.63-6.37,11.56-9.41a2.56,2.56,0,0,0,1-2.55" fill="none" stroke="#0058ff" stroke-linecap="round" stroke-linejoin="round" stroke-width="2"/><path d="M212.71,956.75a114,114,0,0,1,43,7.73c23.18,9,42.9,23.37,61.51,39.5,21.94,19,41.68,40.36,63.48,59.52,23.17,20.37,47.83,38.49,76,51.54a220.78,220.78,0,0,0,49,16.1,160.63,160.63,0,0,0,44,2.63,157,157,0,0,0,48.08-11.62c22.47-9.19,41.62-23.17,60-38.63,14.8-12.47,30-24.35,47.45-33.09,18.39-9.2,37.94-12.2,58-10.27,28.83,2.78,51.64,17,71.18,38.18,19.72,21.33,35.43,45.47,51.77,69.2,7.92,11.49,16.45,22.34,27.06,31.46,7.19,6.18,15.35,11,24.54,12.8,8.69,1.74,16.5-1.78,23-7.82,7-6.56,12.1-14.64,17.59-22.43,7.27-10.3,15.46-19.88,26.44-26.53,6.11-3.7,13-6.14,20-5.82,11.19.52,21.23,4.74,29,13.3,9.31,10.24,14.49,22.68,19,35.49,6,16.9,9.55,34.62,17,51,12.24,26.79,29.78,48.21,58.93,58.1,20.32,6.89,39.62,4.19,58.51-4.61,16.28-7.59,30-18.85,43-31,21.06-19.77,41.28-40.43,63-59.45,22.41-19.58,45.87-37.69,73-50.51,14.36-6.8,29.32-12.08,45-14.36,19.58-2.85,38.33,1,56.52,8.76,16.11,6.89,31.16,15.68,46.5,24,20.39,11,41.49,20.4,64.44,25.18a172.25,172.25,0,0,0,45,3.79c12-.68,23.85-3.15,35.51-6.35,33.35-9.12,63.17-25.1,90.54-46,1.71-1.3,2.87-2.37,2.45-4.56" fill="none" stroke="#0058ff" stroke-linecap="round" stroke-linejoin="round" stroke-width="2"/><path d="M-146.79,720a15.07,15.07,0,0,1,4-7c18.87-18.58,37.56-37.4,59.49-52.5,12-8.27,24.55-15.45,39-19.12,19-4.84,35.36-.07,50.58,11.51,10.32,7.84,17.24,18.75,26.35,27.67C39.79,687.6,47,694,57.2,696.06c7.16,1.48,13.87-.37,19.93-3.24,12.22-5.77,23.18-13.65,33.62-22.28,11.86-9.81,22.53-20.82,32.89-32.11s20.21-23.15,30.17-34.85c13.3-15.63,26.71-31.24,42-45,10.94-9.86,22.75-18.62,36.93-23.59,20.08-7,39.06-4.6,57,6.53,18.38,11.41,30.68,28.42,41.42,46.54,12.93,21.83,22.52,45.4,34.11,67.94,11.27,21.91,23.58,43.14,41.49,60.5,13.81,13.39,29.95,22.78,49,25.86a59.15,59.15,0,0,0,43.91-10,131.41,131.41,0,0,0,25.23-22.76c9.19-10.66,20-19.91,33.36-25.07,14.41-5.55,28.83-3.61,43,1.45,17.24,6.16,32.14,16.34,45.94,28.05,14.94,12.67,29,26.42,44.16,38.81,23.14,18.92,47.48,36.21,74.91,48.61a161.09,161.09,0,0,0,44,12.94c28.59,4,54.89-3,79.49-17.44,15-8.79,28.46-19.61,41.49-31,20.8-18.19,41.53-36.41,65.48-50.54,19.06-11.24,39.08-20.1,60.56-25.34a202.83,202.83,0,0,1,30.45-4.83,211.11,211.11,0,0,1,27.52-.65,159.52,159.52,0,0,1,56,12.31c19,8.06,35.24,19.89,49.4,34.63,10.81,11.26,19.52,24.25,28.57,36.94,8.48,11.88,17.13,23.69,27.57,33.92,9.35,9.15,19.9,16.84,32.94,20a81.37,81.37,0,0,0,25,2.35c28.82-1.85,52.89-14.78,75.93-30.38,12.77-8.65,24.55-18.63,36.08-28.89,18.17-16.15,35.45-33.22,53.1-49.9,13.1-12.38,26.19-25,42.33-33.71,6.67-3.61,13.72-6,21-6.21a28.75,28.75,0,0,1,20.53,7.75c9.77,8.85,14.45,20.45,18.49,32.53,5.1,15.22,7.78,31.06,12,46.5,4,14.5,8.65,28.66,16.86,41.57,11.32,17.79,28.16,23.17,47.59,21.25,24.86-2.46,45.79-14.58,65-29.89,3-2.43,7.37-3.84,8.31-8.42" fill="none" stroke="#0058ff" stroke-linecap="round" stroke-linejoin="round" stroke-width="2"/><path d="M1363.21-49c-8.91,5.74-16.47,13.17-24.45,20.05-17.84,15.36-35.42,31-55.56,43.43-16.94,10.42-35.09,17.43-55,20.11-22.72,3.06-44.89.31-67-4.55-21.4-4.7-42.92-9-65-7.49-25,1.69-46.74,10.68-63.49,30C1020,67.18,1012,84.42,1005.11,102.46c-7.59,20-12.74,40.78-20.91,60.53-6.9,16.68-14.36,33-27.48,46-16.73,16.55-36.39,20.14-58.51,13.53-15-4.47-27.73-12.81-40-22.06-16.71-12.64-31.37-27.6-46.53-42-21.89-20.76-43.59-41.77-68.52-59-17.3-11.92-36.08-20.79-57-23.94-21.81-3.29-41.67,2.09-59,15.93-11.37,9.11-21,20-30.55,31-14.82,17.09-31.31,31.7-53.43,39.15-22.9,7.72-45.27,5.71-67.52-1.7-24-8-44.07-22.58-63.06-38.89-14-12-26.62-25.42-40.5-37.5C358,71.22,343.55,59.45,326.27,51.38,301.93,40,277.6,38.81,252.71,49,235,56.24,220.33,68,206.78,81.07c-11.33,11-21.89,22.77-33.12,33.87-10,9.86-20.44,19.19-32.46,26.53-28.06,17.14-56.5,19.44-86.07,3.18-13.62-7.48-25.22-17.27-36.35-27.72C4.53,103.53-8.48,88.83-23.31,76S-54.07,51.9-73.78,47.49c-21.65-4.84-42.13-.38-61.94,8.15-3.82,1.64-8.17,2.88-11.07,6.36" fill="none" stroke="#0058ff" stroke-linecap="round" stroke-linejoin="round" stroke-width="2"/><path d="M1336.21-49c-10.47,7.22-19.93,15.75-30,23.51-19.6,15.11-40.08,28.69-64,35.93A146.14,146.14,0,0,1,1185.72,16c-19.75-1.86-38.79-7.35-58-11.89-16.41-3.87-33-6.7-50-6-32.29,1.26-57,15.55-73.46,43.5-10.57,18-16.9,37.71-23,57.49-6.67,21.59-13.29,43.21-25.57,62.46-7.3,11.44-16.49,20.89-29.46,26-14.83,5.89-29.7,4.17-43.94-1.19-17.39-6.55-32.4-17.32-46.6-29.28-19.33-16.29-36.9-34.45-55.52-51.49C762,88.89,743.86,72.08,722.73,59c-14.88-9.24-30.59-16.19-48-19q-33.59-5.38-59.48,16.55C602,67.77,591.85,81.82,580.56,94.87c-16.8,19.41-37.09,34.09-63.37,37.47-17.18,2.21-34.12-.28-50.48-6.32-22.5-8.31-41.56-21.92-59.56-37.45-13.77-11.88-26.35-25-39.93-37.08-16.8-14.9-34.34-28.77-56-35.93C286,7.23,261.8,10.21,238.72,23c-17.25,9.57-31.27,23-45.11,36.89-17.17,17.19-33.13,35.72-53.85,49.17-30.43,19.77-61,20.68-92,1.93-13-7.85-24.12-18-35-28.53C1.3,71.41-9.7,59.89-21.35,49.07-34.74,36.62-49.09,25.6-66.75,19.39c-16.5-5.81-32.88-5.28-49.54-1.42a124.79,124.79,0,0,0-30,11.53" fill="none" stroke="#0058ff" stroke-linecap="round" stroke-linejoin="round" stroke-width="2"/><path d="M1309.21-49c-6.83,4.66-13.71,9.27-20.49,14-20.59,14.39-42.6,25.65-67.51,30.49-26.21,5.09-52,2.34-77.47-4.6-19.35-5.27-38.3-12.1-58-15.82-18.06-3.4-36.08-3.92-54,1.82-15.58,5-27.8,14.07-37.5,27.07-12,16.14-18.79,34.68-25,53.53-4.92,15-9.07,30.3-15,45-5.78,14.39-12.72,28.09-24.06,38.95-12.33,11.82-27.32,15.36-44,13.05-19.75-2.75-36.29-12.52-52-24a329.82,329.82,0,0,1-35.06-29.94q-16.71-16.29-34-32c-16.79-15.36-33.35-31-52.51-43.48C696.47,14.52,679.39,6.24,659.73,3.87c-20-2.41-37.42,2.42-53.07,15.06C593.87,29.26,584.35,42.36,574.2,55c-13.64,17-28.91,31.9-50,39.54a84.76,84.76,0,0,1-37.5,4.41c-25.63-2.53-47.67-13.79-68-28.93-16.16-12-30.61-26-45-39.95-13-12.55-26.54-24.46-42-34-17.44-10.85-36.26-17.19-57-15.92-19.32,1.18-36.51,8.57-52,20-15.09,11.1-28.44,24-41.18,37.82-15,16.17-30.45,32-49.84,43.16C104,97,76.23,97.4,48.18,81.56,36,74.69,25.33,65.93,15.28,56.43,4.66,46.39-5.23,35.59-15.85,25.56-26.18,15.8-36.65,6.12-48.78-1.52c-14.23-9-29.54-14.76-46.5-14.38-18.21.41-35.38,5.39-51.51,13.9" fill="none" stroke="#0058ff" stroke-linecap="round" stroke-linejoin="round" stroke-width="2"/><path d="M1772.21,174a107.53,107.53,0,0,1-50.49,22.52c-27,4.5-49.5-5.32-70-21.55-22.53-17.86-38.63-41.2-53.94-65-17.24-26.84-32.38-55-51-81-16.76-23.32-36-43.85-62.07-56.92-16.77-8.41-34.65-13-53.46-11.41-17.25,1.45-32.67,8.12-46,19.34-10.86,9.13-20.43,19.57-30.46,29.55-14.82,14.75-29.62,29.55-46.55,41.94-15.23,11.14-31.11,21-50,25.08-12.57,2.71-25,4.17-38,3.27-15.8-1.08-31-4.86-46.43-7.59-14-2.49-28.06-3.66-42-2.5a97.24,97.24,0,0,0-56.52,23.76c-17.31,14.94-28.71,34-38,54.51s-16.14,41.76-24.64,62.44c-9.31,22.65-19.34,45-37.37,62.56-12.68,12.33-27.53,19.37-45.5,18.45-10.92-.55-21-4.38-30.5-9.47-17.66-9.4-32.33-22.69-46.45-36.54-19.45-19.09-38.62-38.46-59.59-55.9-18.7-15.56-38.48-29.29-61.93-37.16-13.91-4.67-28.06-7.09-42.52-5.72-15.33,1.45-29.08,7.63-41.55,16.79s-23.14,19.8-34,30.53c-11.77,11.64-24.74,21.6-39.93,28.6a110.51,110.51,0,0,1-31.53,9c-22.59,3.12-43.91-1.38-64.49-10.15-20.75-8.85-38.72-22.13-55.47-37-15.6-13.86-30.51-28.5-46.12-42.37-14.92-13.26-31-24.89-49.95-32a94.46,94.46,0,0,0-25-5.66c-28.5-2.62-51.73,9-73,26.15-18.61,15-33.83,33.5-51,49.95C165.63,191.08,154,200.94,140.22,208a92.79,92.79,0,0,1-31.48,9.69c-19.57,2.38-36.76-3.5-53-13.27-15-9-27.56-21.25-40-33.42C1.44,157.09-11.93,142.25-27.75,130c-12.51-9.73-26-17.42-41.55-20.91-10.74-2.4-21.58-2-32.5-.62-16.1,2-30.65,8-44.49,16.08" fill="none" stroke="#0058ff" stroke-linecap="round" stroke-linejoin="round" stroke-width="2"/><path d="M1174.21,1380c-8.69,1.77-14.4-4.51-20.94-8.1-21.26-11.67-39.91-27-58.07-42.89-14.58-12.78-29.62-25-47.52-32.93a40.4,40.4,0,0,0-13.46-3.64c-11.74-.84-18.82,5.83-25.07,14.51-3.93,5.44-7.32,11.22-11.34,16.62-11,14.72-25.19,18.36-42.08,14.13-17.16-4.3-30.67-14.39-42.55-27.17-17.65-19-30.83-41.22-46-62-9.29-12.72-19-25.06-31.42-35.07-17.5-14.13-37-20.08-59.55-17.1-26.39,3.48-48.18,16-68.49,32.13-15,11.89-28,26-42.48,38.52-15.19,13.1-31.34,24.6-50.52,31.24-22.94,7.93-46,6.66-69,.47-26.22-7.07-49.37-20.45-71.49-35.75-31.11-21.53-59.67-46.43-90-69-22.79-16.93-46.21-32.77-71.94-45.12-21.52-10.33-43.87-17.53-67.57-19.75-22.46-2.1-44.1.88-63.51,13.83-16.08,10.74-26.93,25.75-34.31,43.11-6.94,16.33-11.88,33.52-18.84,49.85-6.67,15.64-16.18,29.23-33.82,34.61-13.13,4-25.5,1.56-37.49-4.06-13.51-6.34-24.82-15.77-35.51-26-16.66-15.93-31.62-33.42-46.59-50.92-7.42-8.67-15.13-17.17-23.9-24.59-15.7-13.29-29.09-12.14-45-.44-9.76,7.18-17.47,16.54-25.49,25.5-7.72,8.63-15.13,17.55-22.49,26.5a18.94,18.94,0,0,0-4.56,9.46" fill="none" stroke="#0058ff" stroke-linecap="round" stroke-linejoin="round" stroke-width="2"/><path d="M1153.21,1380c-3.21,0-6-.25-9.11-2.34-19.88-13.31-38.33-28.62-58.42-41.61a143.27,143.27,0,0,0-30.45-15.09c-15.38-5.39-26.31-1.92-36.05,11.51-4.43,6.11-8.13,12.66-12.85,18.62-12.46,15.76-28.54,18-46.61,13.63-16.52-4-29.41-14-40.94-25.79-16.95-17.3-30-37.71-44.49-57-11.13-14.84-22.6-29.27-37.6-40.42-13.16-9.79-28-15.28-44.47-14.92-18,.39-34.87,5.58-50.48,14.44-20.45,11.62-37.31,27.7-53.51,44.48-14.92,15.45-30.47,30.06-49.51,40.49-21.44,11.75-44.06,14.79-68,10.3-22.21-4.16-42.29-13.37-61.47-24.84-21.47-12.85-41-28.48-60.51-44-26.5-21-52.64-42.47-81-61-22.39-14.6-45.79-27.24-71.51-35-19.72-5.92-39.76-9.09-60.49-6.6-28.1,3.37-47.46,18.65-60.51,43-7.87,14.71-11.63,30.89-17,46.51-3.28,9.57-6.56,19.09-11.48,28-15.74,28.56-43.59,33.69-70.55,21-17.4-8.19-31.76-20.41-45.48-33.54-20.11-19.25-38.26-40.39-58-60a122.19,122.19,0,0,0-20.51-17c-12.75-8.06-25.75-7.65-38.44,0-12,7.25-21.13,17.82-30.47,28-8.79,9.57-17,19.66-25.6,29.42-2.47,2.8-3.55,6.08-4.47,9.53" fill="none" stroke="#0058ff" stroke-linecap="round" stroke-linejoin="round" stroke-width="2"/><path d="M1399.21-49c-7.59,1.2-13.9,5.29-20,9.56C1365.91-30,1354.67-18.07,1342.73-7c-16,14.86-32.1,29.58-50.51,41.5-14.37,9.31-29.82,16.4-46.54,19.81-15.46,3.15-31.17,3.2-47,1.34-13.67-1.61-27-5.15-40.5-7-15.88-2.21-31.91-4.39-48-2.08-26.17,3.76-47.86,15.27-64.65,36.33C1033,98.66,1024.89,116.55,1017.8,135c-8.2,21.36-14.38,43.49-23.69,64.42-7.29,16.41-15.8,32.21-29.4,44.54-11.62,10.55-25.36,16.09-41,15.36-13.57-.64-25.9-5.9-37.52-12.84-17.27-10.31-32.11-23.68-46.41-37.59C822.38,192,805,175,786.67,159.05c-16-13.91-32.77-26.79-52-36a128.34,128.34,0,0,0-39.94-11.78c-22.82-2.82-42,4.56-59.51,18.21-11.69,9.12-21.41,20.24-31.57,30.93-16.19,17-34.76,30.65-58,36.47-12.62,3.16-25.46,3.19-38.49,1.72-28-3.18-51.42-16.22-73.51-32.6-14.11-10.45-26.78-22.49-39.48-34.53-16-15.18-32.1-30.27-51-42C330.53,81.51,317,75.66,302.19,73.66a86.65,86.65,0,0,0-49.95,7.89c-16,7.72-29.84,18.58-42.53,30.94-16.13,15.7-30.76,32.94-48,47.46-12.33,10.38-25.61,19.11-41.44,23.64-19,5.42-37.08,4-55.06-4-18.93-8.41-33.83-22-48.44-36.1C2.9,130.15-10,115.88-24.79,103.5-38.84,91.69-54.07,81.93-72.3,78.07c-13-2.75-26-2.08-39,.85-12.39,2.78-23.83,7.76-35,13.58" fill="none" stroke="#0058ff" stroke-linecap="round" stroke-linejoin="round" stroke-width="2"/><path d="M1772.21,693c-.35.62.43,1.28-.46,2-11.08,9.54-22.63,18.38-36,24.44-16.1,7.27-32.61,9.72-48.93,1.39-12.59-6.43-20.59-17.69-27-29.9-10.11-19.25-17.56-39.73-26.77-59.37-8.67-18.49-16.83-37.62-32.79-51.6s-32.9-14.26-49,0c-13.41,11.89-22.36,27.22-32,42-19,29-43.6,51.53-75.54,65.42a130.29,130.29,0,0,1-56.46,11c-16.71-.51-32.69-4.91-48-11.47-23-9.86-43.66-23.84-64.53-37.43-26.33-17.13-52.44-34.63-81-48a165.9,165.9,0,0,0-60-15.48c-33.21-2.18-64.74,4.45-95.57,16.78-28.11,11.25-53.65,26.73-78.39,43.75-22,15.13-42.71,32.05-65.57,45.89-18.21,11-37.19,20.29-58.46,24.09-35.33,6.32-68.74,1.06-100-16.6C716.44,689,700.92,673.75,687.68,656c-10.86-14.53-20.93-29.74-34-42.51-22.08-21.6-48.35-28.4-78.5-22.61-19.43,3.73-35.72,13.4-51.53,24.53-9.84,6.92-19.49,14.07-31.4,17.75-12.79,3.94-24.7,2.68-36.56-2.68-21-9.54-36.18-25.84-49.44-44-14.47-19.88-26.08-41.6-39.07-62.44-10.86-17.42-22.67-34.12-38-48S295.72,453.67,274.72,452c-23.37-1.89-43.62,5.9-62,19.56-16.89,12.56-30.79,28.22-44.46,44-13.83,16-27.13,32.44-42.58,46.93-11.81,11.07-24.28,21.36-39.5,27.46-14.76,5.92-29.26,4.12-43.49-2.4C31.13,582.22,21.09,574.42,10.2,568c-14-8.26-28.83-14.23-45.49-14-12.78.16-24.55,4.29-36,9.51-23.8,10.85-44.19,26.57-63,44.51-4.53,4.32-10.21,7.66-12.53,14" fill="none" stroke="#0058ff" stroke-linecap="round" stroke-linejoin="round" stroke-width="2"/><path d="M1018.21,1233c0,.85.21,2-1,2-10.81-.23-16.69,7.08-22.51,14.53s-10.24,16-16.87,23.12c-10.65,11.37-23.4,12.61-37.16,7-19.24-7.89-32.46-22.53-44.42-38.6-13.74-18.45-24.59-38.82-38-57.49-10.4-14.44-21.69-27.77-36.94-37.62s-31.87-13.29-49.58-12.3c-16.94.94-32.91,6-48,13.53A223.11,223.11,0,0,0,684.22,1173c-17,13.73-33.37,28.34-52,40-24.34,15.28-50.55,23.9-79.51,21.88-20.71-1.44-40.52-7-59.5-15.41-20.07-8.87-38.65-20.33-56.5-33-30.43-21.63-58.67-46.1-88.55-68.44-19.83-14.82-40.48-28.55-63-38.91a187.9,187.9,0,0,0-50.41-15.32c-14.57-2.22-29.09-2.79-43.5-.67-24.13,3.55-44.7,14.29-62.17,31.71-14.81,14.77-24,32.79-32.81,51.16-6,12.45-12,24.85-21,35.49-8.45,9.93-18.84,16.26-32,16.91-9.9.48-18.82-3.11-27-8.45-14.75-9.68-26.14-22.78-37.08-36.42-10.12-12.62-17-27.34-26.89-40.09-4.31-5.56-8.81-10.77-14.5-15-8.6-6.43-17.35-5.42-26-.86a77.55,77.55,0,0,0-22,18c-10.58,12.1-21.63,23.78-31.71,36.33a29,29,0,0,0-4.86,9.12" fill="none" stroke="#0058ff" stroke-linecap="round" stroke-linejoin="round" stroke-width="2"/><path d="M1015.21,1202.5c-10.26.59-17.29,6.32-23.59,13.92-5.68,6.84-9.75,14.75-15.35,21.62-2.94,3.59-5.78,7.2-9.55,10-12.3,9-24.47,5.92-36.49-.53-16.32-8.75-27.52-22.78-38-37.48-13.24-18.58-23.51-39-36.93-57.55-12.42-17.1-26.3-32.46-45.6-41.9-14.17-6.93-29.31-8.91-45-7.82-29.21,2-53.65,15.62-77,31.81-17.42,12.09-33.28,26.3-51,38-16.89,11.1-34.64,20.43-54.51,25a132.6,132.6,0,0,1-43.51,2.77,187.53,187.53,0,0,1-43-9.76c-18.42-6.45-35.56-15.55-52-26-22-13.94-42.38-30-62.57-46.41-22.7-18.43-45-37.31-69.4-53.64-19.2-12.88-39.51-23.56-61.6-30.24a136.13,136.13,0,0,0-35.93-5.37c-32.88-.9-62.09,8.7-88,28.69-16.24,12.54-28.85,28.14-39.15,45.9C80,1115.6,73.21,1128,64.25,1139c-5,6.19-10.39,11.93-17,16.49-14.11,9.71-28.47,9.14-42.45.38-15.09-9.45-26.11-23.12-35.45-38-6.91-11-12.7-22.65-19.15-33.91a66.57,66.57,0,0,0-9.41-12.58c-10.29-10.91-18.42-10.12-30.51-3.85-9.59,5-16.92,12.87-24.08,20.88-9.54,10.66-18.74,21.6-28.1,32.41-2.47,2.84-3.5,5.95-4.87,9.12" fill="none" stroke="#0058ff" stroke-linecap="round" stroke-linejoin="round" stroke-width="2"/><path d="M944.21,1380a10.52,10.52,0,0,1-7.6-2.37c-18.62-14.93-32.54-34-46.88-52.64-13.2-17.19-26.22-34.47-43-48.54-13.82-11.6-29.64-18.6-47.54-18.7-16.16-.09-31.49,4.52-46.06,12.12-21.25,11.07-37.81,27.61-53.84,44.72-15.1,16.12-30.08,32.24-49.1,43.89-18.78,11.5-38.91,15.86-61,13.19-24.88-3-46.63-13.29-67.46-26.2-24.25-15-45.84-33.66-68-51.45-26.74-21.44-53.38-43-83-60.48-25.41-14.94-51.88-27.32-81.48-31.54-16.42-2.35-32.75-3.35-49,1.45-16.76,4.94-28.65,15.35-37.07,30.5-8.06,14.52-12.26,30.33-16.95,46-4.94,16.54-9.45,33.33-20,47.49-11.2,15-26.24,21.43-45,20.09-20.47-1.46-36.73-11.93-52.47-23.61-13.5-10-25.38-21.91-37.49-33.5-17.54-16.78-33.85-34.84-52-51a108.49,108.49,0,0,0-21-15c-14.26-7.58-28-6.17-41.51,2-13.23,8-23.21,19.74-33.92,30.57-7.38,7.46-14,15.62-21.09,23.41-3.63,4-7.14,8.08-8.49,13.52" fill="none" stroke="#0058ff" stroke-linecap="round" stroke-linejoin="round" stroke-width="2"/><path d="M1010.21-49c-12.36,3.62-22,11.23-30,21-15.37,18.79-22.86,41.31-30,64-6.49,20.53-12.8,41.12-25.46,59-14,19.83-33.19,27.41-58.54,21.55-19.24-4.45-35.53-14.45-51-26.11a333.46,333.46,0,0,1-30.09-25.9c-16.3-15.7-32.67-31.37-49.52-46.47-17.32-15.51-35.07-30.61-56.43-40.57-15.69-7.33-32.08-11.55-49.48-9.42-11.93,1.45-22.55,6.46-32,13.9C583.82-7.11,573.63,7,563.23,21c-10,13.46-21.49,25.41-36,33.94-17.07,10-35.68,12.46-55,9.47-20.36-3.15-38.36-12.05-55-23.91-18.77-13.37-35-29.52-51.57-45.44-14.84-14.3-30.52-27.7-49.44-36.53-7.63-3.57-15.37-7-24-7.54" fill="none" stroke="#0058ff" stroke-linecap="round" stroke-linejoin="round" stroke-width="2"/><path d="M1772.21,1227c-.08,1.9.27,3.59-1.94,5.08-14,9.41-28.14,18.51-43.57,25.38-16.79,7.48-34.13,13.07-52.47,15.65a157,157,0,0,1-45-.25c-18.24-2.69-35.78-8.22-53-14.77-23.76-9-46.75-20.16-71.47-26.59-19.18-5-38.51-7.83-58.5-6.63-28.56,1.71-54.54,11-79,25.18a240.18,240.18,0,0,0-48.52,37.46c-11.72,11.61-23.26,23.41-35,35-12.91,12.66-27.14,23.55-44,30.48a91.77,91.77,0,0,1-47,6.35c-25.67-3.16-47.23-15.06-67.55-30.23-20.06-15-35.75-34-51.49-53-10.48-12.7-21.44-25-35.48-34-5.93-3.8-12.2-7-19.48-7.29" fill="none" stroke="#0058ff" stroke-linecap="round" stroke-linejoin="round" stroke-width="2"/><path d="M539.21,1380a13.21,13.21,0,0,1-9.11-2.84c-22.39-15.9-43.2-33.76-64.41-51.14-27.2-22.28-54.77-44.13-85.51-61.47-21.74-12.27-44.62-21.87-69.48-25.73-13.25-2.06-26.56-3-40-.64-22.8,3.92-37.43,17.47-46.5,38.06-6.15,14-9.58,28.76-13.93,43.27-4.49,15-9,29.92-18,43-4.64,6.72-10.82,11.92-17.13,16.83-2.57,2-6.56.4-9.89.66" fill="none" stroke="#0058ff" stroke-linecap="round" stroke-linejoin="round" stroke-width="2"/><path d="M212.21,955c.38,2.18-1.11,2-2.5,2-29.25.2-54.17,12.35-77.46,28.55-23.56,16.4-43.1,37.12-61.55,58.94-13.64,16.12-27.66,31.86-46,43-7.56,4.6-15.52,7.39-24.52,6.49a25.69,25.69,0,0,1-13.93-6.09c-9.62-8-15.84-18.48-20.57-29.92-5.78-14-8.83-29-16.05-42.47-3.71-6.91-7.93-13.2-16.39-15.72-6.2-1.85-11.42.17-16.49,2.33-8.55,3.65-15.86,9.44-22.54,15.88-13.36,12.87-25.31,27-37.46,41-1.65,1.9-2.4,4.6-3.57,6.94" fill="none" stroke="#0058ff" stroke-linecap="round" stroke-linejoin="round" stroke-width="2"/><path d="M260.21-49c-6.81.17-12.9,2.92-19,5.53C225.09-36.52,211.41-25.95,198.72-14,183.11.72,169.26,17.22,153.19,31.47c-14.76,13.09-30.57,24.24-50.45,28.64C85.42,64,69.09,61.63,53.23,54.46c-14.17-6.4-26-16.11-37.57-26.4C1.57,15.47-11,1.38-24.85-11.43c-12-11.13-24.7-21.37-39.91-28.14-16.54-7.37-33.49-8.69-51-4.94-10.89,2.33-21.54,5.3-31,11.51" fill="none" stroke="#0058ff" stroke-linecap="round" stroke-linejoin="round" stroke-width="2"/><path d="M507.21,1380a8.31,8.31,0,0,1-7-2.44c-21.3-18.91-43.14-37.11-66.38-53.65a415,415,0,0,0-45.5-28.54c-18.21-9.7-37.37-16.54-57.6-19.64-14.37-2.2-29.07-2.84-43.47,1.25-14.6,4.15-25.39,12.74-33.11,26-8.52,14.57-12.14,30.73-16.91,46.56-2.87,9.54-6,19-9,28.5-.62,2-2.15,2.35-4,2" fill="none" stroke="#0058ff" stroke-linecap="round" stroke-linejoin="round" stroke-width="2"/><path d="M682.21-49c14.63,8.47,27.09,19.71,39.49,31,22.49,20.5,43.69,42.38,67,62,13.55,11.41,28,21.48,44.07,28.87,13.37,6.14,27.64,9.42,42.44,8,13.42-1.28,23.82-8.43,32-18.9,12.79-16.37,19.44-35.67,26-55,6.07-17.87,12-35.78,22-52,.87-1.42,2-2.68,3-4" fill="none" stroke="#0058ff" stroke-linecap="round" stroke-linejoin="round" stroke-width="2"/><path d="M129.21,1380c-8.64,1.35-15.33-2.56-22.63-6.76-17.36-10-32.29-22.81-46.88-36.23-15.61-14.37-30.7-29.3-46.08-43.91-11.85-11.26-23.85-22.5-37.93-31.06-9.32-5.67-19.1-10-30.48-9.61-11.56.41-21.41,5.1-30.45,11.62-15.89,11.46-29.13,25.82-42.53,40-4.46,4.71-8.46,9.87-13.1,14.39a22.26,22.26,0,0,0-5.92,9.59" fill="none" stroke="#0058ff" stroke-linecap="round" stroke-linejoin="round" stroke-width="2"/><path d="M919.21,1379.75c-2.46,1-3.71-.67-5-2.26-9-11.16-17.85-22.46-27-33.46-13.59-16.28-27.23-32.6-45.51-44a68.7,68.7,0,0,0-34.45-10.71c-24.91-.92-45.8,8.52-65,23.15-17.52,13.34-31.37,30.29-46.05,46.46-6.25,6.89-13,13.33-19.43,20.06-1.71,1.78-3.71.57-5.53,1" fill="none" stroke="#0058ff" stroke-linecap="round" stroke-linejoin="round" stroke-width="2"/><path d="M713.21-49Q732-31.26,750.71-13.5c16.43,15.56,33.36,30.51,53,42,14.54,8.48,29.93,14.35,47,15,19.22.76,33.59-7.55,44.55-23,11.62-16.35,18.13-35,25-53.53,2-5.35,4-10.67,6-16" fill="none" stroke="#0058ff" stroke-linecap="round" stroke-linejoin="round" stroke-width="2"/><path d="M481.21,1380c-6,1.56-8.44-3.89-11.89-6.63-24.39-19.39-49.7-37.22-78.61-49.35a156.92,156.92,0,0,0-37.48-10.62c-8-1.21-16-2.29-24-1.86-25.42,1.37-44.34,10.77-56.08,38.92a274,274,0,0,0-9.93,29.54" fill="none" stroke="#0058ff" stroke-linecap="round" stroke-linejoin="round" stroke-width="2"/><path d="M347.21-49C360-38.37,371.57-26.36,383.69-15c14.73,13.83,30.46,26.27,48.54,35.44,14.58,7.4,30.19,11.52,46.48,11.38,18.5-.16,35-6.46,49.56-18.27,13.94-11.33,23.91-25.91,34.43-40.09,6.08-8.19,12.59-16,20.51-22.48" fill="none" stroke="#0058ff" stroke-linecap="round" stroke-linejoin="round" stroke-width="2"/><path d="M88.21,1380c-2.46-.07-4.39-.22-6.64-2.35-10.33-9.84-20.5-19.86-31-29.53-16.12-14.89-30.7-31.51-48.87-44.14-12.23-8.51-25.16-15.33-40-18-9-1.62-17.69.1-26,3.14-14.06,5.17-25.62,14.48-36.48,24.46-14.4,13.24-28.74,26.57-41.67,41.34-2.19,2.5-3,5.35-4.4,8.09" fill="none" stroke="#0058ff" stroke-linecap="round" stroke-linejoin="round" stroke-width="2"/><path d="M200.21-49c-17.13,13.34-30,31-46,45.51-12.92,11.77-26.36,22.74-43,29C88.44,34,66.53,32,45.19,20.55,31.78,13.34,20.08,4,9.23-6.51Q-10.6-25.69-30.29-45c-1.64-1.6-3.1-3.45-5.5-4" fill="none" stroke="#0058ff" stroke-linecap="round" stroke-linejoin="round" stroke-width="2"/><path d="M1015.21,1201c0,1.07.11,2,1.5,2,11.1.3,19.33,6.48,27,13.53,13.29,12.25,22.85,27.46,32.47,42.51,14,21.92,30.72,41.27,51.55,57a122.67,122.67,0,0,0,46.56,21.77,43,43,0,0,0,14.46,1.28c1.33-.16,3.67-1.1,3.49,1.93" fill="none" stroke="#0058ff" stroke-linecap="round" stroke-linejoin="round" stroke-width="2"/><path d="M737.21-49c14.2,12.57,28.08,25.59,44,35.92,12.91,8.36,26.73,15.18,42,18,23.09,4.24,42.63-1.71,57-21.37a140,140,0,0,0,18-32.53" fill="none" stroke="#0058ff" stroke-linecap="round" stroke-linejoin="round" stroke-width="2"/><path d="M-5.79-49C5.4-38.64,16.26-27.93,28.68-19S54.58-3.23,69.74-1.16c19.75,2.71,38.14-2.13,55-12.84,15.22-9.68,28.34-21.78,40.49-35" fill="none" stroke="#0058ff" stroke-linecap="round" stroke-linejoin="round" stroke-width="2"/></g></g></g></g></svg>