<svg id="Capa_1" data-name="Capa 1" xmlns="http://www.w3.org/2000/svg" viewBox="0 0 500 404.47"><path d="M381.21,467.84c-.69,14.92,1.71,32.26-3.65,49.2-7.3,23-21.47,40.49-43.07,50.77a358.9,358.9,0,0,1-130.71,34.24c-31.42,2.15-51-14.58-53-45.87-7-110.65,31.08-203.77,111.16-279.88,15.31-14.55,34.59-21,55.51-22.6,3.65-.27,7.36-.42,10.94,1.11,4.24,1.81,6.48,5,5.94,9.39-.57,4.76-3.36,8.15-8.58,7.95-29.69-1.17-50.27,14.8-69.15,35.26C208,360.12,179.42,422.13,170.22,493c-2.86,22-3.58,44.31-.71,66.55,1.72,13.33,12.73,24.61,26.05,24.06,47.75-2,93.44-13.15,135.7-35.5,20.83-11,30.72-30.75,31.26-54.38.45-19.76.18-39.54.07-59.31,0-6.92,1.46-13,9.64-12.81,7.6.13,9.12,5.9,9,12.48C381.09,444.56,381.21,455.06,381.21,467.84Z" transform="translate(-150 -197.76)" fill="#92cae5"/><path d="M418.26,465.3c0-10.81.05-21.62,0-32.44,0-6.43,2.38-11.27,9.3-11.31s9.33,4.79,9.31,11.25c-.06,19.15-.15,38.3,0,57.45.24,29,13.14,50.19,39.74,62.37a340.55,340.55,0,0,0,123,30.89c18.16,1,29.31-9,30.5-27.08,6.86-104.67-28.26-193-104-265.33-13.38-12.77-29.81-18.35-48-18.79-6.92-.17-13.15-1.06-12.87-9.32.27-8,6.78-9.57,13.45-9.35,22.69.74,43.16,7.81,59.84,23.44,59.74,56,95.88,124.45,107.89,205.56a328.76,328.76,0,0,1,2.31,77.54c-2.07,23.3-21.32,42.5-44.92,42-41.72-.94-81.65-11.09-120.4-26.26-18-7.06-34.92-15.54-47.15-31.32-13.92-18-18.93-38.42-18-60.74C418.47,477.66,418.26,471.47,418.26,465.3Z" transform="translate(-150 -197.76)" fill="#92cae5"/><path d="M400,373.9c8.62,1.14,16.79,2.3,24.63,5.45q54,21.7,108.06,43.17l2.57,1c5.88,2.4,9.57,6.47,7,12.92s-8.12,6.74-14,4.39l-62.58-25c-16-6.4-32-12.74-48-19.21-12-4.89-23.9-4.77-36,.08-35.69,14.37-71.46,28.54-107.2,42.8-1.14.46-2.26,1-3.4,1.44-5.94,2.35-11.42,1.86-13.85-4.65s1.29-10.41,7.25-12.78C293.39,412,322.2,400.35,351.14,389c13.15-5.16,25.75-12,40-13.88Z" transform="translate(-150 -197.76)" fill="#92cae5"/><path d="M381.21,253c0,12.65,0,25.29,0,37.94-.11,29.16-14.95,51.68-41.78,62.78C321.8,361,304,367.81,286.28,374.93c-6.41,2.58-12.5,3.39-15.31-4.43-2.62-7.31,2.52-10.5,8.45-12.85,17.72-7,35.47-14,53.09-21.34,20.12-8.33,30.05-23.66,30.1-45.37.06-25.6,0-51.21,0-76.82,0-2.16-.11-4.33.06-6.47.47-6,3.1-10.15,9.72-9.87,6.09.25,8.66,4.31,8.72,9.89.14,15.11.05,30.23.05,45.35Z" transform="translate(-150 -197.76)" fill="#92cae5"/><path d="M418.26,252.53q0-21.3,0-42.58c0-6.49,1.56-12.11,9.34-12.12s9.25,5.71,9.25,12.16c0,26.53,0,53.06,0,79.6-.06,22.84,10.09,38.75,31.51,47.26,17.16,6.82,34.23,13.83,51.39,20.61,6.28,2.48,11.73,5.72,8.63,13.48s-9.26,6.3-15.53,3.76c-17.68-7.15-35.63-13.66-53.14-21.2-27-11.66-40.89-32.6-41.38-62.1C418.08,278.44,418.26,265.48,418.26,252.53Z" transform="translate(-150 -197.76)" fill="#92cae5"/></svg>