<svg id="Capa_1" data-name="Capa 1" xmlns="http://www.w3.org/2000/svg" viewBox="0 0 249.27 249.27"><path d="M125.06,121.64q-34.89,0-69.78,0c-1.63,0-3.2-.29-2.82,2.32,1.47,10.21,2,20.55,4.11,30.66a45,45,0,0,0,2.12,6.17c.64,1.73.47,3.22-1.36,4s-3-.15-3.8-1.81c-2.45-5.09-3.4-10.54-4-16.08-.87-7.69-1.88-15.37-2.73-23.06A2.93,2.93,0,0,0,44.42,121a9.75,9.75,0,0,1-6.33-10.9,9.52,9.52,0,0,1,9.23-8.19c8.64-.18,17.29-.09,25.94-.1,15.6,0,31.21,0,46.81,0,2.4,0,3-.73,3-3C123,77.52,123,56.25,123,35c0-5,.31-5.3,5.17-5.29a74,74,0,0,1,22.49,3.84c1.8.58,2.87.79,3.78-1.43,1.16-2.81,3.81-3.63,6.76-2.33a86.83,86.83,0,0,1,35.31,28.44c1.18,1.61,1.28,3.15-.5,4.36s-3.15.13-4.23-1.32a83.33,83.33,0,0,0-20.12-19.31,102.1,102.1,0,0,0-10.29-6c-1.51-.78-2.27-.79-3,1.07Q146,68.28,133.45,99.43c-.8,2-.2,2.15,1.67,2.41,7.14,1,13.15-2.36,19.37-4.81,14.75-5.82,29.42-11.84,44.2-17.6,2.47-1,2.75-2,1.53-4.05a16.25,16.25,0,0,1-1.42-2.94,2.68,2.68,0,0,1,1.43-3.5,2.34,2.34,0,0,1,3.36.92A23.53,23.53,0,0,1,207.11,78,4.52,4.52,0,0,1,204,83.22c-2,.71-2,1.61-1.41,3.33a75.8,75.8,0,0,1,3,14.55,3.42,3.42,0,0,0,1.54,2.6c6.13,4.81,5.38,13.28-1.55,16.93a3.2,3.2,0,0,0-1.93,2.91c-1,9.07-1.89,18.17-3.28,27.19-2.61,17-12.15,28.5-28.49,34.15-2,.68-3,1.46-2.74,3.69a21.13,21.13,0,0,1,0,4.77c-.24,2.33.44,3,2.74,2.12,7.85-2.9,15.51-6,21.74-11.94a8.69,8.69,0,0,1,12.35.54,8.84,8.84,0,0,1,.08,12.39,43.85,43.85,0,0,1-10.54,8.21c-12.27,7.19-25.75,10.7-39.62,13a194.06,194.06,0,0,1-47.54,1.78c-17.78-1.49-35.2-4.67-51.29-12.94A50.69,50.69,0,0,1,43.83,197c-4.08-4.16-4.25-9.46-.46-13.27,3.55-3.56,9.1-3.47,13.08.35,6.66,6.42,15.07,9.37,23.6,12.1,1.1.35,1.74.18,1.59-1.15,0-.2,0-.4,0-.6,0-2.58.67-5.45-.22-7.67-1-2.42-4.42-2-6.68-3.06a48.31,48.31,0,0,1-11.89-7.83c-1.54-1.42-2.59-3-.94-4.85s3.19-.8,4.61.53c7.41,6.94,16.25,9.88,26.34,9.83,22-.13,43.93,0,65.9-.09,19.49-.07,34.12-13.42,36.24-32.81.85-7.69,1.92-15.36,2.82-23.05.44-3.72.37-3.74-3.29-3.74Zm-.4-5.48h74.21a13.46,13.46,0,0,0,3.54-.3,4,4,0,0,0,3.22-4.41c-.17-2.39-1.68-3.73-4-4.08a15.85,15.85,0,0,0-2.39,0H49.92c-.6,0-1.2,0-1.79,0-2.65.16-4.45,1.82-4.56,4.18a4.52,4.52,0,0,0,4.19,4.59,22.77,22.77,0,0,0,3,.06Zm-.45,98.39c17.46-.35,34.31-1.9,50.66-7,9.63-3,18.78-7,26.25-14.05,1.73-1.63,2.53-3.53.8-5.45s-3.69-1.3-5.41.4a41.41,41.41,0,0,1-11.31,7.61c-11.09,5.35-22.87,8.26-35,9.81-24.06,3-47.92,2.49-71.37-4.29-9.38-2.71-18.45-6.19-25.75-13-1.75-1.65-3.5-2.81-5.66-.8-1.65,1.54-1.25,3.66,1.07,5.88a55,55,0,0,0,17.89,11C85.05,212.16,104.74,214,124.21,214.55Zm1-27.67c-8,0-16.1.07-24.14,0-2.1,0-2.78.64-2.66,2.71.16,2.88.09,5.77,0,8.65,0,1.46.42,2,2,2.24a195.2,195.2,0,0,0,49.61-.07c1.77-.23,2.36-1,2.28-2.72a57.87,57.87,0,0,1,0-7.45c.21-2.56-.53-3.45-3.25-3.38C141.1,187,133.15,186.88,125.2,186.88Zm3.55-91.72a10.21,10.21,0,0,0,.91-1.33c7-17.39,13.87-34.8,20.89-52.16.81-2-.23-2.43-1.67-2.88a80.54,80.54,0,0,0-18.08-3.43c-1.58-.11-2.08.27-2.08,1.87C128.76,56.31,128.75,75.39,128.75,95.16Zm30.8,5.9.09.71c12.78,0,25.56,0,38.34,0,1.81,0,1.91-.94,1.73-2.27a77,77,0,0,0-2.55-11.6c-.4-1.38-1-1.6-2.36-1-2.05,1-4.23,1.68-6.35,2.52ZM93,193.17a22,22,0,0,1,0-3.25c.34-2.47-.63-3.23-3.08-3.17-1.87,0-2.73.4-2.59,2.42a58.45,58.45,0,0,1,0,5.92c-.12,3.77.42,3.32,4.43,3.76,2.52.27.66-2.2,1.14-3.33A6.56,6.56,0,0,0,93,193.17Zm65-.58h0c0,1.58,0,3.17,0,4.75,0,.73.11,1.23,1.1,1.33,2.69.26,4.42-1.16,4.43-3.85,0-2.07-.05-4.15,0-6.22,0-1.4-.5-1.8-1.91-1.87-2.59-.12-4.26.37-3.68,3.5A12.38,12.38,0,0,1,158,192.59Z" fill="#7746ff"/></svg>