<svg id="Capa_1" data-name="Capa 1" xmlns="http://www.w3.org/2000/svg" viewBox="0 0 249.27 249.27"><path d="M124.62,207.41c-32.65,0-60.93-20.6-71.66-52.25-.59-1.74-1.15-2.33-3.08-2.23a20.9,20.9,0,1,1-.23-41.77c2,.08,2.67-.33,3.34-2.25C61,85.69,76.46,69.5,99.58,61c38.77-14.24,83.19,7.29,96.17,46.55.92,2.79,2.1,3.59,5.13,3.68A20.65,20.65,0,0,1,221.11,133c-.48,11.62-10.1,20.4-22.05,19.91-2-.08-2.24.88-2.73,2.32-6.2,18.2-17.44,32.33-34.08,42.09A74.47,74.47,0,0,1,124.62,207.41ZM104.29,66.05c-1.26-.79-2.35.14-3.37.53Q69.18,78.79,58.25,111c-1.73,5.1-3.07,6-8.31,5.83a15.31,15.31,0,0,0-16.16,15.38c0,8.48,7.41,15.35,16.24,15a9.37,9.37,0,0,1,4.72.63c2.76,1.39,3.17,4.25,4,6.76,11,32,43.33,52.4,78.1,45.95,26.83-5,44.8-21.24,54-47,2-5.67,2.86-6.33,8.89-6.26a15.52,15.52,0,0,0,15.77-15,15.36,15.36,0,0,0-15.18-15.51c-7.07-.08-7.65-.5-9.8-7.12-.18-.57-.34-1.15-.55-1.71a69.72,69.72,0,0,0-64.8-45.6c-6.57,0-12.51,2-16.69,7.46-3.63,4.75-2.51,9.35,3,11.67,7.68,3.23,15.66,2.88,23.63,1.14,1.54-.34,3.59-.75,3.77-2.45s-1.79-2.44-3.17-3.24c-3.41-2-7.23-2.25-11-2.58-1.82-.16-2.83-1.12-2.75-2.9a2.65,2.65,0,0,1,3-2.67c5.48.18,10.8,1.09,15.4,4.36,2.65,1.88,4.64,4.2,4.26,7.76s-2.85,5.47-5.94,6.48a43,43,0,0,1-28.64-.3C100.23,83.51,98,74.5,104.3,66l-.1-.18Z" fill="#7746ff"/><path d="M124.9,156.43c8.34,0,16.68,0,25,0,4.29,0,5.11,1,4.58,5.3-1.45,11.92-10.74,21.69-23.37,23.88-12,2.08-22.51-1-30.65-10.45a24.2,24.2,0,0,1-5.77-14.25c-.26-3.33.62-4.45,4-4.47C107.42,156.39,116.16,156.43,124.9,156.43Zm-.24,5.69c-5.93,0-11.85-.06-17.78,0-2,0-5.27-1-5.86.52-.86,2.16,1,4.71,2.32,6.85a2.15,2.15,0,0,0,.18.24A25.64,25.64,0,0,0,130,180c8.64-1.85,14.93-6.56,18.13-15,.76-2,.6-3-2.06-2.92C138.93,162.24,131.79,162.12,124.66,162.12Z" fill="#7746ff"/><path d="M103.18,137.53c.07,1.7-.5,3-2.35,3.26a2.56,2.56,0,0,1-3.06-2.21c-.42-1.87-1-3.54-3.32-3.57s-3,1.66-3.38,3.52a2.56,2.56,0,0,1-3.3,2.2c-1.66-.32-2.21-1.59-2.18-3.13.08-4.51,4.26-8.39,9-8.32A8.66,8.66,0,0,1,103.18,137.53Z" fill="#7746ff"/><path d="M155,129.28a8.76,8.76,0,0,1,8.64,7.63c.24,1.76-.06,3.3-2,3.79s-3-.48-3.43-2.37-1.09-3.32-3.24-3.32-3,1.55-3.38,3.49a2.59,2.59,0,0,1-3.29,2.24c-1.72-.31-2.13-1.58-2.13-3.13A8.64,8.64,0,0,1,155,129.28Z" fill="#7746ff"/><path d="M152,117.37c4.5.11,9,2.24,12.94,5.75,1.48,1.32,2.59,2.83,1.05,4.62s-3.22,1.08-4.7-.29a17,17,0,0,0-10.83-4.54c-2.13-.15-4.61-.19-4.24-3.28S149.08,117.18,152,117.37Z" fill="#7746ff"/><path d="M103.14,119.91a2.62,2.62,0,0,1-2.82,2.85,19.34,19.34,0,0,0-13,5.23,2.59,2.59,0,0,1-4-.23c-1.16-1.36-.82-2.78.4-4a22.33,22.33,0,0,1,16.54-6.56A2.61,2.61,0,0,1,103.14,119.91Z" fill="#7746ff"/></svg>