<svg id="Capa_1" data-name="Capa 1" xmlns="http://www.w3.org/2000/svg" viewBox="0 0 249.27 249.27"><path d="M179.77,131.94c.71,6,1.46,12,2.12,18a119.78,119.78,0,0,1-.87,35.26c-.36,2-1.1,3.36-3.26,3.12s-2.55-2-2.26-3.87A130.44,130.44,0,0,0,176.84,160c-.52-16.32-3.73-32.17-7.77-47.91-2.07-8.1-4.49-16.09-7.14-24-.66-2-.31-3.47,1.64-4.18,2.11-.76,3.22.6,3.81,2.41,3,9.28,6.12,18.56,8.07,28.12,1.16,5.73,5,9.35,8.69,13.07,1.78,1.79,4.56,1.41,6.78.06q8.81-5.31,17.51-10.79c2.56-1.61,3-4.78,1.1-8-4.19-7-8.47-14-12.73-20.93-6.3-10.32-12.53-20.69-19-30.92a46.54,46.54,0,0,0-20.39-17.48c-1.95-.9-2.72-.92-2.77,1.66-.25,13.93-6.83,23.68-19.75,29a2.46,2.46,0,0,0-1.78,2.68q.06,39.82,0,79.64a2.21,2.21,0,0,0,1.59,2.49c12.4,4.45,21.21,19.23,12.36,37.75-.65,1.36-1.44,2.65-2.12,4a11.81,11.81,0,0,0,19.51,13.08,42.1,42.1,0,0,0,6.72-11.07c.81-1.9,1.93-3.31,4.1-2.4s1.92,2.85,1.13,4.64a45,45,0,0,1-8.32,13.25,17.17,17.17,0,0,1-22.82,2.35,17.36,17.36,0,0,1-5.43-22.34c2.35-4.49,4.46-9,4.91-14.14,1-11.15-6.62-20.2-17.79-20.92-11.48-.75-20.16,4.86-22.1,14.46-1.37,6.75.23,13,3.63,18.87a18.92,18.92,0,0,1,2.84,10,17.44,17.44,0,0,1-10.95,16,16.94,16.94,0,0,1-18.71-3.8c-6.28-6.47-9.83-14.46-12-23-3.55-13.75-3.73-27.7-2.27-41.76.63-6,1.67-12,2.47-18.31-2.94,1.7-5.69,3.09-8.92,2.74-1.18-.12-1.47.89-1.94,1.62-1.35,2.12-2.6,4.33-4,6.4-2.22,3.22-5.63,4-9,2.05q-7.66-4.56-15.18-9.4c-3.11-2-3.89-5.46-2.19-8.76A25.34,25.34,0,0,1,30,123.9c2.26-3.42,4.46-6.72,3.07-11.3-.67-2.19.34-4.55,1.59-6.61q7-11.34,13.86-22.72C49.64,81.5,51,80,53.17,81.39s1.26,3.27.19,5q-6.57,10.7-13.08,21.43c-2.83,4.65-2.27,7.11,2.25,9.92q7.57,4.71,15.18,9.39c3.61,2.23,6.22,1.45,9.37-1.37,5.63-5,6.73-11.87,8.57-18.54,1.92-7,4.1-13.89,6.2-20.82.55-1.79,1.59-3.26,3.71-2.59s2.42,2.23,1.73,4.35c-5.77,17.52-10.73,35.27-13.2,53.58-2.41,17.88-3.36,35.77,2.62,53.27a44.54,44.54,0,0,0,7.94,14.5,11.72,11.72,0,0,0,15.75,2.52,11.5,11.5,0,0,0,3.84-15.41c-3.76-6.87-6.44-14-5.34-21.91,1.26-9.08,6.21-15.6,14.61-19.32,1.88-.84,2.67-1.75,2.66-3.95-.09-25.94-.06-51.88,0-77.82,0-1.7-.07-2.87-2.07-3.71-12.53-5.21-19-14.74-19.49-28.29-.13-3.36-.15-3.39-3.31-1.9a46.3,46.3,0,0,0-19.84,17.2c-3.36,5.26-6.57,10.62-9.82,16-1.14,1.88-2.57,3-4.69,1.64a2.2,2.2,0,0,1-1-3.14C63,60,68.72,47.49,80.35,39.48A54.53,54.53,0,0,1,111,29.62c9-.16,18-.22,27,0,19.68.5,35.16,8.87,45.65,25.63S204,88.83,214.31,105.57a12.55,12.55,0,0,1,1.51,10.14,4.12,4.12,0,0,0,.62,3.63c1.37,2.12,2.7,4.26,4,6.44,2.11,3.67,1.31,7.14-2.25,9.41q-7.14,4.56-14.4,8.93c-3.94,2.35-7.34,1.48-9.85-2.37-.44-.68-.83-1.38-1.25-2.07-1.78-3-3.12-6.22-7.72-5.76-1.66.16-3.48-1.24-5.23-1.92l-.15-.28c0,.06,0,.17,0,.18A.85.85,0,0,0,179.77,131.94Zm-58-22q0,19.68,0,39.35c0,2-.68,4.1,2.92,4.07s2.78-2,2.78-3.91c0-6.66,0-13.32,0-20q0-29.67,0-59.33c0-2.19.29-3.86,2.8-4.65,13-4.08,19.25-13.1,18.73-26.79,0-1.29-.08-2.21-1.8-2.51-3.86-.67-3.83-.8-3.84,3.19,0,1,0,2,0,3a19,19,0,0,1-12.15,16.92,18.72,18.72,0,0,1-20.44-5c-4.25-4.69-5.16-10.3-4.9-16.33,0-.78.64-2.61-.94-2.2s-4.35-.76-4.6,2.12C99.09,52.13,106.88,62,118,65.25c2.88.85,3.88,2.19,3.85,5.08C121.72,83.55,121.78,96.77,121.78,110Zm2.93-74.66H119c-7.91,0-7.91,0-7.14,8.06A12.85,12.85,0,0,0,130,53.72c6.09-2.85,9.33-10.24,7.62-17.14-.37-1.47-1.37-1.23-2.32-1.24C131.75,35.31,128.23,35.33,124.71,35.33Zm-70.39,97.4c.11-1.22-.71-1.4-1.26-1.74q-4.62-2.9-9.25-5.74c-6-3.69-5.94-3.66-9.57,2.57-.87,1.49-.75,2.23.71,3.11,4.32,2.58,8.58,5.29,12.86,7.93.67.41,1.55,1.22,2.14.43C51.57,137.13,53,134.8,54.32,132.73Zm161.44-3.64c-1.14-1.86-2.42-3.79-3.54-5.81-.7-1.27-1.35-1.42-2.59-.63-4.41,2.82-8.85,5.62-13.37,8.25-1.71,1-1.55,2-.42,3,1.87,1.63,1.48,6.63,5.27,5,4.84-2.1,9.14-5.46,13.66-8.3C215.26,130.3,215.83,130,215.76,129.09Z" fill="#7746ff"/></svg>