<svg id="Capa_1" data-name="Capa 1" xmlns="http://www.w3.org/2000/svg" viewBox="0 0 249.27 249.27"><path d="M194.56,188.13c4.78,4.2,7.64,9.56,7.76,15.91l0,2.2c1.29-1.21,2.54-2.45,3.72-3.77.35-.39.7-.79,1-1.19-.51.71-.4.57.31-.42s1.17-1.74,1.69-2.65l0-.09a30.12,30.12,0,0,0-9.36-15.55c-2-1.84-4.24-3.34-6.56-.84S192.41,186.24,194.56,188.13Z" fill="#666"/><path d="M174.3,162.54c-5.72-3.68-12.85-3.37-19.07,1.39a50.56,50.56,0,0,1-61.36,0c-7.24-5.56-14.27-5.29-21.53.37Q61.72,172.61,51.16,181a30.61,30.61,0,0,0-10.25,14.08c.09.16.18.32.26.5A70.28,70.28,0,0,0,46.73,206a23.06,23.06,0,0,1,9.34-19.16q10-7.86,20-15.74c5.75-4.53,8.54-4.56,14.54-.22a55.42,55.42,0,0,0,27.57,10.76c15.49,1.45,29.58-2.32,42-11.93a8.45,8.45,0,0,1,10.26-.59c2.47,1.53,4.63,1.66,6.12-1S176.44,163.91,174.3,162.54Z" fill="#666"/><path d="M125.4,64.61c5.7.26,12.37-.86,18.77,1.12,11.06,3.42,18.62,10.62,21.76,21.84,4.4,15.68,4.65,31.46-.17,47.13-5.19,16.85-23.37,33.48-46.92,30.55-16.29-2-32.48-16.61-36.57-33.83a84.38,84.38,0,0,1,1.1-44.59,31.25,31.25,0,0,1,29.78-22.22C117,64.6,120.74,64.61,125.4,64.61Zm-.74,7.62c-3.42,0-6.84,0-10.26,0-12.56,0-21.68,7.26-24.57,19.43a79.8,79.8,0,0,0-.13,37.94c4.06,16.61,20.17,29.05,35.87,28.33,13.84-.63,27.55-10.14,32.4-24.15,5.31-15.32,4.85-30.9-.05-46.22-2.94-9.18-12.15-15.25-21.87-15.33C132.25,72.2,128.46,72.23,124.66,72.23Z" fill="#666"/><path d="M184.52,171.65c2.43.1,3.83,1.39,3.8,3.74a3.55,3.55,0,0,1-3.87,3.73,3.48,3.48,0,0,1-3.58-3.63C180.82,173.11,182.11,171.8,184.52,171.65Z" fill="#666"/><path d="M23.75,134.34a100.94,100.94,0,0,0,78.33,98.37c48.54,11.18,98.49-14.86,116.26-61.39,12.91-33.77,8.82-66-11.57-96-1.09-1.61-2.3-3.15-1.61-5.32a3.9,3.9,0,0,1,3.09-2.86c2.2-.43,3.7.66,4.93,2.35a106.54,106.54,0,0,1,12.18,21.33c24.58,58.39-3.48,124.25-62.91,146.17a109,109,0,0,1-142-69C1.45,108.84,33.73,47.33,93.32,29.34,127.55,19,159.57,25.07,188.91,45.4c3,2.05,3.73,4.77,2.15,6.9s-4.16,2.21-7.26,0c-19.8-14.11-42-20.75-66.07-18.67C80.63,36.84,52.65,54.92,34.93,88A96,96,0,0,0,23.75,134.34Z" fill="#666"/><path d="M203.39,60.1a4.06,4.06,0,0,1-4.22,3.82A4.12,4.12,0,0,1,195,59.54c.13-2.6,1.69-3.92,4.15-4.06C201.41,55.35,203.46,57.59,203.39,60.1Z" fill="#666"/></svg>